<?xml version="1.0" encoding="utf-8"?>
<svg xmlns="http://www.w3.org/2000/svg" viewBox="0 0 500 500">
  <g id="Bed_1_" transform="matrix(1, 0, 0, 1, 113.975733, 9.692732)">
    <g id="Shadow">
      <path style="opacity:0.01;fill:#515A7F;" d="M118.018,58.431H41.07c-2.509,0-4.543,2.034-4.543,4.543v93.579 c0,2.509,2.034,4.543,4.543,4.543h76.948c2.509,0,4.543-2.034,4.543-4.543V62.975C122.561,60.466,120.527,58.431,118.018,58.431z"/>
      <path style="opacity:0.0481;fill:#515A7F;" d="M40.464,57.836c-2.413,0-4.368,2.237-4.368,4.65v93.682 c0,2.413,2.236,4.369,4.648,4.369h77.018c2.413,0,4.368-2.218,4.368-4.631V62.467c0-2.413-1.956-4.631-4.368-4.631H40.464z"/>
      <path style="opacity:0.0862;fill:#515A7F;" d="M39.859,57.24c-2.316,0-4.194,2.441-4.194,4.757v93.785 c0,2.316,2.437,4.194,4.753,4.194h77.088c2.316,0,4.194-2.403,4.194-4.719V61.96c0-2.316-1.878-4.72-4.194-4.72H39.859z"/>
      <path style="opacity:0.1242;fill:#515A7F;" d="M39.254,56.645c-2.22,0-4.019,2.644-4.019,4.864v93.889 c0,2.22,2.638,4.019,4.858,4.019h77.157c2.22,0,4.019-2.587,4.019-4.807V61.453c0-2.22-1.799-4.808-4.019-4.808H39.254z"/>
      <path style="opacity:0.1623;fill:#515A7F;" d="M38.648,56.049c-2.123,0-3.844,2.847-3.844,4.97v93.992 c0,2.123,2.84,3.844,4.963,3.844h77.227c2.123,0,3.844-2.771,3.844-4.894V60.945c0-2.123-1.721-4.896-3.844-4.896H38.648z"/>
      <path style="opacity:0.2004;fill:#515A7F;" d="M38.043,55.454c-2.027,0-3.67,3.05-3.67,5.077v94.095 c0,2.027,3.041,3.67,5.068,3.67h77.297c2.027,0,3.669-2.956,3.669-4.982V60.438c0-2.027-1.643-4.984-3.669-4.984H38.043z"/>
      <path style="opacity:0.2385;fill:#515A7F;" d="M37.438,54.858c-1.93,0-3.495,3.254-3.495,5.184v94.199 c0,1.93,3.243,3.495,5.173,3.495h77.367c1.93,0,3.495-3.14,3.495-5.07V59.931c0-1.93-1.565-5.072-3.495-5.072H37.438z"/>
      <path style="opacity:0.2765;fill:#515A7F;" d="M36.833,54.263c-1.834,0-3.32,3.457-3.32,5.291v94.302 c0,1.834,3.444,3.32,5.278,3.32h77.437c1.834,0,3.32-3.324,3.32-5.158V59.423c0-1.834-1.486-5.161-3.32-5.161H36.833z"/>
      <path style="opacity:0.3146;fill:#515A7F;" d="M36.227,53.667c-1.737,0-3.145,3.66-3.145,5.397v94.406 c0,1.737,3.646,3.145,5.383,3.145h77.507c1.737,0,3.145-3.508,3.145-5.246V58.916c0-1.737-1.408-5.249-3.145-5.249H36.227z"/>
      <path style="opacity:0.3527;fill:#515A7F;" d="M35.622,53.071c-1.641,0-2.971,3.864-2.971,5.504v94.509 c0,1.641,3.847,2.971,5.487,2.971h77.576c1.641,0,2.971-3.693,2.971-5.333V58.409c0-1.641-1.33-5.337-2.971-5.337H35.622z"/>
      <path style="opacity:0.3908;fill:#515A7F;" d="M35.017,52.476c-1.544,0-2.796,4.067-2.796,5.611v94.612 c0,1.544,4.048,2.796,5.592,2.796h77.646c1.544,0,2.796-3.877,2.796-5.421V57.901c0-1.544-1.252-5.425-2.796-5.425H35.017z"/>
      <path style="opacity:0.4288;fill:#515A7F;" d="M34.411,51.88c-1.448,0-2.621,4.27-2.621,5.718v94.716 c0,1.448,4.25,2.621,5.697,2.621h77.716c1.448,0,2.621-4.061,2.621-5.509V57.394c0-1.448-1.174-5.514-2.621-5.514H34.411z"/>
      <path style="opacity:0.4669;fill:#515A7F;" d="M33.806,51.285c-1.351,0-2.446,4.473-2.446,5.824v94.819 c0,1.351,4.451,2.446,5.802,2.446h77.786c1.351,0,2.446-4.246,2.446-5.597V56.887c0-1.351-1.095-5.602-2.446-5.602H33.806z"/>
      <path style="opacity:0.505;fill:#515A7F;" d="M33.201,50.689c-1.254,0-2.271,4.677-2.271,5.931v94.923 c0,1.255,4.653,2.272,5.907,2.272h77.856c1.255,0,2.272-4.43,2.272-5.684V56.379c0-1.255-1.017-5.69-2.272-5.69H33.201z"/>
      <path style="opacity:0.5431;fill:#515A7F;" d="M32.595,50.094c-1.158,0-2.097,4.88-2.097,6.038v95.026 c0,1.158,4.854,2.097,6.012,2.097h77.925c1.158,0,2.097-4.614,2.097-5.772v-91.61c0-1.158-0.939-5.778-2.097-5.778H32.595z"/>
      <path style="opacity:0.5812;fill:#515A7F;" d="M31.99,49.498c-1.062,0-1.922,5.083-1.922,6.145v95.129 c0,1.062,5.056,1.922,6.117,1.922h77.995c1.062,0,1.922-4.799,1.922-5.86v-91.47c0-1.062-0.861-5.867-1.922-5.867H31.99z"/>
      <path style="opacity:0.6192;fill:#515A7F;" d="M31.385,48.903c-0.965,0-1.747,5.287-1.747,6.252v95.233 c0,0.965,5.257,1.747,6.222,1.747h78.065c0.965,0,1.747-4.983,1.747-5.948V54.857c0-0.965-0.782-5.955-1.747-5.955H31.385z"/>
      <path style="opacity:0.6573;fill:#515A7F;" d="M30.779,48.307c-0.868,0-1.573,5.49-1.573,6.358v95.336 c0,0.868,5.458,1.573,6.327,1.573h78.135c0.868,0,1.573-5.167,1.573-6.036V54.35c0-0.869-0.704-6.043-1.573-6.043H30.779z"/>
      <path style="opacity:0.6954;fill:#515A7F;" d="M30.174,47.711c-0.772,0-1.398,5.693-1.398,6.465v95.439 c0,0.772,5.66,1.398,6.432,1.398h78.205c0.772,0,1.398-5.352,1.398-6.124V53.843c0-0.772-0.626-6.131-1.398-6.131H30.174z"/>
      <path style="opacity:0.7335;fill:#515A7F;" d="M29.569,47.116c-0.675,0-1.223,5.896-1.223,6.572v95.543 c0,0.676,5.861,1.223,6.537,1.223h78.274c0.676,0,1.223-5.536,1.223-6.211V53.335c0-0.675-0.548-6.219-1.223-6.219H29.569z"/>
      <path style="opacity:0.7715;fill:#515A7F;" d="M28.964,46.52c-0.579,0-1.048,6.1-1.048,6.679v95.646 c0,0.579,6.063,1.049,6.642,1.049h78.344c0.579,0,1.048-5.72,1.048-6.299V52.828c0-0.579-0.469-6.308-1.048-6.308H28.964z"/>
      <path style="opacity:0.8096;fill:#515A7F;" d="M28.358,45.925c-0.483,0-0.874,6.303-0.874,6.785v95.749 c0,0.483,6.264,0.874,6.747,0.874h78.414c0.483,0,0.874-5.904,0.874-6.387V52.321c0-0.483-0.391-6.396-0.874-6.396H28.358z"/>
      <path style="opacity:0.8477;fill:#515A7F;" d="M27.753,45.329c-0.386,0-0.699,6.506-0.699,6.892v95.853 c0,0.386,6.465,0.699,6.851,0.699h78.484c0.386,0,0.699-6.089,0.699-6.475V51.813c0-0.386-0.313-6.484-0.699-6.484H27.753z"/>
      <path style="opacity:0.8858;fill:#515A7F;" d="M27.148,44.734c-0.289,0-0.524,6.709-0.524,6.999v95.956 c0,0.29,6.667,0.524,6.956,0.524h78.554c0.289,0,0.524-6.273,0.524-6.562V51.306c0-0.289-0.235-6.572-0.524-6.572H27.148z"/>
      <path style="opacity:0.9238;fill:#515A7F;" d="M26.542,44.138c-0.193,0-0.35,6.913-0.35,7.106v96.06 c0,0.193,6.868,0.35,7.061,0.35h78.624c0.193,0,0.349-6.457,0.349-6.65V50.799c0-0.193-0.156-6.661-0.349-6.661H26.542z"/>
      <path style="opacity:0.9619;fill:#515A7F;" d="M25.937,43.543c-0.097,0-0.175,7.116-0.175,7.212v96.163 c0,0.096,7.07,0.175,7.166,0.175h78.693c0.097,0,0.175-6.642,0.175-6.738V50.291c0-0.097-0.078-6.749-0.175-6.749H25.937z"/>
      <rect x="25.332" y="42.947" style="fill:#515A7F;" width="86.034" height="103.586"/>
    </g>
    <g id="Bed">
      <g>
        <path style="fill:#BF5F3D;" d="M116.028,35.788c-0.051-0.25-0.216-0.459-0.464-0.52c-0.399-0.099-8.783-0.126-19.413-0.13 l0-0.001c0-1.082-12.107-2.916-27.041-2.916s-27.042,1.833-27.042,2.916l0,0.001c-10.63,0.004-19.014,0.031-19.413,0.13 c-0.248,0.061-0.413,0.27-0.464,0.52c-0.222,1.087-0.19,1.754,0.002,2.771c0.048,0.252,0.216,0.462,0.465,0.523 c0.4,0.099,8.851,0.242,19.499,0.351c1.072-1.011,12.725-2.285,26.953-2.285c14.227,0,25.88,1.274,26.952,2.285 c10.648-0.109,19.099-0.252,19.499-0.351c0.249-0.061,0.417-0.271,0.465-0.523C116.218,37.542,116.25,36.875,116.028,35.788z"/>
        <path style="fill:#994726;" d="M115.561,39.082c-0.4,0.099-8.851,0.242-19.499,0.351c-1.072-1.011-12.725-2.285-26.953-2.285 c-14.227,0-25.88,1.274-26.952,2.285c-10.648-0.109-19.099-0.252-19.499-0.351c-0.066-0.016-0.125-0.044-0.178-0.078 c0.673,1.048,4.319,6.983,4.568,7.045c0.723,0.178,83.596,0.187,84.318,0.009c0.249-0.061,3.701-6.005,4.373-7.053 C115.686,39.038,115.627,39.066,115.561,39.082z"/>
        <path style="fill:#FFC3AD;" d="M115.108,37.468c-0.025-0.424,0.173-1.54,0.457-1.855c-0.583-0.051-1.166-0.102-1.749-0.154 c0.313,0.123,0.559,1.107,0.636,1.435c0.271,1.15-1.012,0.899-1.741,0.916c-0.904,0.021-7.675,0.135-10.157,0.167 c-2.164,0.028-4.328,0.052-6.492,0.074c-0.002-0.001-0.005-0.003-0.006-0.005v-2.853c-0.356-0.269-0.747-0.488-1.188-0.554 c0.249,0.382,0.452,1.525,0.411,1.979c-0.034,0.378-0.29,0.75-0.638,0.868c-3.675-0.989-13.712-2.199-25.532-2.199 c-11.809,0-21.838,1.207-25.521,2.196c-0.344-0.12-0.597-0.489-0.631-0.865c-0.041-0.454,0.163-1.597,0.412-1.979 c-0.441,0.066-0.832,0.285-1.188,0.554v2.84c-0.007,0.006-0.018,0.012-0.024,0.018c-2.164-0.022-4.328-0.046-6.492-0.074 c-2.482-0.032-9.254-0.145-10.157-0.167c-0.728-0.017-2.011-0.467-1.741-1.618c0.077-0.328,0.323-0.611,0.636-0.733 c-0.583,0.051-1.166,0.102-1.749,0.154c0.284,0.315,0.482,1.431,0.457,1.855c-0.029,0.494-0.347,0.748-0.723,0.983 c0.177,0.356,0.983,0.254,1.304,0.265c0.953,0.034,1.908,0.054,2.861,0.074c5.201,0.108,10.402,0.164,15.604,0.217 c1.072-1.011,12.725-2.285,26.953-2.285c14.227,0,25.88,1.274,26.952,2.285c5.201-0.053,10.403-0.109,15.604-0.217 c0.954-0.02,1.908-0.04,2.861-0.074c0.321-0.011,1.128,0.091,1.304-0.265C115.456,38.215,115.138,37.962,115.108,37.468z"/>
      </g>
      <path style="fill:#FEFBF1;" d="M25.232,46.946v93.864h87.755V46.946c0-0.895-0.726-1.621-1.621-1.621H26.853 C25.958,45.325,25.232,46.051,25.232,46.946z"/>
      <path style="fill:#EEE0D1;" d="M27.545,140.81h-1.594V46.946c0-0.895,0.714-1.621,1.594-1.621V140.81z M110.674,45.325v95.485 h1.594V46.946C112.269,46.051,111.555,45.325,110.674,45.325z"/>
      <rect x="24.5" y="72.98" style="fill:#EEE0D1;" width="89.22" height="67.37"/>
      <path style="fill:#E0C7B1;" d="M112.989,71.105H25.232v69.245h87.909L112.989,71.105z M26.978,135.777V83.751h84.418v52.026 H26.978z"/>
      <rect x="29.739" y="83.751" style="fill:#FEFBF1;" width="78.047" height="52.026"/>
      <g>
        <path style="fill:#BF5F3D;" d="M116.028,138.07c-0.051-0.25-0.216-0.459-0.464-0.52c-0.399-0.099-92.509-0.099-92.909,0 c-0.248,0.061-0.413,0.27-0.464,0.52c-0.222,1.087-0.19,2.456,0.002,3.472c0.048,0.252,0.216,0.462,0.465,0.523 c0.4,0.099,92.503,0.099,92.903,0c0.249-0.061,0.417-0.271,0.465-0.523C116.218,140.526,116.25,139.157,116.028,138.07z"/>
        <path style="fill:#994726;" d="M115.561,142.066c-0.4,0.099-92.503,0.099-92.903,0c-0.066-0.016-0.125-0.044-0.178-0.079 c0.673,1.048,2.603,4.484,2.852,4.546c0.723,0.178,25.012,0.025,43.778,0.025c18.765,0,43.055,0.153,43.778-0.025 c0.249-0.061,2.179-3.498,2.852-4.546C115.686,142.022,115.627,142.049,115.561,142.066z"/>
        <path style="fill:#66301D;" d="M69.11,145.553c-14.26,0-30.047,0.042-44.433,0.078c0.326,0.518,0.576,0.881,0.655,0.901 c0.723,0.178,25.012,0.025,43.778,0.025c18.765,0,43.055,0.153,43.778-0.025c0.079-0.02,0.33-0.383,0.655-0.901 C99.157,145.596,83.37,145.553,69.11,145.553z"/>
        <path style="fill:#FFC3AD;" d="M115.108,140.452c-0.025-0.424,0.173-2.241,0.457-2.556c-0.583-0.051-1.166-0.102-1.749-0.154 c0.313,0.123,0.559,0.406,0.636,0.733c0.271,1.15-1.012,2.302-1.741,2.319c-0.904,0.021-86.301,0.021-87.204,0 c-0.728-0.017-2.011-1.169-1.741-2.319c0.077-0.328,0.323-0.611,0.636-0.733c-0.583,0.051-1.166,0.103-1.749,0.154 c0.284,0.315,0.482,2.133,0.457,2.556c-0.029,0.494-0.347,0.748-0.723,0.982c0.177,0.357,0.983,0.254,1.304,0.266 c0.953,0.034,1.908,0.054,2.861,0.074c5.201,0.108,79.912,0.108,85.113,0c0.954-0.02,1.908-0.04,2.861-0.074 c0.321-0.012,1.128,0.091,1.304-0.266C115.456,141.199,115.138,140.946,115.108,140.452z"/>
      </g>
      <g>
        <path style="fill:#EEE0D1;" d="M108.448,44.894c0,0-0.107-3.257-18.585-3.257s-18.586,3.257-18.586,3.257 c-1.882,7.436-1.882,14.871,0,22.307l0,0.001c0.015,0.008,1.522,3.257,18.585,3.257s18.571-3.249,18.585-3.257l0,0 C110.33,59.765,110.33,52.33,108.448,44.894z"/>
        <path style="fill:#FEFBF1;" d="M108.747,50.389c0.464,4.879,0.079,9.759-1.156,14.638l0,0.001 c-0.014,0.007-1.452,3.107-17.728,3.107s-17.714-3.099-17.728-3.107l0-0.001c-1.235-4.879-1.62-9.759-1.156-14.638 c-0.692,5.39-0.357,10.781,1.007,16.171l0,0.001c0.014,0.007,1.464,3.133,17.877,3.133s17.863-3.125,17.877-3.133l0-0.001 C109.104,61.17,109.439,55.779,108.747,50.389z"/>
        <path style="fill:#FEFBF1;" d="M104.365,45.471c0,0-0.082-2.508-14.314-2.508c-14.232,0-14.314,2.508-14.314,2.508 c-1.449,5.727-1.449,11.454,0,17.181l0,0c0.011,0.006,1.172,2.509,14.314,2.509s14.303-2.503,14.314-2.509l0,0 C105.814,56.925,105.814,51.198,104.365,45.471z"/>
      </g>
      <g>
        <path style="fill:#EEE0D1;" d="M67.097,44.894c0,0-0.107-3.257-18.585-3.257s-18.586,3.257-18.586,3.257 c-1.882,7.436-1.882,14.871,0,22.307l0,0.001c0.015,0.008,1.522,3.257,18.585,3.257s18.571-3.249,18.585-3.257l0,0 C68.979,59.765,68.979,52.33,67.097,44.894z"/>
        <path style="fill:#FEFBF1;" d="M67.395,50.389c0.464,4.879,0.079,9.759-1.156,14.638l0,0.001 c-0.014,0.007-1.452,3.107-17.728,3.107s-17.714-3.099-17.728-3.107l0-0.001c-1.235-4.879-1.62-9.759-1.156-14.638 c-0.692,5.39-0.357,10.781,1.007,16.171l0,0.001c0.014,0.007,1.464,3.133,17.877,3.133s17.863-3.125,17.877-3.133l0-0.001 C67.752,61.17,68.087,55.779,67.395,50.389z"/>
        <path style="fill:#FEFBF1;" d="M63.013,45.471c0,0-0.082-2.508-14.314-2.508c-14.232,0-14.314,2.508-14.314,2.508 c-1.449,5.727-1.449,11.454,0,17.181l0,0c0.011,0.006,1.172,2.509,14.314,2.509s14.303-2.503,14.314-2.509l0,0 C64.463,56.925,64.462,51.198,63.013,45.471z"/>
      </g>
      <path style="fill:#FEFBF1;" d="M112.711,82.192H25.508c-1.673,0-3.028-1.356-3.028-3.029v-4.328c0-1.673,1.356-3.028,3.028-3.028 h87.203c1.673,0,3.028,1.356,3.028,3.028v4.328C115.74,80.836,114.384,82.192,112.711,82.192z"/>
      <path style="fill:#EEE0D1;" d="M112.903,80.317H25.317c-1.567,0-2.837-1.27-2.837-2.837v1.875c0,1.567,1.27,2.837,2.837,2.837 h87.586c1.567,0,2.837-1.27,2.837-2.837V77.48C115.739,79.047,114.469,80.317,112.903,80.317z"/>
    </g>
  </g>
</svg>