<?xml version="1.0" encoding="utf-8"?>
<svg xmlns="http://www.w3.org/2000/svg" viewBox="0 0 500 500">
  <g id="Armchair_1_" transform="matrix(1, 0, 0, 1, -188.021548, 55.036885)">
    <g id="Shadow_2_">
      <path style="opacity:0.01;fill:#515A7F;" d="M423.189,115.355h-48.511c-2.509,0-4.543,2.034-4.543,4.543v34.504 c0,2.509,2.034,4.543,4.543,4.543h48.511c2.509,0,4.543-2.034,4.543-4.543v-34.504 C427.733,117.389,425.698,115.355,423.189,115.355z"/>
      <path style="opacity:0.0481;fill:#515A7F;" d="M374.152,114.838c-2.413,0-4.368,2.205-4.368,4.618v34.389 c0,2.413,1.956,4.619,4.368,4.619h48.821c2.413,0,4.395-2.218,4.395-4.631l0.122-32.61c0.001-0.024-0.005-1.81-0.008-1.833 c-0.368-2.47-2.058-4.515-4.563-4.517L374.152,114.838z"/>
      <path style="opacity:0.0862;fill:#515A7F;" d="M373.626,114.322c-2.316,0-4.194,2.376-4.194,4.692v34.273 c0,2.316,1.877,4.696,4.194,4.696h49.131c2.316,0,4.247-2.402,4.247-4.718l0.243-32.551c0.002-0.048-0.009-1.786-0.016-1.83 c-0.379-2.456-2.081-4.487-4.583-4.491L373.626,114.322z"/>
      <path style="opacity:0.1242;fill:#515A7F;" d="M373.1,113.806c-2.22,0-4.019,2.547-4.019,4.767v34.158 c0,2.22,1.799,4.772,4.019,4.772h49.441c2.22,0,4.099-2.586,4.099-4.806l0.365-32.491c0.003-0.071-0.014-1.762-0.024-1.828 c-0.389-2.443-2.105-4.459-4.603-4.465L373.1,113.806z"/>
      <path style="opacity:0.1623;fill:#515A7F;" d="M372.574,113.29c-2.123,0-3.844,2.718-3.844,4.841v34.042 c0,2.123,1.721,4.848,3.844,4.848h49.751c2.123,0,3.951-2.77,3.951-4.893l0.487-32.432c0.005-0.095-0.018-1.738-0.033-1.827 c-0.4-2.429-2.128-4.431-4.623-4.439L372.574,113.29z"/>
      <path style="opacity:0.2004;fill:#515A7F;" d="M372.048,112.773c-2.027,0-3.669,2.889-3.669,4.916v33.927 c0,2.027,1.643,4.925,3.669,4.925h50.06c2.027,0,3.803-2.954,3.803-4.981l0.608-32.372c0.006-0.119-0.022-1.713-0.041-1.825 c-0.411-2.416-2.152-4.403-4.643-4.412L372.048,112.773z"/>
      <path style="opacity:0.2385;fill:#515A7F;" d="M371.522,112.257c-1.93,0-3.495,3.06-3.495,4.991v33.811 c0,1.93,1.565,5.001,3.495,5.001h50.37c1.93,0,3.655-3.138,3.655-5.068l0.73-32.313c0.007-0.143-0.025-1.689-0.049-1.823 c-0.421-2.403-2.176-4.375-4.663-4.386L371.522,112.257z"/>
      <path style="opacity:0.2765;fill:#515A7F;" d="M370.996,111.741c-1.834,0-3.32,3.231-3.32,5.065v33.696 c0,1.834,1.486,5.077,3.32,5.077h50.68c1.834,0,3.507-3.322,3.507-5.156l0.852-32.253c0.008-0.167-0.029-1.665-0.057-1.821 c-0.432-2.391-2.199-4.347-4.683-4.36L370.996,111.741z"/>
      <path style="opacity:0.3146;fill:#515A7F;" d="M370.47,111.225c-1.737,0-3.145,3.402-3.145,5.14v33.58 c0,1.737,1.408,5.154,3.145,5.154h50.99c1.737,0,3.358-3.506,3.358-5.243l0.973-32.194c0.009-0.191-0.032-1.641-0.065-1.819 c-0.443-2.378-2.223-4.319-4.703-4.334L370.47,111.225z"/>
      <path style="opacity:0.3527;fill:#515A7F;" d="M369.944,110.709c-1.641,0-2.97,3.574-2.97,5.214v33.465 c0,1.641,1.33,5.23,2.97,5.23h51.3c1.641,0,3.21-3.69,3.21-5.331l1.095-32.135c0.01-0.215-0.035-1.617-0.073-1.817 c-0.454-2.366-2.247-4.291-4.723-4.308L369.944,110.709z"/>
      <path style="opacity:0.3908;fill:#515A7F;" d="M369.418,110.192c-1.544,0-2.796,3.745-2.796,5.289v33.35 c0,1.544,1.252,5.306,2.796,5.306h51.609c1.544,0,3.062-3.874,3.062-5.418l1.216-32.075c0.012-0.238-0.038-1.593-0.081-1.815 c-0.464-2.354-2.27-4.263-4.743-4.282L369.418,110.192z"/>
      <path style="opacity:0.4288;fill:#515A7F;" d="M368.892,109.676c-1.448,0-2.621,3.916-2.621,5.363v33.234 c0,1.448,1.173,5.382,2.621,5.382h51.919c1.448,0,2.914-4.058,2.914-5.506l1.338-32.016c0.013-0.262-0.04-1.569-0.089-1.813 c-0.475-2.342-2.294-4.236-4.763-4.256L368.892,109.676z"/>
      <path style="opacity:0.4669;fill:#515A7F;" d="M368.366,109.16c-1.351,0-2.446,4.087-2.446,5.438v33.119 c0,1.351,1.095,5.459,2.446,5.459h52.229c1.351,0,2.766-4.242,2.766-5.593l1.46-31.956c0.014-0.286-0.042-1.546-0.098-1.811 c-0.486-2.33-2.317-4.208-4.783-4.229L368.366,109.16z"/>
      <path style="opacity:0.505;fill:#515A7F;" d="M367.84,108.644c-1.254,0-2.271,4.258-2.271,5.512v33.003 c0,1.255,1.017,5.535,2.271,5.535h52.539c1.255,0,2.618-4.426,2.618-5.681l1.581-31.897c0.015-0.31-0.044-1.522-0.106-1.809 c-0.497-2.319-2.341-4.179-4.803-4.203L367.84,108.644z"/>
      <path style="opacity:0.5431;fill:#515A7F;" d="M367.314,108.127c-1.158,0-2.097,4.429-2.097,5.587v32.888 c0,1.158,0.939,5.611,2.097,5.611h52.849c1.158,0,2.47-4.61,2.47-5.768l1.703-31.838c0.016-0.334-0.046-1.498-0.114-1.807 c-0.508-2.307-2.365-4.152-4.823-4.177L367.314,108.127z"/>
      <path style="opacity:0.5812;fill:#515A7F;" d="M366.788,107.611c-1.062,0-1.922,4.6-1.922,5.661v32.772 c0,1.062,0.861,5.688,1.922,5.688h53.159c1.062,0,2.322-4.794,2.322-5.856l1.824-31.778c0.017-0.358-0.047-1.475-0.122-1.805 c-0.519-2.296-2.388-4.124-4.843-4.151L366.788,107.611z"/>
      <path style="opacity:0.6192;fill:#515A7F;" d="M366.262,107.095c-0.965,0-1.747,4.771-1.747,5.736v32.657 c0,0.965,0.782,5.764,1.747,5.764h53.468c0.965,0,2.174-4.978,2.174-5.943l1.946-31.719c0.019-0.382-0.048-1.451-0.13-1.803 c-0.53-2.285-2.412-4.096-4.863-4.125L366.262,107.095z"/>
      <path style="opacity:0.6573;fill:#515A7F;" d="M365.736,106.579c-0.869,0-1.573,4.942-1.573,5.811v32.542 c0,0.868,0.704,5.84,1.573,5.84h53.778c0.869,0,2.026-5.162,2.026-6.031l2.068-31.659c0.02-0.405-0.049-1.428-0.138-1.801 c-0.541-2.275-2.435-4.068-4.883-4.099L365.736,106.579z"/>
      <path style="opacity:0.6954;fill:#515A7F;" d="M365.21,106.062c-0.772,0-1.398,5.113-1.398,5.885v32.426 c0,0.772,0.626,5.917,1.398,5.917h54.088c0.772,0,1.878-5.346,1.878-6.118l2.19-31.6c0.021-0.429-0.05-1.404-0.146-1.799 c-0.553-2.265-2.459-4.04-4.902-4.073L365.21,106.062z"/>
      <path style="opacity:0.7335;fill:#515A7F;" d="M364.684,105.546c-0.676,0-1.223,5.284-1.223,5.96v32.311 c0,0.676,0.548,5.993,1.223,5.993h54.398c0.676,0,1.729-5.53,1.729-6.206l2.311-31.54c0.022-0.453-0.05-1.381-0.154-1.797 c-0.564-2.254-2.483-4.012-4.922-4.046L364.684,105.546z"/>
      <path style="opacity:0.7715;fill:#515A7F;" d="M364.158,105.03c-0.579,0-1.048,5.455-1.048,6.034v32.195 c0,0.579,0.469,6.069,1.048,6.069h54.708c0.579,0,1.581-5.714,1.581-6.293l2.433-31.481c0.023-0.477-0.051-1.358-0.163-1.795 c-0.575-2.244-2.506-3.984-4.942-4.02L364.158,105.03z"/>
      <path style="opacity:0.8096;fill:#515A7F;" d="M363.632,104.514c-0.483,0-0.874,5.626-0.874,6.109v32.08 c0,0.482,0.391,6.145,0.874,6.145h55.017c0.483,0,1.433-5.898,1.433-6.381l2.554-31.422c0.024-0.501-0.05-1.334-0.171-1.793 c-0.586-2.235-2.53-3.956-4.962-3.994L363.632,104.514z"/>
      <path style="opacity:0.8477;fill:#515A7F;" d="M363.106,103.997c-0.386,0-0.699,5.797-0.699,6.183v31.964 c0,0.386,0.313,6.222,0.699,6.222h55.327c0.386,0,1.285-6.082,1.285-6.468l2.676-31.362c0.025-0.524-0.05-1.311-0.179-1.791 c-0.598-2.225-2.554-3.928-4.982-3.968L363.106,103.997z"/>
      <path style="opacity:0.8858;fill:#515A7F;" d="M362.58,103.481c-0.29,0-0.524,5.968-0.524,6.258v31.849 c0,0.289,0.235,6.298,0.524,6.298h55.637c0.29,0,1.137-6.266,1.137-6.556l2.798-31.303c0.027-0.548-0.049-1.288-0.187-1.789 c-0.609-2.216-2.577-3.9-5.002-3.942L362.58,103.481z"/>
      <path style="opacity:0.9238;fill:#515A7F;" d="M362.054,102.965c-0.193,0-0.349,6.139-0.349,6.332v31.734 c0,0.193,0.156,6.374,0.349,6.374h55.947c0.193,0,0.989-6.45,0.989-6.643l2.919-31.243c0.028-0.572-0.048-1.265-0.195-1.787 c-0.621-2.207-2.601-3.872-5.022-3.916L362.054,102.965z"/>
      <path style="opacity:0.9619;fill:#515A7F;" d="M361.528,102.449c-0.096,0-0.175,6.31-0.175,6.407v31.618 c0,0.097,0.078,6.451,0.175,6.451h56.257c0.096,0,0.841-6.634,0.841-6.731l3.041-31.184c0.029-0.596-0.047-1.243-0.203-1.785 c-0.633-2.198-2.624-3.844-5.042-3.89L361.528,102.449z"/>
      <path style="fill:#515A7F;" d="M416.151,102.854l-55.148-0.922v44.511h56.567l3.855-37.943 C421.572,105.469,419.186,102.914,416.151,102.854z"/>
    </g>
    <g id="Armchair">
      <g>
        <path style="fill:#994726;" d="M416.646,146.537h-54.817c-1.225,0-2.411-0.433-3.347-1.223l-3.745-3.158l68.367,0.67 l-3.214,2.572C418.97,146.136,417.826,146.537,416.646,146.537z"/>
        <rect x="368.957" y="135.956" style="fill:#BF5F3D;" width="41.758" height="8.248"/>
      </g>
      <g>
        <path style="fill:#66301D;" d="M407.651,99.638c8.331,0,14.438,5.519,15.702,23.798c1.003,14.508,2.109,16.568,0.437,18.721 c-0.396,0.509-2.981,2.694-3.806,2.694c-4.001,0-5.699,0-9.062,0c-3.363,0-3.27-1.422-3.27-9.99S407.651,99.638,407.651,99.638z"/>
        <path style="fill:#994726;" d="M424.093,132.32c0.646,6.678,0.941,8.234-0.303,9.836c-0.396,0.509-2.981,2.694-3.806,2.694 c-4.001,0-5.699,0-9.062,0c-1.121,0-1.853-0.167-2.337-0.695L424.093,132.32z"/>
        <path style="fill:#BF5F3D;" d="M412.275,99.638c1.896,0,12.534,4.261,12.534,17.621c0,7.465,0.501,14.438,0.46,17.262 c-0.09,6.293-1.025,8.306-3.15,8.306c-3.194,0-4.549,0-7.234,0c-2.685,0-2.61-2.973-2.61-10.842S412.275,99.638,412.275,99.638z"/>
        <path style="fill:#994726;" d="M423.285,109.269c-3.01-7.137-9.561-9.631-11.01-9.631c0,0,0,4.177,0,9.631H423.285z"/>
        <path style="fill:#FFC3AD;" d="M414.988,141.743c2.792,0,4.201,0,7.522,0c0.898,0,1.589-0.341,2.102-1.158 c-0.505,1.619-1.316,2.241-2.493,2.241c-3.194,0-4.549,0-7.234,0c-1.91,0-2.423-1.511-2.561-5.217 C412.324,137.609,412.381,141.743,414.988,141.743z"/>
        <g>
          <path style="fill:#E0C7B1;" d="M414.644,121.591c0-6.059-0.053-8.348,1.862-8.348h5.16c1.516,0,2.183,1.55,2.247,6.396 c0.016,1.181,0.016,12.185,0,13.367c-0.064,4.846-0.731,6.396-2.247,6.396h-5.16c-1.915,0-1.862-2.289-1.862-8.348V121.591z"/>
          <path style="fill:#FEFBF1;" d="M415.61,121.051c0-5.428-0.048-7.479,1.668-7.479h4.623c1.358,0,1.955,1.389,2.013,5.73 c0.014,1.059,0.014,11.79,0,12.848c-0.058,4.341-0.655,5.73-2.013,5.73h-4.623c-1.716,0-1.668-2.051-1.668-7.479V121.051z"/>
        </g>
      </g>
      <g>
        <path style="fill:#66301D;" d="M370.875,99.638c-8.33,0-14.438,5.519-15.702,23.798c-1.003,14.508-2.109,16.568-0.437,18.721 c0.396,0.509,2.981,2.694,3.806,2.694c4.002,0,5.699,0,9.062,0c3.363,0,3.27-1.422,3.27-9.99S370.875,99.638,370.875,99.638z"/>
        <path style="fill:#994726;" d="M354.434,132.32c-0.646,6.678-0.941,8.234,0.303,9.836c0.396,0.509,2.981,2.694,3.806,2.694 c4.002,0,5.699,0,9.062,0c1.121,0,1.853-0.167,2.337-0.695L354.434,132.32z"/>
        <path style="fill:#BF5F3D;" d="M366.252,99.638c-1.896,0-12.534,4.261-12.534,17.621c0,7.465-0.501,14.438-0.46,17.262 c0.09,6.293,1.025,8.306,3.15,8.306c3.194,0,4.549,0,7.234,0c2.685,0,2.61-2.973,2.61-10.842S366.252,99.638,366.252,99.638z"/>
        <path style="fill:#994726;" d="M366.252,109.269c0-5.454,0-9.631,0-9.631c-1.449,0-8,2.495-11.01,9.631H366.252z"/>
        <path style="fill:#FFC3AD;" d="M363.538,141.743c-2.792,0-4.201,0-7.522,0c-0.898,0-1.589-0.341-2.102-1.158 c0.506,1.619,1.316,2.241,2.493,2.241c3.194,0,4.549,0,7.234,0c1.91,0,2.424-1.511,2.561-5.217 C366.202,137.609,366.146,141.743,363.538,141.743z"/>
        <g>
          <path style="fill:#E0C7B1;" d="M363.882,121.591c0-6.059,0.053-8.348-1.862-8.348h-5.16c-1.516,0-2.183,1.55-2.247,6.396 c-0.016,1.181-0.016,12.185,0,13.367c0.064,4.846,0.731,6.396,2.247,6.396h5.16c1.915,0,1.862-2.289,1.862-8.348V121.591z"/>
          <path style="fill:#FEFBF1;" d="M362.916,121.051c0-5.428,0.048-7.479-1.668-7.479h-4.623c-1.358,0-1.955,1.389-2.013,5.73 c-0.014,1.059-0.014,11.79,0,12.848c0.058,4.341,0.655,5.73,2.013,5.73h4.623c1.716,0,1.668-2.051,1.668-7.479V121.051z"/>
        </g>
      </g>
      <g>
        <path style="fill:#EEE0D1;" d="M409.974,108.154h-41.421l0.404,31.495c0.001,1.939,1.573,3.511,3.513,3.511h33.991 c1.94,0,3.512-1.572,3.513-3.511V108.154z"/>
        <path style="fill:#FEFBF1;" d="M406.461,140.347H372.47c-1.94,0-3.512-0.634-3.513-2.574v0c0.001,1.939,1.573,3.511,3.513,3.511 h33.991c1.94,0,3.512-1.572,3.513-3.511v0C409.973,139.713,408.401,140.347,406.461,140.347z"/>
        <path style="fill:#E0C7B1;" d="M406.461,141.285H372.47c-1.94,0-3.512-1.572-3.513-3.511v1.875 c0.001,1.939,1.573,3.511,3.513,3.511h33.991c1.94,0,3.512-1.572,3.513-3.511v-1.875 C409.973,139.713,408.401,141.285,406.461,141.285z"/>
        <path style="fill:#FEFBF1;" d="M403.819,110.797h-28.706c-2.881,0-5.217,2.204-5.217,4.922v17.966 c0,2.718,2.336,4.922,5.217,4.922h28.706c2.881,0,5.217-2.204,5.217-4.922v-17.966 C409.036,113.001,406.7,110.797,403.819,110.797z"/>
      </g>
      <g>
        <path style="fill:#E0C7B1;" d="M363.746,101.187c1.25,2.716,3.737,7.298,5.929,7.298h39.322c2.112,0,4.424-4.423,5.693-7.177 L363.746,101.187z"/>
        <path style="fill:#EEE0D1;" d="M410.633,103.131h-42.739c-3.092,0-5.599-2.507-5.599-5.599v-0.338 c0-3.092,2.507-5.599,5.599-5.599h42.739c3.092,0,5.599,2.507,5.599,5.599v0.338 C416.232,100.624,413.725,103.131,410.633,103.131z"/>
        <path style="fill:#FEFBF1;" d="M410.464,102.193h-42.401c-3.027,0-5.505-2.334-5.744-5.299c-0.012,0.155-0.024,0.311-0.024,0.469 c0,3.186,2.582,5.768,5.768,5.768h42.401c3.186,0,5.768-2.582,5.768-5.768c0-0.158-0.011-0.314-0.024-0.469 C415.969,99.86,413.491,102.193,410.464,102.193z"/>
        <path style="fill:#FEFBF1;" d="M410.464,92.873h-42.401c-1.352,0-2.594,0.465-3.577,1.244c-1.776,1.408-1.776,4.148,0,5.555 c0.983,0.779,2.226,1.244,3.577,1.244h42.401c1.352,0,2.594-0.465,3.577-1.244c1.776-1.408,1.776-4.148,0-5.555 C413.058,93.338,411.815,92.873,410.464,92.873z"/>
        <g>
          <path style="fill:#FEFBF1;" d="M368.203,105.561c3.168,0.027,6.336-0.055,9.498-0.245c-3.762,0.024-3.532-1.126-4.852-1.182 C371.785,104.089,372.267,105.323,368.203,105.561z"/>
          <path style="fill:#FEFBF1;" d="M377.175,107.617c2.997,0.078,5.997,0.054,8.993-0.073c-3.561-0.04-3.324-1.125-4.572-1.2 C380.589,106.284,381.025,107.46,377.175,107.617z"/>
          <path style="fill:#FEFBF1;" d="M384.451,105.561c3.167,0.027,6.336-0.055,9.498-0.245c-3.762,0.024-3.532-1.126-4.852-1.182 C388.033,104.089,388.515,105.323,384.451,105.561z"/>
          <path style="fill:#FEFBF1;" d="M392.486,107.617c2.997,0.078,5.997,0.054,8.993-0.073c-3.561-0.04-3.324-1.125-4.572-1.2 C395.9,106.284,396.335,107.46,392.486,107.617z"/>
          <path style="fill:#FEFBF1;" d="M400.699,105.561c3.167,0.027,6.336-0.055,9.498-0.245c-3.762,0.024-3.532-1.126-4.852-1.182 C404.281,104.089,404.763,105.323,400.699,105.561z"/>
        </g>
      </g>
    </g>
  </g>
</svg>