<?xml version="1.0" encoding="utf-8"?>
<svg xmlns="http://www.w3.org/2000/svg" viewBox="0 0 500 500">
  <g id="Chair_S_3_" transform="matrix(1, 0, 0, 1, 15.432523, 47.195996)">
    <g id="Shadow_10_">
      <path style="opacity:0.01;fill:#515A7F;" d="M177.786,68.086h-23.329c-2.509,0-4.543,2.034-4.543,4.543V87.27 c0,2.509,2.034,4.543,4.543,4.543h22.172c1.871,0,3.388-1.517,3.388-3.388V70.317C180.018,69.085,179.018,68.086,177.786,68.086z"/>
      <path style="opacity:0.0481;fill:#515A7F;" d="M153.938,67.613c-2.413,0-4.368,2.265-4.368,4.677v14.714 c0,2.413,2.209,4.368,4.622,4.368H176.3c1.706,0,3.111-1.267,3.341-2.91c0.021-0.152,0.033-0.323,0.033-0.481V69.891 c0-1.185-0.961-2.277-2.146-2.277H153.938z"/>
      <path style="opacity:0.0862;fill:#515A7F;" d="M153.419,67.141c-2.316,0-4.194,2.495-4.194,4.812v14.786 c0,2.316,2.384,4.194,4.7,4.194h22.044c1.704,0,3.103-1.271,3.328-2.914c0.02-0.146,0.031-0.328,0.031-0.479V69.464 c0-1.138-0.922-2.323-2.06-2.323H153.419z"/>
      <path style="opacity:0.1242;fill:#515A7F;" d="M152.9,66.669c-2.22,0-4.019,2.726-4.019,4.946v14.858 c0,2.22,2.559,4.019,4.778,4.019h21.98c1.702,0,3.094-1.275,3.315-2.918c0.019-0.14,0.03-0.332,0.03-0.477V69.038 c0-1.09-0.884-2.369-1.974-2.369H152.9z"/>
      <path style="opacity:0.1623;fill:#515A7F;" d="M152.382,66.197c-2.123,0-3.844,2.957-3.844,5.08v14.93 c0,2.123,2.733,3.844,4.856,3.844h21.916c1.701,0,3.086-1.279,3.302-2.923c0.018-0.134,0.029-0.337,0.029-0.475V68.611 c0-1.043-0.845-2.415-1.888-2.415H152.382z"/>
      <path style="opacity:0.2004;fill:#515A7F;" d="M151.863,65.724c-2.027,0-3.669,3.188-3.669,5.214v15.003 c0,2.027,2.908,3.669,4.935,3.669h21.852c1.699,0,3.077-1.282,3.289-2.927c0.016-0.128,0.028-0.341,0.028-0.474V68.185 c0-0.995-0.807-2.46-1.802-2.46H151.863z"/>
      <path style="opacity:0.2385;fill:#515A7F;" d="M151.344,65.252c-1.93,0-3.495,3.419-3.495,5.349v15.075 c0,1.93,3.083,3.495,5.013,3.495h21.788c1.698,0,3.069-1.286,3.276-2.931c0.015-0.121,0.026-0.346,0.026-0.472V67.758 c0-0.948-0.768-2.506-1.716-2.506H151.344z"/>
      <path style="opacity:0.2765;fill:#515A7F;" d="M150.825,64.78c-1.834,0-3.32,3.649-3.32,5.483V85.41 c0,1.834,3.258,3.32,5.091,3.32h21.724c1.696,0,3.06-1.29,3.263-2.935c0.014-0.115,0.025-0.35,0.025-0.47V67.332 c0-0.901-0.73-2.552-1.631-2.552H150.825z"/>
      <path style="opacity:0.3146;fill:#515A7F;" d="M150.306,64.308c-1.737,0-3.145,3.88-3.145,5.617v15.22 c0,1.737,3.433,3.145,5.17,3.145h21.66c1.695,0,3.052-1.294,3.25-2.939c0.013-0.109,0.024-0.355,0.024-0.468V66.906 c0-0.853-0.692-2.598-1.545-2.598H150.306z"/>
      <path style="opacity:0.3527;fill:#515A7F;" d="M149.787,63.835c-1.641,0-2.97,4.111-2.97,5.751v15.292 c0,1.641,3.607,2.97,5.248,2.97h21.596c1.693,0,3.043-1.297,3.237-2.944c0.012-0.103,0.022-0.359,0.022-0.466v-17.96 c0-0.806-0.653-2.644-1.459-2.644H149.787z"/>
      <path style="opacity:0.3908;fill:#515A7F;" d="M149.268,63.363c-1.544,0-2.796,4.342-2.796,5.886v15.365 c0,1.544,3.782,2.796,5.326,2.796h21.532c1.691,0,3.035-1.301,3.224-2.948c0.011-0.097,0.021-0.364,0.021-0.465V66.053 c0-0.758-0.615-2.69-1.373-2.69H149.268z"/>
      <path style="opacity:0.4288;fill:#515A7F;" d="M148.75,62.891c-1.448,0-2.621,4.572-2.621,6.02v15.437 c0,1.448,3.957,2.621,5.405,2.621h21.468c1.69,0,3.026-1.305,3.211-2.952c0.01-0.091,0.02-0.368,0.02-0.463V65.626 c0-0.711-0.576-2.735-1.287-2.735H148.75z"/>
      <path style="opacity:0.4669;fill:#515A7F;" d="M148.231,62.419c-1.351,0-2.446,4.803-2.446,6.154v15.509 c0,1.351,4.132,2.446,5.483,2.446h21.404c1.688,0,3.018-1.308,3.198-2.957c0.009-0.085,0.018-0.373,0.018-0.461V65.2 c0-0.663-0.538-2.781-1.202-2.781H148.231z"/>
      <path style="opacity:0.505;fill:#515A7F;" d="M147.712,61.946c-1.255,0-2.272,5.034-2.272,6.288v15.582 c0,1.255,4.307,2.272,5.561,2.272h21.34c1.687,0,3.009-1.312,3.185-2.961c0.008-0.079,0.017-0.378,0.017-0.46V64.774 c0-0.616-0.499-2.827-1.116-2.827H147.712z"/>
      <path style="opacity:0.5431;fill:#515A7F;" d="M147.193,61.474c-1.158,0-2.097,5.265-2.097,6.423v15.654 c0,1.158,4.482,2.097,5.64,2.097h21.276c1.685,0,3.001-1.315,3.172-2.965c0.008-0.073,0.016-0.382,0.016-0.458V64.347 c0-0.569-0.461-2.873-1.03-2.873H147.193z"/>
      <path style="opacity:0.5812;fill:#515A7F;" d="M146.674,61.002c-1.062,0-1.922,5.495-1.922,6.557v15.727 c0,1.062,4.656,1.922,5.718,1.922h21.212c1.683,0,2.992-1.319,3.159-2.969c0.007-0.067,0.014-0.387,0.014-0.456V63.921 c0-0.521-0.423-2.919-0.944-2.919H146.674z"/>
      <path style="opacity:0.6192;fill:#515A7F;" d="M146.155,60.53c-0.965,0-1.747,5.726-1.747,6.691V83.02 c0,0.965,4.831,1.747,5.796,1.747h21.148c1.682,0,2.984-1.322,3.146-2.973c0.006-0.061,0.013-0.391,0.013-0.454V63.494 c0-0.474-0.384-2.965-0.858-2.965H146.155z"/>
      <path style="opacity:0.6573;fill:#515A7F;" d="M145.636,60.058c-0.868,0-1.573,5.957-1.573,6.825v15.871 c0,0.868,5.006,1.573,5.875,1.573h21.084c1.68,0,2.975-1.326,3.133-2.978c0.005-0.055,0.012-0.396,0.012-0.452V63.068 c0-0.427-0.346-3.01-0.772-3.01H145.636z"/>
      <path style="opacity:0.6954;fill:#515A7F;" d="M145.118,59.585c-0.772,0-1.398,6.188-1.398,6.96v15.944 c0,0.772,5.181,1.398,5.953,1.398h21.02c1.678,0,2.967-1.329,3.12-2.982c0.005-0.049,0.01-0.4,0.01-0.451V62.642 c0-0.379-0.307-3.056-0.687-3.056H145.118z"/>
      <path style="opacity:0.7335;fill:#515A7F;" d="M144.599,59.113c-0.675,0-1.223,6.418-1.223,7.094v16.016 c0,0.675,5.356,1.223,6.031,1.223h20.956c1.677,0,2.958-1.332,3.107-2.986c0.004-0.043,0.009-0.405,0.009-0.449V62.215 c0-0.332-0.269-3.102-0.601-3.102H144.599z"/>
      <path style="opacity:0.7715;fill:#515A7F;" d="M144.08,58.641c-0.579,0-1.048,6.649-1.048,7.228v16.088 c0,0.579,5.531,1.049,6.11,1.049h20.892c1.675,0,2.949-1.336,3.094-2.991c0.003-0.037,0.008-0.409,0.008-0.447V61.789 c0-0.284-0.23-3.148-0.515-3.148H144.08z"/>
      <path style="opacity:0.8096;fill:#515A7F;" d="M143.561,58.169c-0.483,0-0.874,6.88-0.874,7.362v16.161 c0,0.482,5.705,0.874,6.188,0.874h20.828c1.674,0,2.941-1.339,3.081-2.995c0.003-0.031,0.007-0.414,0.007-0.445V61.362 c0-0.237-0.192-3.194-0.429-3.194H143.561z"/>
      <path style="opacity:0.8477;fill:#515A7F;" d="M143.042,57.696c-0.386,0-0.699,7.111-0.699,7.497v16.233 c0,0.386,5.88,0.699,6.266,0.699h20.764c1.672,0,2.932-1.342,3.068-2.999c0.002-0.024,0.005-0.418,0.005-0.443V60.936 c0-0.19-0.154-3.24-0.343-3.24H143.042z"/>
      <path style="opacity:0.8858;fill:#515A7F;" d="M142.523,57.224c-0.29,0-0.524,7.341-0.524,7.631V81.16 c0,0.289,6.055,0.524,6.345,0.524h20.7c1.67,0,2.924-1.345,3.055-3.003c0.001-0.018,0.004-0.423,0.004-0.442V60.51 c0-0.142-0.115-3.285-0.257-3.285H142.523z"/>
      <path style="opacity:0.9238;fill:#515A7F;" d="M142.004,56.752c-0.193,0-0.35,7.572-0.35,7.765v16.378 c0,0.193,6.23,0.35,6.423,0.35h20.636c1.669,0,2.915-1.348,3.042-3.007c0.001-0.012,0.003-0.427,0.003-0.44V60.083 c0-0.095-0.077-3.331-0.172-3.331H142.004z"/>
      <path style="opacity:0.9619;fill:#515A7F;" d="M141.485,56.28c-0.096,0-0.175,7.803-0.175,7.899v16.45 c0,0.096,6.405,0.175,6.501,0.175h20.572c1.667,0,2.907-1.351,3.029-3.012c0-0.006,0.001-0.432,0.001-0.438V59.657 c0-0.047-0.038-3.377-0.086-3.377H141.485z"/>
      <path style="fill:#515A7F;" d="M171.07,55.807h-30.104v24.556h27.088c1.666,0,3.016-1.35,3.016-3.016V55.807z"/>
    </g>
    <g id="Chair_S">
      <path style="fill:#BF5F3D;" d="M141.372,54.04c0.085-0.622,0.533-1.129,1.142-1.279c1.774-0.438,6.029-1.239,13.431-1.239 s11.658,0.801,13.431,1.239c0.61,0.151,1.058,0.657,1.142,1.279c0.781,5.751,0.761,18.913-0.006,24.762 c-0.082,0.625-0.531,1.136-1.143,1.287c-1.778,0.438-6.032,1.237-13.424,1.237c-7.393,0-11.647-0.799-13.424-1.237 c-0.612-0.151-1.061-0.662-1.143-1.287C140.611,72.954,140.591,59.791,141.372,54.04z"/>
      <path style="fill:#FFC3AD;" d="M170.517,77.992c-0.082,0.625-0.531,1.136-1.144,1.287c-1.778,0.438-6.033,1.238-13.427,1.238 c-7.394,0-11.65-0.799-13.428-1.238c-0.613-0.151-1.062-0.662-1.144-1.288c-0.364-2.778-0.558-7.207-0.579-11.708 c0,4.774,0.197,9.573,0.583,12.518c0.082,0.625,0.531,1.136,1.143,1.287c1.778,0.438,6.032,1.237,13.424,1.237 c7.393,0,11.646-0.799,13.424-1.237c0.612-0.151,1.061-0.662,1.143-1.287c0.387-2.947,0.583-7.751,0.583-12.528 C171.075,70.778,170.881,75.212,170.517,77.992z"/>
      <path style="fill:#E0C7B1;" d="M143.437,57.143c0.058-0.4,0.349-0.722,0.74-0.824c1.381-0.361,5.083-0.59,11.769-0.59 s10.388,0.229,11.769,0.59c0.391,0.102,0.682,0.424,0.74,0.824c0.715,4.891,0.696,15.164-0.004,20.147 c-0.057,0.403-0.348,0.728-0.741,0.83c-1.385,0.361-5.086,1.118-11.764,1.118s-10.379-0.757-11.764-1.118 c-0.393-0.103-0.684-0.428-0.741-0.83C142.74,72.307,142.722,62.034,143.437,57.143z"/>
      <path style="fill:#FEFBF1;" d="M144.752,58.208c0.052-0.358,0.312-0.646,0.662-0.737c1.236-0.323,4.549-0.528,10.531-0.528 s9.296,0.205,10.531,0.528c0.35,0.091,0.61,0.38,0.662,0.737c0.639,4.377,0.623,13.613-0.004,18.072 c-0.051,0.36-0.311,0.651-0.663,0.743c-1.239,0.323-4.552,1.001-10.527,1.001c-5.975,0-9.288-0.678-10.527-1.001 c-0.352-0.092-0.613-0.383-0.663-0.743C144.129,71.821,144.112,62.585,144.752,58.208z"/>
      <path style="fill:#994726;" d="M142.521,80.089c1.778,0.438,6.032,1.237,13.424,1.237s11.647-0.799,13.424-1.237 c0.273-0.067,0.506-0.215,0.696-0.403l0.81,0.732c-0.202,0.204-0.452,0.362-0.745,0.434c-1.878,0.463-6.373,1.307-14.185,1.307 c-7.811,0-12.306-0.844-14.185-1.307c-0.231-0.057-0.429-0.176-0.606-0.318l0.81-0.731 C142.128,79.93,142.31,80.037,142.521,80.089z"/>
      <path style="fill:#66301D;" d="M170.065,79.686c0.236-0.234,0.402-0.538,0.448-0.884c0.767-5.848,0.787-19.011,0.006-24.762 c-0.085-0.622-0.533-1.129-1.142-1.279c-1.774-0.438-6.029-1.239-13.431-1.239s-11.658,0.801-13.431,1.239 c-0.61,0.151-1.058,0.657-1.142,1.279c-0.781,5.751-0.761,18.913,0.006,24.762c0.054,0.41,0.275,0.758,0.587,1.001l-0.81,0.731 c-0.319-0.256-0.546-0.617-0.602-1.042c-0.811-6.18-0.832-20.065-0.006-26.142c0.089-0.658,0.563-1.193,1.207-1.352 c1.874-0.463,6.371-1.309,14.192-1.309c7.822,0,12.318,0.846,14.192,1.309c0.644,0.159,1.117,0.694,1.207,1.352 c0.826,6.077,0.805,19.962-0.006,26.141c-0.048,0.362-0.219,0.68-0.463,0.926L170.065,79.686z"/>
      <path style="fill:#994726;" d="M155.945,43.052c14.008,0,19.734,1.659,19.734,1.659l-5.149,9.417c0,0-1.808-2.09-14.586-2.09 s-14.585,2.09-14.585,2.09l-5.137-9.399C136.223,44.728,141.937,43.052,155.945,43.052z"/>
      <path style="fill:#E0C7B1;" d="M138.811,46.162c0.033-0.267,0.223-0.486,0.484-0.551c2.129-0.533,7.413-1.555,16.65-1.555 s14.521,1.022,16.65,1.555c0.261,0.065,0.451,0.284,0.484,0.551l0.071,0.564c0.017,0.132-0.008,0.266-0.069,0.384l-3.731,7.124 c-0.411,0.743-1.572,0.872-13.404,0.872s-12.993-0.128-13.404-0.872l-3.731-7.124c-0.062-0.118-0.086-0.252-0.069-0.384 L138.811,46.162z"/>
      <path style="fill:#FEFBF1;" d="M172.596,47.063c-2.129-0.533-7.413-1.555-16.65-1.555s-14.521,1.022-16.65,1.555 c-0.16,0.04-0.276,0.149-0.363,0.28l-0.122-0.233c-0.062-0.118-0.086-0.252-0.069-0.384l0.071-0.564 c0.033-0.267,0.223-0.486,0.484-0.551c2.129-0.533,7.413-1.555,16.65-1.555s14.521,1.022,16.65,1.555 c0.261,0.065,0.451,0.284,0.484,0.551l0.071,0.564c0.017,0.132-0.008,0.266-0.069,0.384l-0.122,0.233 C172.872,47.211,172.756,47.103,172.596,47.063z"/>
      <path style="fill:#FEFBF1;" d="M141.462,49.084c3.629-0.074,7.255-0.273,10.871-0.595c-4.308,0.152-4.083-1.173-5.597-1.193 C145.515,47.279,146.108,48.677,141.462,49.084z"/>
      <path style="fill:#FEFBF1;" d="M158.741,48.533c3.618,0.293,7.246,0.461,10.875,0.506c-4.301-0.284-3.943-1.58-5.448-1.752 C162.956,47.147,163.405,48.597,158.741,48.533z"/>
      <path style="fill:#FEFBF1;" d="M145.727,53.588c2.843,0.251,5.694,0.405,8.547,0.461c-3.38-0.248-3.091-1.265-4.273-1.41 C149.049,52.523,149.393,53.666,145.727,53.588z"/>
      <path style="fill:#FEFBF1;" d="M157.268,53.991c2.854-0.017,5.707-0.131,8.552-0.343c-3.388,0.07-3.196-0.969-4.386-1.002 C160.475,52.619,160.925,53.724,157.268,53.991z"/>
      <path style="fill:#FEFBF1;" d="M150.645,51.282c3.434,0.09,6.872,0.062,10.305-0.084c-4.08-0.046-3.809-1.289-5.24-1.375 C154.557,49.755,155.056,51.102,150.645,51.282z"/>
      <path style="fill:#BF5F3D;" d="M155.932,39.334c10.403,0,16.246,1.202,18.409,1.762c0.573,0.148,1.011,0.657,1.084,1.245 l0.328,2.099c0,0.355-0.334,0.61-0.676,0.515c-1.893-0.526-7.859-1.88-19.144-1.88c-11.285,0-17.251,1.354-19.144,1.88 c-0.342,0.095-0.676-0.16-0.676-0.515l0.327-2.099c0.073-0.587,0.511-1.096,1.084-1.245 C139.686,40.536,145.529,39.334,155.932,39.334z"/>
      <path style="fill:#FFC3AD;" d="M137.793,41.318c1.121,0.682,0.731,1.95,0.049,2.827c0,0,3.427-1.312,14.296-1.556 c10.869-0.244,14.801,0.045,22.405,1.799c0,0-2.047-1.706-0.439-2.778c0,0-1.072-0.439-2.34-0.634c0,0,1.999,1.617,0.39,2.047 c-0.455,0.122-3.258-0.625-5.885-0.884c-6.347-0.626-15.665-0.649-21.075,0.082c-5.41,0.731-5.624,0.639-5.721,0.298 c-0.098-0.341-0.92-0.995,0.591-1.677L137.793,41.318z"/>
    </g>
  </g>
</svg>