<?xml version="1.0" encoding="utf-8"?>
<svg xmlns="http://www.w3.org/2000/svg" viewBox="0 0 500 500">
  <g id="Table_3_" transform="matrix(1, 0, 0, 1, 58.362538, -162.108401)">
    <g id="Shadow_14_">
      <g id="Shadow_12_">
        <path style="opacity:0.01;fill:#515A7F;" d="M118.018,209.725H41.07c-2.509,0-4.543,2.034-4.543,4.543v40.373 c0,2.509,2.034,4.543,4.543,4.543h76.948c2.509,0,4.543-2.034,4.543-4.543v-40.373 C122.561,211.76,120.527,209.725,118.018,209.725z"/>
        <path style="opacity:0.0481;fill:#515A7F;" d="M40.464,209.13c-2.413,0-4.368,2.246-4.368,4.658v40.468 c0,2.413,2.236,4.368,4.648,4.368h77.018c2.413,0,4.368-2.209,4.368-4.621v-40.253c0-2.413-1.956-4.621-4.368-4.621H40.464z"/>
        <path style="opacity:0.0862;fill:#515A7F;" d="M39.859,208.534c-2.316,0-4.194,2.458-4.194,4.774v40.562 c0,2.316,2.437,4.194,4.753,4.194h77.088c2.316,0,4.194-2.383,4.194-4.699v-40.132c0-2.316-1.878-4.698-4.194-4.698H39.859z"/>
        <path style="opacity:0.1242;fill:#515A7F;" d="M39.254,207.939c-2.22,0-4.019,2.67-4.019,4.889v40.657 c0,2.22,2.638,4.019,4.858,4.019h77.157c2.22,0,4.019-2.558,4.019-4.777v-40.012c0-2.22-1.799-4.776-4.019-4.776H39.254z"/>
        <path style="opacity:0.1623;fill:#515A7F;" d="M38.648,207.343c-2.123,0-3.844,2.882-3.844,5.005V253.1 c0,2.123,2.84,3.844,4.963,3.844h77.227c2.123,0,3.844-2.732,3.844-4.855v-39.892c0-2.123-1.721-4.853-3.844-4.853H38.648z"/>
        <path style="opacity:0.2004;fill:#515A7F;" d="M38.043,206.748c-2.027,0-3.67,3.094-3.67,5.12v40.846 c0,2.027,3.041,3.67,5.068,3.67h77.297c2.027,0,3.669-2.907,3.669-4.934v-39.772c0-2.027-1.643-4.931-3.669-4.931H38.043z"/>
        <path style="opacity:0.2385;fill:#515A7F;" d="M37.438,206.152c-1.93,0-3.495,3.305-3.495,5.236v40.941 c0,1.93,3.243,3.495,5.173,3.495h77.367c1.93,0,3.495-3.082,3.495-5.012v-39.651c0-1.93-1.565-5.008-3.495-5.008H37.438z"/>
        <path style="opacity:0.2765;fill:#515A7F;" d="M36.833,205.557c-1.834,0-3.32,3.518-3.32,5.351v41.036 c0,1.834,3.444,3.32,5.278,3.32h77.437c1.834,0,3.32-3.256,3.32-5.09v-39.531c0-1.834-1.486-5.086-3.32-5.086H36.833z"/>
        <path style="opacity:0.3146;fill:#515A7F;" d="M36.227,204.961c-1.737,0-3.145,3.729-3.145,5.466v41.131 c0,1.737,3.646,3.145,5.383,3.145h77.507c1.737,0,3.145-3.431,3.145-5.168v-39.411c0-1.737-1.408-5.164-3.145-5.164H36.227z"/>
        <path style="opacity:0.3527;fill:#515A7F;" d="M35.622,204.365c-1.641,0-2.971,3.941-2.971,5.582v41.225 c0,1.641,3.847,2.971,5.487,2.971h77.576c1.641,0,2.971-3.605,2.971-5.246v-39.291c0-1.641-1.33-5.241-2.971-5.241H35.622z"/>
        <path style="opacity:0.3908;fill:#515A7F;" d="M35.017,203.77c-1.544,0-2.796,4.153-2.796,5.697v41.32 c0,1.544,4.048,2.796,5.592,2.796h77.646c1.544,0,2.796-3.78,2.796-5.324v-39.171c0-1.544-1.252-5.319-2.796-5.319H35.017z"/>
        <path style="opacity:0.4288;fill:#515A7F;" d="M34.411,203.174c-1.448,0-2.621,4.365-2.621,5.813v41.415 c0,1.448,4.25,2.621,5.697,2.621h77.716c1.448,0,2.621-3.955,2.621-5.402v-39.05c0-1.448-1.174-5.396-2.621-5.396H34.411z"/>
        <path style="opacity:0.4669;fill:#515A7F;" d="M33.806,202.579c-1.351,0-2.446,4.577-2.446,5.928v41.51 c0,1.351,4.451,2.446,5.802,2.446h77.786c1.351,0,2.446-4.129,2.446-5.48v-38.93c0-1.351-1.095-5.474-2.446-5.474H33.806z"/>
        <path style="opacity:0.505;fill:#515A7F;" d="M33.201,201.983c-1.254,0-2.271,4.789-2.271,6.043v41.605 c0,1.255,4.653,2.272,5.907,2.272h77.856c1.255,0,2.272-4.304,2.272-5.558v-38.81c0-1.255-1.017-5.551-2.272-5.551H33.201z"/>
        <path style="opacity:0.5431;fill:#515A7F;" d="M32.595,201.388c-1.158,0-2.097,5.001-2.097,6.159v41.699 c0,1.158,4.854,2.097,6.012,2.097h77.925c1.158,0,2.097-4.479,2.097-5.636v-38.69c0-1.158-0.939-5.629-2.097-5.629H32.595z"/>
        <path style="opacity:0.5812;fill:#515A7F;" d="M31.99,200.792c-1.062,0-1.922,5.213-1.922,6.274v41.794 c0,1.061,5.056,1.922,6.117,1.922h77.995c1.062,0,1.922-4.653,1.922-5.715v-38.569c0-1.061-0.861-5.706-1.922-5.706H31.99z"/>
        <path style="opacity:0.6192;fill:#515A7F;" d="M31.385,200.197c-0.965,0-1.747,5.425-1.747,6.39v41.889 c0,0.965,5.257,1.747,6.222,1.747h78.065c0.965,0,1.747-4.828,1.747-5.793v-38.449c0-0.965-0.782-5.784-1.747-5.784H31.385z"/>
        <path style="opacity:0.6573;fill:#515A7F;" d="M30.779,199.601c-0.868,0-1.573,5.637-1.573,6.505v41.984 c0,0.868,5.458,1.573,6.327,1.573h78.135c0.868,0,1.573-5.002,1.573-5.871v-38.329c0-0.868-0.704-5.861-1.573-5.861H30.779z"/>
        <path style="opacity:0.6954;fill:#515A7F;" d="M30.174,199.006c-0.772,0-1.398,5.848-1.398,6.62v42.078 c0,0.772,5.66,1.398,6.432,1.398h78.205c0.772,0,1.398-5.177,1.398-5.949v-38.209c0-0.772-0.626-5.939-1.398-5.939H30.174z"/>
        <path style="opacity:0.7335;fill:#515A7F;" d="M29.569,198.41c-0.675,0-1.223,6.06-1.223,6.736v42.173 c0,0.676,5.861,1.223,6.537,1.223h78.274c0.676,0,1.223-5.352,1.223-6.027v-38.088c0-0.676-0.548-6.017-1.223-6.017H29.569z"/>
        <path style="opacity:0.7715;fill:#515A7F;" d="M28.964,197.814c-0.579,0-1.048,6.272-1.048,6.851v42.268 c0,0.579,6.063,1.049,6.642,1.049h78.344c0.579,0,1.048-5.526,1.048-6.105v-37.968c0-0.579-0.469-6.094-1.048-6.094H28.964z"/>
        <path style="opacity:0.8096;fill:#515A7F;" d="M28.358,197.219c-0.483,0-0.874,6.484-0.874,6.967v42.362 c0,0.483,6.264,0.874,6.747,0.874h78.414c0.483,0,0.874-5.701,0.874-6.183v-37.848c0-0.482-0.391-6.172-0.874-6.172H28.358z"/>
        <path style="opacity:0.8477;fill:#515A7F;" d="M27.753,196.623c-0.386,0-0.699,6.696-0.699,7.082v42.457 c0,0.386,6.465,0.699,6.851,0.699h78.484c0.386,0,0.699-5.875,0.699-6.261v-37.728c0-0.386-0.313-6.249-0.699-6.249H27.753z"/>
        <path style="opacity:0.8858;fill:#515A7F;" d="M27.148,196.028c-0.289,0-0.524,6.908-0.524,7.198v42.552 c0,0.289,6.667,0.524,6.956,0.524h78.554c0.289,0,0.524-6.05,0.524-6.339v-37.607c0-0.29-0.235-6.327-0.524-6.327H27.148z"/>
        <path style="opacity:0.9238;fill:#515A7F;" d="M26.542,195.432c-0.193,0-0.35,7.12-0.35,7.313v42.647 c0,0.193,6.868,0.35,7.061,0.35h78.624c0.193,0,0.349-6.225,0.349-6.417v-37.487c0-0.193-0.156-6.404-0.349-6.404H26.542z"/>
        <path style="opacity:0.9619;fill:#515A7F;" d="M25.937,194.837c-0.097,0-0.175,7.332-0.175,7.428v42.741 c0,0.097,7.07,0.175,7.166,0.175h78.693c0.097,0,0.175-6.399,0.175-6.496v-37.367c0-0.096-0.078-6.482-0.175-6.482H25.937z"/>
        <rect x="25.332" y="194.241" style="fill:#515A7F;" width="86.034" height="50.38"/>
      </g>
      <g id="Shadow_13_">
        <path style="opacity:0.01;fill:#515A7F;" d="M90.597,241.027H71.701c-2.509,0-4.543,2.034-4.543,4.543v24.359 c0,2.509,2.034,4.543,4.543,4.543h18.896c2.509,0,4.543-2.034,4.543-4.543V245.57C95.14,243.061,93.106,241.027,90.597,241.027z"/>
        <path style="opacity:0.0481;fill:#515A7F;" d="M71.095,240.585c-2.413,0-4.368,2.199-4.368,4.612v24.254 c0,2.413,2.25,4.368,4.663,4.368h18.951c2.413,0,4.368-2.155,4.368-4.568v-24.1c0-2.413-1.956-4.567-4.368-4.567H71.095z"/>
        <path style="opacity:0.0862;fill:#515A7F;" d="M70.49,240.144c-2.316,0-4.194,2.365-4.194,4.681v24.15 c0,2.316,2.466,4.194,4.782,4.194h19.006c2.316,0,4.194-2.276,4.194-4.592v-23.842c0-2.316-1.878-4.59-4.194-4.59H70.49z"/>
        <path style="opacity:0.1242;fill:#515A7F;" d="M69.885,239.702c-2.22,0-4.019,2.53-4.019,4.749v24.046 c0,2.22,2.682,4.019,4.902,4.019h19.062c2.22,0,4.019-2.397,4.019-4.617v-23.584c0-2.22-1.799-4.614-4.019-4.614H69.885z"/>
        <path style="opacity:0.1623;fill:#515A7F;" d="M69.28,239.261c-2.123,0-3.844,2.695-3.844,4.818v23.942 c0,2.123,2.898,3.844,5.021,3.844h19.117c2.123,0,3.844-2.518,3.844-4.641v-23.326c0-2.123-1.721-4.638-3.844-4.638H69.28z"/>
        <path style="opacity:0.2004;fill:#515A7F;" d="M68.674,238.819c-2.027,0-3.67,2.86-3.67,4.887v23.838 c0,2.027,3.114,3.669,5.141,3.669h19.172c2.027,0,3.67-2.639,3.67-4.665v-23.067c0-2.027-1.643-4.661-3.67-4.661H68.674z"/>
        <path style="opacity:0.2385;fill:#515A7F;" d="M68.069,238.378c-1.93,0-3.495,3.025-3.495,4.956v23.734 c0,1.93,3.33,3.495,5.26,3.495h19.227c1.93,0,3.495-2.76,3.495-4.69v-22.809c0-1.93-1.565-4.685-3.495-4.685H68.069z"/>
        <path style="opacity:0.2765;fill:#515A7F;" d="M67.464,237.936c-1.834,0-3.32,3.191-3.32,5.024v23.63 c0,1.834,3.546,3.32,5.38,3.32h19.282c1.834,0,3.32-2.881,3.32-4.714v-22.551c0-1.834-1.486-4.709-3.32-4.709H67.464z"/>
        <path style="opacity:0.3146;fill:#515A7F;" d="M66.858,237.495c-1.737,0-3.145,3.356-3.145,5.093v23.526 c0,1.737,3.762,3.145,5.499,3.145H88.55c1.737,0,3.145-3.002,3.145-4.739v-22.293c0-1.737-1.408-4.732-3.145-4.732H66.858z"/>
        <path style="opacity:0.3527;fill:#515A7F;" d="M66.253,237.053c-1.64,0-2.97,3.521-2.97,5.162v23.422 c0,1.641,3.978,2.971,5.619,2.971h19.393c1.641,0,2.971-3.123,2.971-4.763v-22.035c0-1.641-1.33-4.756-2.971-4.756H66.253z"/>
        <path style="opacity:0.3908;fill:#515A7F;" d="M65.648,236.611c-1.544,0-2.796,3.686-2.796,5.23v23.318 c0,1.544,4.194,2.796,5.738,2.796h19.448c1.544,0,2.796-3.243,2.796-4.788v-21.776c0-1.544-1.252-4.78-2.796-4.78H65.648z"/>
        <path style="opacity:0.4288;fill:#515A7F;" d="M65.042,236.17c-1.447,0-2.621,3.851-2.621,5.299v23.214 c0,1.448,4.41,2.621,5.858,2.621h19.503c1.448,0,2.621-3.365,2.621-4.812v-21.518c0-1.448-1.174-4.803-2.621-4.803H65.042z"/>
        <path style="opacity:0.4669;fill:#515A7F;" d="M64.437,235.728c-1.351,0-2.446,4.017-2.446,5.368v23.11 c0,1.351,4.626,2.446,5.977,2.446h19.558c1.351,0,2.446-3.486,2.446-4.836v-21.26c0-1.351-1.095-4.827-2.446-4.827H64.437z"/>
        <path style="opacity:0.505;fill:#515A7F;" d="M63.832,235.287c-1.254,0-2.272,4.182-2.272,5.436v23.005 c0,1.255,4.842,2.272,6.097,2.272h19.614c1.255,0,2.272-3.606,2.272-4.861v-21.002c0-1.255-1.017-4.851-2.272-4.851H63.832z"/>
        <path style="opacity:0.5431;fill:#515A7F;" d="M63.227,234.845c-1.158,0-2.097,4.347-2.097,5.505v22.901 c0,1.158,5.058,2.097,6.216,2.097h19.669c1.158,0,2.097-3.727,2.097-4.885v-20.744c0-1.158-0.939-4.874-2.097-4.874H63.227z"/>
        <path style="opacity:0.5812;fill:#515A7F;" d="M62.621,234.404c-1.062,0-1.922,4.512-1.922,5.574v22.797 c0,1.062,5.274,1.922,6.336,1.922h19.724c1.062,0,1.922-3.848,1.922-4.91v-20.485c0-1.062-0.86-4.898-1.922-4.898H62.621z"/>
        <path style="opacity:0.6192;fill:#515A7F;" d="M62.016,233.962c-0.965,0-1.747,4.678-1.747,5.643v22.693 c0,0.965,5.49,1.747,6.455,1.747h19.779c0.965,0,1.747-3.969,1.747-4.934v-20.227c0-0.965-0.782-4.922-1.747-4.922H62.016z"/>
        <path style="opacity:0.6573;fill:#515A7F;" d="M61.411,233.52c-0.868,0-1.573,4.843-1.573,5.711v22.589 c0,0.868,5.706,1.573,6.575,1.573h19.835c0.868,0,1.573-4.09,1.573-4.959v-19.969c0-0.868-0.704-4.945-1.573-4.945H61.411z"/>
        <path style="opacity:0.6954;fill:#515A7F;" d="M60.805,233.079c-0.772,0-1.398,5.008-1.398,5.78v22.485 c0,0.772,5.922,1.398,6.694,1.398h19.89c0.772,0,1.398-4.211,1.398-4.983v-19.711c0-0.772-0.626-4.969-1.398-4.969H60.805z"/>
        <path style="opacity:0.7335;fill:#515A7F;" d="M60.2,232.637c-0.675,0-1.223,5.173-1.223,5.849v22.381 c0,0.676,6.139,1.223,6.814,1.223h19.945c0.675,0,1.223-4.332,1.223-5.008V237.63c0-0.675-0.548-4.993-1.223-4.993H60.2z"/>
        <path style="opacity:0.7715;fill:#515A7F;" d="M59.595,232.196c-0.579,0-1.048,5.338-1.048,5.917v22.277 c0,0.579,6.355,1.048,6.933,1.048h20c0.579,0,1.048-4.453,1.048-5.032v-19.194c0-0.579-0.469-5.016-1.048-5.016H59.595z"/>
        <path style="opacity:0.8096;fill:#515A7F;" d="M58.989,231.754c-0.483,0-0.874,5.504-0.874,5.986v22.173 c0,0.483,6.571,0.874,7.053,0.874h20.055c0.483,0,0.874-4.574,0.874-5.057v-18.936c0-0.482-0.391-5.04-0.874-5.04H58.989z"/>
        <path style="opacity:0.8477;fill:#515A7F;" d="M58.384,231.313c-0.386,0-0.699,5.669-0.699,6.055v22.069 c0,0.386,6.787,0.699,7.173,0.699h20.111c0.386,0,0.699-4.695,0.699-5.081v-18.678c0-0.386-0.313-5.064-0.699-5.064H58.384z"/>
        <path style="opacity:0.8858;fill:#515A7F;" d="M57.779,230.871c-0.29,0-0.524,5.834-0.524,6.124v21.965 c0,0.289,7.003,0.524,7.292,0.524h20.166c0.289,0,0.524-4.816,0.524-5.105v-18.42c0-0.29-0.235-5.087-0.524-5.087H57.779z"/>
        <path style="opacity:0.9238;fill:#515A7F;" d="M57.174,230.429c-0.193,0-0.349,5.999-0.349,6.192v21.861 c0,0.193,7.219,0.349,7.412,0.349h20.221c0.193,0,0.35-4.937,0.35-5.13V235.54c0-0.193-0.157-5.111-0.35-5.111H57.174z"/>
        <path style="opacity:0.9619;fill:#515A7F;" d="M56.568,229.988c-0.097,0-0.175,6.165-0.175,6.261v21.756 c0,0.096,7.435,0.175,7.531,0.175h20.276c0.097,0,0.175-5.058,0.175-5.154v-17.903c0-0.096-0.078-5.135-0.175-5.135H56.568z"/>
        <rect x="55.963" y="229.546" style="fill:#515A7F;" width="27.982" height="27.982"/>
      </g>
    </g>
    <g id="Chair_S_12_">
      <polygon style="fill:#4A4A4A;" points="76.018,264.642 74.515,258.244 62.653,258.244 61.151,264.642 &#9;&#9;"/>
      <polygon style="fill:#696969;" points="73.881,264.642 72.81,258.244 64.358,258.244 63.288,264.642 &#9;&#9;"/>
      <path style="fill:#4A4A4A;" d="M57.643,233.572c8.934-1.592,14.145-1.592,23.079,0c1.036,0.185,1.856,0.998,2.045,2.033 c1.589,8.704,1.59,12.056,0,20.76c-0.189,1.035-1.009,1.848-2.045,2.033c-8.934,1.592-14.145,1.592-23.079,0 c-1.036-0.185-1.856-0.998-2.045-2.033c-1.589-8.704-1.59-12.056,0-20.76C55.787,234.57,56.607,233.757,57.643,233.572z"/>
      <path style="fill:#A9A9A9;" d="M58.664,234.671c8.143-1.451,12.893-1.451,21.037,0c0.944,0.168,1.692,0.909,1.864,1.853 c1.449,7.934,1.449,10.989,0,18.923c-0.172,0.944-0.92,1.685-1.864,1.853c-8.144,1.451-12.893,1.451-21.037,0 c-0.944-0.168-1.692-0.909-1.864-1.853c-1.449-7.934-1.449-10.989,0-18.923C56.972,235.58,57.719,234.839,58.664,234.671z"/>
      <path style="fill:#D4D4D4;" d="M56.8,237.693c0.172-0.944,0.92-1.684,1.864-1.853c8.143-1.451,12.893-1.451,21.037,0 c0.944,0.168,1.692,0.909,1.864,1.853c0.673,3.687,1.029,6.319,1.077,8.878c0.055-2.949-0.301-5.799-1.077-10.048 c-0.172-0.944-0.92-1.685-1.864-1.853c-8.144-1.451-12.893-1.451-21.037,0c-0.944,0.168-1.692,0.909-1.864,1.853 c-0.776,4.248-1.132,7.098-1.077,10.046C55.77,244.011,56.126,241.379,56.8,237.693z"/>
      <path style="fill:#696969;" d="M56.8,254.277c0.172,0.944,0.92,1.685,1.864,1.853c8.143,1.451,12.893,1.451,21.037,0 c0.944-0.168,1.692-0.909,1.864-1.853c0.673-3.686,1.029-6.319,1.077-8.878c0.055,2.949-0.301,5.799-1.077,10.048 c-0.172,0.944-0.92,1.685-1.864,1.853c-8.144,1.451-12.893,1.451-21.037,0c-0.944-0.168-1.692-0.909-1.864-1.853 c-0.776-4.248-1.132-7.098-1.077-10.046C55.77,247.959,56.126,250.591,56.8,254.277z"/>
      <path style="fill:#828282;" d="M52.354,265.008l-1.562,2.856c0,0,5.337,1.546,18.396,1.546s18.384-1.563,18.384-1.563l-1.552-2.84 c-0.364-0.665-1.061-1.079-1.82-1.079H54.173C53.415,263.929,52.717,264.343,52.354,265.008z"/>
      <path style="fill:#A9A9A9;" d="M69.2,272.876c-9.697,0-15.144-1.121-17.16-1.642c-0.534-0.138-0.943-0.613-1.011-1.16 l-0.305-1.956c0-0.331,0.312-0.569,0.631-0.48c1.765,0.491,7.326,1.753,17.845,1.753s16.081-1.262,17.845-1.753 c0.319-0.089,0.631,0.149,0.631,0.48l-0.305,1.956c-0.068,0.548-0.477,1.022-1.011,1.16 C84.344,271.755,78.897,272.876,69.2,272.876z"/>
      <path style="fill:#D4D4D4;" d="M86.108,271.027c-1.045-0.636-0.681-1.817-0.045-2.635c0,0-3.195,1.223-13.326,1.45 c-10.132,0.227-13.797-0.042-20.885-1.677c0,0,1.908,1.59,0.409,2.59c0,0,1,0.409,2.181,0.591c0,0-1.864-1.508-0.363-1.908 c0.424-0.113,3.037,0.582,5.486,0.824c5.916,0.583,14.602,0.605,19.645-0.076c5.043-0.681,5.242-0.596,5.333-0.278 c0.091,0.318,0.857,0.927-0.551,1.564L86.108,271.027z"/>
    </g>
    <g>
      <path style="fill:#984626;" d="M109.653,246.442H28.834c-2.592,0-4.693-2.101-4.693-4.693v-44.515 c0-2.592,2.101-4.693,4.693-4.693h80.819c2.592,0,4.693,2.101,4.693,4.693v44.515 C114.346,244.341,112.245,246.442,109.653,246.442z"/>
      <path style="fill:#BF5F3D;" d="M109.396,244.948H29.091c-2.035,0-3.684-1.649-3.684-3.684v-43.547 c0-2.035,1.649-3.684,3.684-3.684h80.305c2.035,0,3.684,1.649,3.684,3.684v43.547C113.079,243.299,111.43,244.948,109.396,244.948 z"/>
      <path style="fill:#FFC2AD;" d="M108.856,243.524H29.631c-1.804,0-3.267-2.13-3.267-3.934v1.245c0,1.804,1.463,3.267,3.267,3.267 h79.225c1.804,0,3.267-1.463,3.267-3.267v-1.245C112.123,241.394,110.66,243.524,108.856,243.524z"/>
      <path style="fill:#984626;" d="M108.856,195.458H29.631c-1.804,0-3.267,2.13-3.267,3.934v-1.245c0-1.804,1.463-3.267,3.267-3.267 h79.225c1.804,0,3.267,1.463,3.267,3.267v1.245C112.123,197.588,110.66,195.458,108.856,195.458z"/>
    </g>
    <g>
      <g>
        <path style="fill:#FEFBF1;" d="M91.118,229.371c-0.507-0.354-0.927-0.807-1.333-1.244c-0.413-0.445-0.803-0.866-1.269-1.178 c-0.405-0.271-0.898-0.315-1.419-0.362c-0.574-0.052-1.168-0.104-1.664-0.478c-0.321-0.242-0.525-0.617-0.573-1.057 c-0.058-0.525,0.108-1.074,0.442-1.467c0.502-0.589,1.339-0.928,2.358-0.955c0.466-0.006,0.926,0.033,1.372,0.077 c0.343,0.034,0.687,0.068,1.031,0.075c0.897,0.021,1.599-0.18,2.064-0.59c0.479-0.423,0.743-1.12,0.705-1.864 c-0.032-0.635-0.272-1.315-0.712-2.021c-0.355-0.57-1.341-1.908-2.822-2.01c-1.278-0.091-2.416,0.753-3.519,1.567 c-0.897,0.661-1.834,1.265-2.944,1.446c-0.346,0.057-0.697,0.057-1.023,0.056c-0.488-0.008-0.946-0.001-1.38,0.167l-0.193-0.499 c0.528-0.205,1.052-0.214,1.575-0.204c0.329,0.001,0.634,0.001,0.936-0.049c0.996-0.163,1.868-0.727,2.662-1.313 c1.176-0.866,2.456-1.794,3.923-1.707c1.217,0.084,2.398,0.908,3.24,2.261c0.488,0.785,0.754,1.551,0.792,2.277 c0.046,0.906-0.285,1.763-0.885,2.292c-0.569,0.502-1.371,0.748-2.43,0.724c-0.358-0.008-0.715-0.042-1.072-0.077 c-0.45-0.044-0.875-0.089-1.307-0.075c-0.501,0.013-1.422,0.13-1.964,0.767c-0.238,0.279-0.36,0.686-0.319,1.062 c0.032,0.292,0.161,0.536,0.363,0.688c0.374,0.282,0.867,0.326,1.39,0.372c0.566,0.05,1.15,0.102,1.669,0.45 c0.517,0.346,0.947,0.81,1.363,1.258c0.387,0.417,0.787,0.848,1.247,1.169L91.118,229.371z"/>
        <path style="fill:#3A4F61;" d="M91.256,228.982c-2.802,2.802-1.201,4.747,0.652,6.686c1.853,1.94,5.733,2.802,7.285,1.251 c1.552-1.552,0.689-5.432-1.251-7.285C96.003,227.781,94.058,226.18,91.256,228.982z"/>
        <path style="fill:#708587;" d="M94.403,227.152c-1.187-0.103-2.694,0.686-3.492,1.484c-0.798,0.798-1.588,2.305-1.485,3.492 c0.114,1.311,1.426,2.221,2.507,2.646c0.907,0.356,1.865,0.528,2.728,0.833c1.154,0.408,1.724,1.267,2.623,1.831 c0.657,0.412,1.291,0.098,1.909-0.52c0.618-0.618,0.932-1.252,0.52-1.909c-0.564-0.899-1.424-1.469-1.831-2.623 c-0.305-0.863-0.476-1.821-0.833-2.728C96.624,228.578,95.714,227.266,94.403,227.152z"/>
        <path style="fill:#FEFBF1;" d="M94.308,227.45c-0.998-0.087-2.237,0.513-3.005,1.177l1.71,1.925l-0.187,0.187l-1.925-1.71 c-0.664,0.768-1.264,2.007-1.177,3.005c0.105,1.207,1.313,2.046,2.309,2.438c0.835,0.328,1.718,0.486,2.513,0.767 c1.063,0.375,1.589,1.167,2.416,1.687c0.605,0.38,1.189,0.09,1.758-0.479c0.569-0.569,0.858-1.153,0.479-1.758 c-0.519-0.828-1.311-1.353-1.687-2.416c-0.281-0.795-0.439-1.678-0.767-2.513C96.354,228.763,95.516,227.554,94.308,227.45z"/>
        <path style="fill:#3A4F61;" d="M94.005,231.035c0.479,0.479-0.217,1.174-0.696,0.696l-1.372-1.372 c-0.467-0.467,0.229-1.163,0.695-0.695L94.005,231.035z"/>
      </g>
      <g>
        <path style="fill:#FEFBF1;" d="M82.279,214.983H54.977v16.441c0,0.928,0.752,1.679,1.68,1.679h23.943 c0.928,0,1.68-0.752,1.68-1.679V214.983z"/>
        <polygon style="fill:#708587;" points="84.892,203.598 52.364,203.598 54.977,215.173 82.279,215.173 &#9;&#9;&#9;"/>
        <polygon style="fill:#11222E;" points="53.762,204.495 83.494,204.495 81.442,214.276 55.814,214.276 &#9;&#9;&#9;"/>
        <polygon style="fill:#203941;" points="64.313,204.495 55.347,204.495 65.129,214.276 74.094,214.276 64.313,204.495 &#9;&#9;&#9;"/>
        <polygon style="fill:#203941;" points="72.919,204.495 72.919,204.495 68.219,204.495 78.001,214.276 81.442,214.276 &#10;&#9;&#9;&#9;&#9;81.66,213.235 &#9;&#9;&#9;"/>
        <path style="fill:#FEFBF1;" d="M83.718,201.899H53.537c-0.648,0-1.173,0.525-1.173,1.173v0.526h32.528v-0.526 C84.892,202.424,84.367,201.899,83.718,201.899z"/>
        <path style="fill:#3A4F61;" d="M63.288,230.038v-2.158c0-0.409,0.285-0.74,0.637-0.74h6.19c0.352,0,0.637,0.331,0.637,0.74v2.158 c0,0.068-0.047,0.123-0.106,0.123h-7.253C63.335,230.16,63.288,230.105,63.288,230.038z M63.288,230.665v0.233 c0,0.409,0.285,0.74,0.637,0.74h2.771c0.058,0,0.106-0.055,0.106-0.123v-0.85c0-0.068-0.047-0.123-0.106-0.123h-3.302 C63.335,230.542,63.288,230.597,63.288,230.665z M67.239,230.665v0.85c0,0.068,0.047,0.123,0.106,0.123h2.771 c0.352,0,0.637-0.331,0.637-0.74v-0.233c0-0.068-0.047-0.123-0.106-0.123h-3.302C67.286,230.542,67.239,230.597,67.239,230.665z"/>
        <path style="fill:#3A4F61;" d="M58.583,218.598c0,0.224-0.183,0.407-0.407,0.407h-0.431c-0.224,0-0.407-0.183-0.407-0.407v-0.678 c0-0.224,0.183-0.407,0.407-0.407h0.431c0.224,0,0.407,0.183,0.407,0.407V218.598z M57.245,216.807 c0-0.224-0.183-0.407-0.407-0.407h-0.411c-0.228,0-0.412,0.185-0.412,0.412v0.041c0,0.224,0.183,0.407,0.407,0.407h0.416 c0.224,0,0.407-0.183,0.407-0.407V216.807z M58.745,216.807c0-0.224-0.183-0.407-0.407-0.407h-0.416 c-0.224,0-0.407,0.183-0.407,0.407v0.046c0,0.224,0.183,0.407,0.407,0.407h0.416c0.224,0,0.407-0.183,0.407-0.407V216.807z M60.246,216.807c0-0.224-0.183-0.407-0.407-0.407h-0.416c-0.224,0-0.407,0.183-0.407,0.407v0.046 c0,0.224,0.183,0.407,0.407,0.407h0.416c0.224,0,0.407-0.183,0.407-0.407V216.807z M61.746,216.807 c0-0.224-0.183-0.407-0.407-0.407h-0.416c-0.224,0-0.407,0.183-0.407,0.407v0.046c0,0.224,0.183,0.407,0.407,0.407h0.416 c0.224,0,0.407-0.183,0.407-0.407V216.807z M63.246,216.807c0-0.224-0.183-0.407-0.407-0.407h-0.416 c-0.224,0-0.407,0.183-0.407,0.407v0.046c0,0.224,0.183,0.407,0.407,0.407h0.416c0.224,0,0.407-0.183,0.407-0.407V216.807z M64.746,216.807c0-0.224-0.183-0.407-0.407-0.407h-0.416c-0.224,0-0.407,0.183-0.407,0.407v0.046 c0,0.224,0.183,0.407,0.407,0.407h0.416c0.224,0,0.407-0.183,0.407-0.407V216.807z M66.246,216.807 c0-0.224-0.183-0.407-0.407-0.407h-0.416c-0.224,0-0.407,0.183-0.407,0.407v0.046c0,0.224,0.183,0.407,0.407,0.407h0.416 c0.224,0,0.407-0.183,0.407-0.407V216.807z M67.747,216.807c0-0.224-0.183-0.407-0.407-0.407h-0.416 c-0.224,0-0.407,0.183-0.407,0.407v0.046c0,0.224,0.183,0.407,0.407,0.407h0.416c0.224,0,0.407-0.183,0.407-0.407V216.807z M69.247,216.807c0-0.224-0.183-0.407-0.407-0.407h-0.416c-0.224,0-0.407,0.183-0.407,0.407v0.046 c0,0.224,0.183,0.407,0.407,0.407h0.416c0.224,0,0.407-0.183,0.407-0.407V216.807z M70.747,216.807 c0-0.224-0.183-0.407-0.407-0.407h-0.416c-0.224,0-0.407,0.183-0.407,0.407v0.046c0,0.224,0.183,0.407,0.407,0.407h0.416 c0.224,0,0.407-0.183,0.407-0.407V216.807z M72.247,216.807c0-0.224-0.183-0.407-0.407-0.407h-0.416 c-0.224,0-0.407,0.183-0.407,0.407v0.046c0,0.224,0.183,0.407,0.407,0.407h0.416c0.224,0,0.407-0.183,0.407-0.407V216.807z M73.747,216.807c0-0.224-0.183-0.407-0.407-0.407h-0.416c-0.224,0-0.407,0.183-0.407,0.407v0.046 c0,0.224,0.183,0.407,0.407,0.407h0.416c0.224,0,0.407-0.183,0.407-0.407V216.807z M75.248,216.807 c0-0.224-0.183-0.407-0.407-0.407h-0.416c-0.224,0-0.407,0.183-0.407,0.407v0.046c0,0.224,0.183,0.407,0.407,0.407h0.416 c0.224,0,0.407-0.183,0.407-0.407V216.807z M76.748,216.807c0-0.224-0.183-0.407-0.407-0.407h-0.416 c-0.224,0-0.407,0.183-0.407,0.407v0.046c0,0.224,0.183,0.407,0.407,0.407h0.416c0.224,0,0.407-0.183,0.407-0.407V216.807z M78.248,216.807c0-0.224-0.183-0.407-0.407-0.407h-0.416c-0.224,0-0.407,0.183-0.407,0.407v0.046 c0,0.224,0.183,0.407,0.407,0.407h0.416c0.224,0,0.407-0.183,0.407-0.407V216.807z M79.748,216.807 c0-0.224-0.183-0.407-0.407-0.407h-0.416c-0.224,0-0.407,0.183-0.407,0.407v0.046c0,0.224,0.183,0.407,0.407,0.407h0.416 c0.224,0,0.407-0.183,0.407-0.407V216.807z M80.836,216.4h-0.411c-0.224,0-0.407,0.183-0.407,0.407v0.046 c0,0.224,0.183,0.407,0.407,0.407h0.416c0.224,0,0.407-0.183,0.407-0.407v-0.041C81.248,216.584,81.064,216.4,80.836,216.4z M57.098,217.921c0-0.224-0.183-0.407-0.407-0.407h-0.277c-0.224,0-0.407,0.183-0.407,0.407v0.678 c0,0.224,0.183,0.407,0.407,0.407h0.277c0.224,0,0.407-0.183,0.407-0.407V217.921z M60.336,217.921 c0-0.224-0.183-0.407-0.407-0.407h-0.677c-0.224,0-0.407,0.183-0.407,0.407v0.678c0,0.224,0.183,0.407,0.407,0.407h0.677 c0.224,0,0.407-0.183,0.407-0.407V217.921z M62.103,217.921c0-0.224-0.183-0.407-0.407-0.407h-0.677 c-0.224,0-0.407,0.183-0.407,0.407v0.678c0,0.224,0.183,0.407,0.407,0.407h0.677c0.224,0,0.407-0.183,0.407-0.407V217.921z M63.87,217.921c0-0.224-0.183-0.407-0.407-0.407h-0.677c-0.224,0-0.407,0.183-0.407,0.407v0.678 c0,0.224,0.183,0.407,0.407,0.407h0.677c0.224,0,0.407-0.183,0.407-0.407V217.921z M65.637,217.921 c0-0.224-0.183-0.407-0.407-0.407h-0.677c-0.224,0-0.407,0.183-0.407,0.407v0.678c0,0.224,0.183,0.407,0.407,0.407h0.677 c0.224,0,0.407-0.183,0.407-0.407V217.921z M67.404,217.921c0-0.224-0.183-0.407-0.407-0.407H66.32 c-0.224,0-0.407,0.183-0.407,0.407v0.678c0,0.224,0.183,0.407,0.407,0.407h0.677c0.224,0,0.407-0.183,0.407-0.407V217.921z M69.172,217.921c0-0.224-0.183-0.407-0.407-0.407h-0.677c-0.224,0-0.407,0.183-0.407,0.407v0.678 c0,0.224,0.183,0.407,0.407,0.407h0.677c0.224,0,0.407-0.183,0.407-0.407V217.921z M70.939,217.921 c0-0.224-0.183-0.407-0.407-0.407h-0.677c-0.224,0-0.407,0.183-0.407,0.407v0.678c0,0.224,0.183,0.407,0.407,0.407h0.677 c0.224,0,0.407-0.183,0.407-0.407V217.921z M72.706,217.921c0-0.224-0.183-0.407-0.407-0.407h-0.677 c-0.224,0-0.407,0.183-0.407,0.407v0.678c0,0.224,0.183,0.407,0.407,0.407h0.677c0.224,0,0.407-0.183,0.407-0.407V217.921z M74.473,217.921c0-0.224-0.183-0.407-0.407-0.407h-0.677c-0.224,0-0.407,0.183-0.407,0.407v0.678 c0,0.224,0.183,0.407,0.407,0.407h0.677c0.224,0,0.407-0.183,0.407-0.407V217.921z M76.24,217.921 c0-0.224-0.183-0.407-0.407-0.407h-0.677c-0.224,0-0.407,0.183-0.407,0.407v0.678c0,0.224,0.183,0.407,0.407,0.407h0.677 c0.224,0,0.407-0.183,0.407-0.407V217.921z M78.007,217.921c0-0.224-0.183-0.407-0.407-0.407h-0.677 c-0.224,0-0.407,0.183-0.407,0.407v0.678c0,0.224,0.183,0.407,0.407,0.407H77.6c0.224,0,0.407-0.183,0.407-0.407V217.921z M81.161,217.921c0-0.224-0.183-0.407-0.407-0.407h-1.991c-0.224,0-0.407,0.183-0.407,0.407v0.678 c0,0.224,0.183,0.407,0.407,0.407h1.991c0.224,0,0.407-0.183,0.407-0.407V217.921z M61.1,219.701 c0-0.224-0.183-0.407-0.407-0.407h-0.677c-0.224,0-0.407,0.183-0.407,0.407v0.678c0,0.224,0.183,0.407,0.407,0.407h0.677 c0.224,0,0.407-0.183,0.407-0.407V219.701z M59.333,219.701c0-0.224-0.183-0.407-0.407-0.407h-0.677 c-0.224,0-0.407,0.183-0.407,0.407v0.678c0,0.224,0.183,0.407,0.407,0.407h0.677c0.224,0,0.407-0.183,0.407-0.407V219.701z M57.563,219.701c0-0.224-0.183-0.407-0.407-0.407h-0.717c-0.224,0-0.407,0.183-0.407,0.407v0.678 c0,0.224,0.183,0.407,0.407,0.407h0.717c0.224,0,0.407-0.183,0.407-0.407V219.701z M62.867,219.701 c0-0.224-0.183-0.407-0.407-0.407h-0.677c-0.224,0-0.407,0.183-0.407,0.407v0.678c0,0.224,0.183,0.407,0.407,0.407h0.677 c0.224,0,0.407-0.183,0.407-0.407V219.701z M64.634,219.701c0-0.224-0.183-0.407-0.407-0.407h-0.677 c-0.224,0-0.407,0.183-0.407,0.407v0.678c0,0.224,0.183,0.407,0.407,0.407h0.677c0.224,0,0.407-0.183,0.407-0.407V219.701z M66.401,219.701c0-0.224-0.183-0.407-0.407-0.407h-0.677c-0.224,0-0.407,0.183-0.407,0.407v0.678 c0,0.224,0.183,0.407,0.407,0.407h0.677c0.224,0,0.407-0.183,0.407-0.407V219.701z M68.168,219.701 c0-0.224-0.183-0.407-0.407-0.407h-0.677c-0.224,0-0.407,0.183-0.407,0.407v0.678c0,0.224,0.183,0.407,0.407,0.407h0.677 c0.224,0,0.407-0.183,0.407-0.407V219.701z M69.935,219.701c0-0.224-0.183-0.407-0.407-0.407h-0.677 c-0.224,0-0.407,0.183-0.407,0.407v0.678c0,0.224,0.183,0.407,0.407,0.407h0.677c0.224,0,0.407-0.183,0.407-0.407V219.701z M71.702,219.701c0-0.224-0.183-0.407-0.407-0.407h-0.677c-0.224,0-0.407,0.183-0.407,0.407v0.678 c0,0.224,0.183,0.407,0.407,0.407h0.677c0.224,0,0.407-0.183,0.407-0.407V219.701z M73.469,219.701 c0-0.224-0.183-0.407-0.407-0.407h-0.677c-0.224,0-0.407,0.183-0.407,0.407v0.678c0,0.224,0.183,0.407,0.407,0.407h0.677 c0.224,0,0.407-0.183,0.407-0.407V219.701z M75.236,219.701c0-0.224-0.183-0.407-0.407-0.407h-0.677 c-0.224,0-0.407,0.183-0.407,0.407v0.678c0,0.224,0.183,0.407,0.407,0.407h0.677c0.224,0,0.407-0.183,0.407-0.407V219.701z M77.004,219.701c0-0.224-0.183-0.407-0.407-0.407h-0.677c-0.224,0-0.407,0.183-0.407,0.407v0.678 c0,0.224,0.183,0.407,0.407,0.407h0.677c0.224,0,0.407-0.183,0.407-0.407V219.701z M78.771,219.701 c0-0.224-0.183-0.407-0.407-0.407h-0.677c-0.224,0-0.407,0.183-0.407,0.407v0.678c0,0.224,0.183,0.407,0.407,0.407h0.677 c0.224,0,0.407-0.183,0.407-0.407V219.701z M81.199,219.701c0-0.224-0.183-0.407-0.407-0.407h-1.313 c-0.224,0-0.407,0.183-0.407,0.407v0.678c0,0.224,0.183,0.407,0.407,0.407h1.313c0.224,0,0.407-0.183,0.407-0.407V219.701z M59.879,221.481c0-0.224-0.183-0.407-0.407-0.407h-0.677c-0.224,0-0.407,0.183-0.407,0.407v0.677 c0,0.224,0.183,0.407,0.407,0.407h0.677c0.224,0,0.407-0.183,0.407-0.407V221.481z M58.107,221.481 c0-0.224-0.183-0.407-0.407-0.407h-1.232c-0.224,0-0.407,0.183-0.407,0.407v0.677c0,0.224,0.183,0.407,0.407,0.407H57.7 c0.224,0,0.407-0.183,0.407-0.407V221.481z M61.646,221.481c0-0.224-0.183-0.407-0.407-0.407h-0.677 c-0.224,0-0.407,0.183-0.407,0.407v0.677c0,0.224,0.183,0.407,0.407,0.407h0.677c0.224,0,0.407-0.183,0.407-0.407V221.481z M63.413,221.481c0-0.224-0.183-0.407-0.407-0.407h-0.677c-0.224,0-0.407,0.183-0.407,0.407v0.677 c0,0.224,0.183,0.407,0.407,0.407h0.677c0.224,0,0.407-0.183,0.407-0.407V221.481z M65.18,221.481 c0-0.224-0.183-0.407-0.407-0.407h-0.677c-0.224,0-0.407,0.183-0.407,0.407v0.677c0,0.224,0.183,0.407,0.407,0.407h0.677 c0.224,0,0.407-0.183,0.407-0.407V221.481z M66.947,221.481c0-0.224-0.183-0.407-0.407-0.407h-0.677 c-0.224,0-0.407,0.183-0.407,0.407v0.677c0,0.224,0.183,0.407,0.407,0.407h0.677c0.224,0,0.407-0.183,0.407-0.407V221.481z M68.714,221.481c0-0.224-0.183-0.407-0.407-0.407H67.63c-0.224,0-0.407,0.183-0.407,0.407v0.677 c0,0.224,0.183,0.407,0.407,0.407h0.677c0.224,0,0.407-0.183,0.407-0.407V221.481z M70.481,221.481 c0-0.224-0.183-0.407-0.407-0.407h-0.677c-0.224,0-0.407,0.183-0.407,0.407v0.677c0,0.224,0.183,0.407,0.407,0.407h0.677 c0.224,0,0.407-0.183,0.407-0.407V221.481z M72.248,221.481c0-0.224-0.183-0.407-0.407-0.407h-0.677 c-0.224,0-0.407,0.183-0.407,0.407v0.677c0,0.224,0.183,0.407,0.407,0.407h0.677c0.224,0,0.407-0.183,0.407-0.407V221.481z M74.016,221.481c0-0.224-0.183-0.407-0.407-0.407h-0.677c-0.224,0-0.407,0.183-0.407,0.407v0.677 c0,0.224,0.183,0.407,0.407,0.407h0.677c0.224,0,0.407-0.183,0.407-0.407V221.481z M75.783,221.481 c0-0.224-0.183-0.407-0.407-0.407h-0.677c-0.224,0-0.407,0.183-0.407,0.407v0.677c0,0.224,0.183,0.407,0.407,0.407h0.677 c0.224,0,0.407-0.183,0.407-0.407V221.481z M77.55,221.481c0-0.224-0.183-0.407-0.407-0.407h-0.677 c-0.224,0-0.407,0.183-0.407,0.407v0.677c0,0.224,0.183,0.407,0.407,0.407h0.677c0.224,0,0.407-0.183,0.407-0.407V221.481z M81.139,221.481c0-0.224-0.183-0.407-0.407-0.407h-2.39c-0.224,0-0.407,0.183-0.407,0.407v0.677 c0,0.224,0.183,0.407,0.407,0.407h2.39c0.224,0,0.407-0.183,0.407-0.407V221.481z M60.802,223.261 c0-0.224-0.183-0.407-0.407-0.407h-0.677c-0.224,0-0.407,0.183-0.407,0.407v0.677c0,0.224,0.183,0.407,0.407,0.407h0.677 c0.224,0,0.407-0.183,0.407-0.407V223.261z M58.928,223.261c0-0.224-0.183-0.407-0.407-0.407h-2.01 c-0.224,0-0.407,0.183-0.407,0.407v0.677c0,0.224,0.183,0.407,0.407,0.407h2.01c0.224,0,0.407-0.183,0.407-0.407V223.261z M62.569,223.261c0-0.224-0.183-0.407-0.407-0.407h-0.677c-0.224,0-0.407,0.183-0.407,0.407v0.677 c0,0.224,0.183,0.407,0.407,0.407h0.677c0.224,0,0.407-0.183,0.407-0.407V223.261z M64.337,223.261 c0-0.224-0.183-0.407-0.407-0.407h-0.677c-0.224,0-0.407,0.183-0.407,0.407v0.677c0,0.224,0.183,0.407,0.407,0.407h0.677 c0.224,0,0.407-0.183,0.407-0.407V223.261z M66.104,223.261c0-0.224-0.183-0.407-0.407-0.407h-0.677 c-0.224,0-0.407,0.183-0.407,0.407v0.677c0,0.224,0.183,0.407,0.407,0.407h0.677c0.224,0,0.407-0.183,0.407-0.407V223.261z M67.871,223.261c0-0.224-0.183-0.407-0.407-0.407h-0.677c-0.224,0-0.407,0.183-0.407,0.407v0.677 c0,0.224,0.183,0.407,0.407,0.407h0.677c0.224,0,0.407-0.183,0.407-0.407V223.261z M69.638,223.261 c0-0.224-0.183-0.407-0.407-0.407h-0.677c-0.224,0-0.407,0.183-0.407,0.407v0.677c0,0.224,0.183,0.407,0.407,0.407h0.677 c0.224,0,0.407-0.183,0.407-0.407V223.261z M71.405,223.261c0-0.224-0.183-0.407-0.407-0.407H70.32 c-0.224,0-0.407,0.183-0.407,0.407v0.677c0,0.224,0.183,0.407,0.407,0.407h0.677c0.224,0,0.407-0.183,0.407-0.407V223.261z M73.172,223.261c0-0.224-0.183-0.407-0.407-0.407h-0.677c-0.224,0-0.407,0.183-0.407,0.407v0.677 c0,0.224,0.183,0.407,0.407,0.407h0.677c0.224,0,0.407-0.183,0.407-0.407V223.261z M74.939,223.261 c0-0.224-0.183-0.407-0.407-0.407h-0.677c-0.224,0-0.407,0.183-0.407,0.407v0.677c0,0.224,0.183,0.407,0.407,0.407h0.677 c0.224,0,0.407-0.183,0.407-0.407V223.261z M76.706,223.261c0-0.224-0.183-0.407-0.407-0.407h-0.677 c-0.224,0-0.407,0.183-0.407,0.407v0.677c0,0.224,0.183,0.407,0.407,0.407h0.677c0.224,0,0.407-0.183,0.407-0.407V223.261z M81.097,223.261c0-0.224-0.183-0.407-0.407-0.407h-3.135c-0.224,0-0.407,0.183-0.407,0.407v0.677 c0,0.224,0.183,0.407,0.407,0.407h3.135c0.224,0,0.407-0.183,0.407-0.407V223.261z M57.521,225.053 c0-0.224-0.183-0.407-0.407-0.407h-0.677c-0.224,0-0.407,0.183-0.407,0.407v0.87c0,0.228,0.185,0.413,0.412,0.413h0.672 c0.224,0,0.407-0.183,0.407-0.407V225.053z M59.288,225.053c0-0.224-0.183-0.407-0.407-0.407h-0.677 c-0.224,0-0.407,0.183-0.407,0.407v0.875c0,0.224,0.183,0.407,0.407,0.407h0.677c0.224,0,0.407-0.183,0.407-0.407V225.053z M61.055,225.053c0-0.224-0.183-0.407-0.407-0.407h-0.677c-0.224,0-0.407,0.183-0.407,0.407v0.875 c0,0.224,0.183,0.407,0.407,0.407h0.677c0.224,0,0.407-0.183,0.407-0.407V225.053z M62.822,225.053 c0-0.224-0.183-0.407-0.407-0.407h-0.677c-0.224,0-0.407,0.183-0.407,0.407v0.875c0,0.224,0.183,0.407,0.407,0.407h0.677 c0.224,0,0.407-0.183,0.407-0.407V225.053z M72.761,225.053c0-0.224-0.183-0.407-0.407-0.407h-0.677 c-0.224,0-0.407,0.183-0.407,0.407v0.875c0,0.224,0.183,0.407,0.407,0.407h0.677c0.224,0,0.407-0.183,0.407-0.407V225.053z M70.673,225.053c0-0.224-0.183-0.407-0.407-0.407h-6.451c-0.224,0-0.407,0.183-0.407,0.407v0.875 c0,0.224,0.183,0.407,0.407,0.407h6.451c0.224,0,0.407-0.183,0.407-0.407V225.053z M74.528,225.053 c0-0.224-0.183-0.407-0.407-0.407h-0.677c-0.224,0-0.407,0.183-0.407,0.407v0.875c0,0.224,0.183,0.407,0.407,0.407h0.677 c0.224,0,0.407-0.183,0.407-0.407V225.053z M76.295,225.053c0-0.224-0.183-0.407-0.407-0.407H75.21 c-0.224,0-0.407,0.183-0.407,0.407v0.875c0,0.224,0.183,0.407,0.407,0.407h0.677c0.224,0,0.407-0.183,0.407-0.407V225.053z M77.956,225.053c0-0.224-0.183-0.407-0.407-0.407h-0.558c-0.224,0-0.407,0.183-0.407,0.407v0.875 c0,0.224,0.183,0.407,0.407,0.407h0.558c0.224,0,0.407-0.183,0.407-0.407V225.053z M79.598,226c0-0.212-0.183-0.386-0.407-0.386 h-0.557c-0.224,0-0.407,0.174-0.407,0.386s0.183,0.386,0.407,0.386h0.557C79.415,226.386,79.598,226.212,79.598,226z M79.598,224.976c0-0.21-0.183-0.382-0.407-0.382h-0.557c-0.224,0-0.407,0.172-0.407,0.382s0.183,0.382,0.407,0.382h0.557 C79.415,225.357,79.598,225.186,79.598,224.976z M81.241,225.053c0-0.224-0.183-0.407-0.407-0.407h-0.558 c-0.224,0-0.407,0.183-0.407,0.407v0.875c0,0.224,0.183,0.407,0.407,0.407h0.552c0.228,0,0.412-0.185,0.412-0.413V225.053z"/>
      </g>
      <g>
        <rect x="31.409" y="209.677" style="fill:#EEE0D1;" width="14.222" height="18.793"/>
        <rect x="33.841" y="213.077" style="fill:#FEFBF1;" width="14.222" height="18.793"/>
      </g>
      <g>
        <g>
          <path style="fill:#708587;" d="M107.141,209.75c-0.667,3.476-4.026,5.754-7.502,5.087c-3.477-0.667-5.754-4.026-5.087-7.502 c0.667-3.476,4.026-5.754,7.502-5.087C105.531,202.915,107.808,206.273,107.141,209.75z"/>
          <path style="fill:#FEFBF1;" d="M106.898,209.711c-0.641,3.343-3.871,5.533-7.214,4.891c-3.343-0.641-5.533-3.871-4.892-7.214 c0.641-3.343,3.871-5.533,7.214-4.892C105.349,203.138,107.539,206.368,106.898,209.711z"/>
          <path style="fill:#11222E;" d="M106.101,209.558c-0.557,2.903-3.362,4.805-6.265,4.248c-2.903-0.557-4.805-3.362-4.248-6.265 c0.557-2.903,3.362-4.805,6.265-4.248C104.757,203.85,106.659,206.655,106.101,209.558z"/>
          <path style="fill:#66301D;" d="M105.526,209.448c-0.496,2.585-2.994,4.279-5.579,3.783c-2.585-0.496-4.279-2.994-3.783-5.579 c0.496-2.585,2.994-4.279,5.579-3.783C104.329,204.364,106.022,206.862,105.526,209.448z"/>
        </g>
        <g>
          <path style="fill:#005E08;" d="M105.342,204.812c-0.334-0.338-0.752-0.608-0.981-1.024c-0.229-0.416-0.153-1.06,0.297-1.214 c-0.43-0.082-0.865,0.149-1.171,0.462c-0.306,0.313-0.517,0.703-0.775,1.056c-0.209,0.285-0.454,0.551-0.703,0.814 c-0.781-1.663-2.617-2.723-4.455-2.732c-1.849-0.009-3.637,0.967-4.781,2.42c0.739-0.216,1.545,0.199,2.021,0.804 c0.476,0.605,0.696,1.367,0.914,2.105c0.219,0.738,0.46,1.497,0.966,2.077c0.18,0.206,0.393,0.36,0.618,0.491 c-0.041,0.638,0.143,1.29,0.542,1.791c0.456,0.573,1.129,0.927,1.665,1.425c0.536,0.499,0.944,1.284,0.643,1.952 c0.186-0.57,0.867-0.768,1.415-1.011c0.781-0.346,1.42-0.967,1.838-1.707c0.29-0.511,0.47-1.053,0.498-1.638l1.036,0.463 l0.428-0.538c-0.003-0.008-0.005-0.016-0.008-0.025c-0.085-0.393-0.291-0.886-0.276-1.284c0.011-0.292,0.196-0.309,0.396-0.485 c0.256-0.225,0.436-0.567,0.558-0.88C106.463,207.02,106.182,205.662,105.342,204.812z"/>
          <path style="fill:#31C20D;" d="M96.66,204.01c-0.381-0.212-0.806-0.343-1.239-0.389c-0.502-0.053-0.859,0.049-1.323,0.225 c1.52,0.203,2.88,1.324,3.369,2.777c-0.607,0.164-1.111,0.665-1.279,1.271c-0.058-0.839-0.294-1.666-0.688-2.409 c-0.212-0.399-0.477-0.783-0.846-1.043c-0.401-0.282-0.933-0.393-1.389-0.177c0.177-0.236,0.427-0.403,0.673-0.566 c0.398-0.263,0.809-0.468,1.268-0.61c0.699-0.203,1.46-0.202,2.151,0.03c0.598,0.201,1.191,0.64,1.269,1.265 c0.017,0.136,0.008,0.274,0,0.411c-0.012,0.193,0.052,1.135-0.087,1.245c-0.177,0.14-0.382-0.279-0.449-0.409 C97.74,204.958,97.341,204.389,96.66,204.01z M103.526,206.042c0.052,0.344,0.024,0.717-0.172,1.003 c0.194-0.14,0.489-0.055,0.635,0.116c0.172-0.619,0.15-1.291-0.062-1.898c-0.098-0.281-0.236-0.547-0.316-0.833 s-0.096-0.606,0.043-0.869c-0.069,0.529,0.144,1.051,0.365,1.537c0.34,0.748,0.666,1.603,0.169,2.368 c0.426,0.256,0.778,0.633,1.004,1.076c0.566-0.278,0.832-0.981,0.744-1.605c-0.088-0.624-0.467-1.172-0.91-1.621 c-0.369-0.373-0.768-0.683-0.973-1.177c-0.086-0.208-0.288-1.157,0.052-1.276c-0.836,0.295-1.018,1.419-0.835,2.17 c0.062,0.253,0.146,0.5,0.206,0.752C103.495,205.869,103.512,205.955,103.526,206.042z M103.191,211.413 c-0.366,0.115-0.741,0.232-1.124,0.215c-0.383-0.017-0.782-0.195-0.958-0.536c-0.236,0.396-0.181,0.891-0.134,1.35 c0.047,0.458,0.064,0.966-0.222,1.327c0.206-0.468,0.038-1.009-0.142-1.488c-0.18-0.479-0.373-1.003-0.212-1.488 c-0.429,0.192-0.983,0.045-1.26-0.335c-0.215,0.445-0.088,0.986,0.155,1.416c0.243,0.43,0.592,0.79,0.861,1.205 c0.27,0.416,0.437,0.893,0.334,1.39c0.318-0.329,0.772-0.701,1.193-0.889c0.126-0.056,0.258-0.098,0.378-0.164 c0.262-0.143,0.577-0.42,0.758-0.655C103.11,212.382,103.247,211.888,103.191,211.413z M105.158,211.97 c-0.49-0.571-1.224-0.925-1.976-0.954c-0.48-0.018-0.974,0.089-1.435-0.048c-0.351-0.105-0.647-0.359-0.823-0.68 c-0.134,0.021-0.278,0.026-0.433,0.009c-0.482-0.054-0.902-0.344-1.276-0.653c-0.374-0.309-0.732-0.651-1.176-0.847 c-0.443-0.196-1.007-0.213-1.374,0.104c-0.005-0.888,0.658-1.7,1.492-2.004c0.287-0.105,0.588-0.151,0.892-0.155 c-0.103-0.408-0.117-0.847-0.023-1.287c0.184-0.864,0.71-1.63,1.374-2.212c0.665-0.582,1.463-0.992,2.283-1.319 c-0.653,0.789-0.841,1.937-0.473,2.893c0.232,0.603,0.825,1.749,0.884,2.663c0.384,0.044,0.76,0.176,1.081,0.395 c0.541,0.369,0.932,0.931,1.171,1.541C105.673,210.247,105.706,211.264,105.158,211.97z M103.764,209.228 c-0.27-0.12-0.569-0.173-0.825-0.32c-0.256-0.148-0.469-0.438-0.395-0.723c-0.747,0.719-2,0.555-2.65-0.184 c-0.294-0.334-0.499-0.735-0.701-1.131c0.146,0.875,0.598,1.473,1.261,2.015c0.326,0.266,0.793,0.463,1.157,0.252 c0.143-0.083,0.254-0.223,0.41-0.277c0.169-0.059,0.36-0.005,0.513,0.088c0.153,0.093,0.281,0.222,0.423,0.332 c0.313,0.24,0.689,0.38,1.037,0.567c0.348,0.187,0.685,0.445,0.821,0.816C104.745,210.044,104.33,209.48,103.764,209.228z"/>
          <path style="fill:#89FF69;" d="M100.237,205c0.158-1.057,0.831-2.026,1.767-2.542c-0.52,0.661-0.992,1.385-1.193,2.202 s-0.097,1.745,0.44,2.393c0.124,0.15,0.271,0.286,0.352,0.462c0.115,0.252-0.003,0.716-0.367,0.553 c-0.205-0.092-0.41-0.549-0.522-0.736C100.296,206.639,100.117,205.801,100.237,205z M99.116,207.852 c-0.365-0.184-0.796-0.235-1.194-0.143c-0.398,0.092-0.762,0.328-1.009,0.654c0.42-0.29,0.959-0.402,1.46-0.303 c0.533,0.104,0.865,0.415,1.219,0.795c-0.093-0.16-0.209-0.307-0.291-0.477C99.264,208.301,99.168,207.879,99.116,207.852z M103.711,210.662c-0.578-0.101-1.243,0.104-1.715-0.244c-0.343-0.254-0.427-0.74-0.248-1.113 c-0.458,0.27-0.728,0.778-0.344,1.245c0.477,0.58,1.291,0.241,1.916,0.238c0.589-0.003,1.173,0.277,1.541,0.737 C104.642,211.078,104.201,210.748,103.711,210.662z M98.115,210.524c-0.075-0.194-0.414-0.436-0.535-0.122 c-0.103,0.265,0.198,0.773,0.339,0.978c0.261,0.383,0.62,0.687,0.974,0.986C98.332,211.894,98.35,211.135,98.115,210.524z M99.972,203.09c-0.914-0.578-2.037-0.812-3.107-0.66c0.613,0.129,1.197,0.398,1.695,0.778c0.182,0.139,0.42,0.483,0.667,0.405 C99.363,203.569,99.781,202.97,99.972,203.09z"/>
        </g>
      </g>
    </g>
  </g>
</svg>