<?xml version="1.0" encoding="utf-8"?>
<svg xmlns="http://www.w3.org/2000/svg" viewBox="0 0 500 500">
  <g id="Table_2_" transform="matrix(1, 0, 0, 1, -57.521001, 83.510011)">
    <g id="Shadow_9_">
      <g id="Shadow_4_">
        <path style="opacity:0.01;fill:#515A7F;" d="M261.133,59.82h-7.115h-7.115c-2.509,0-4.543,2.034-4.543,4.543v7.174v7.174 c0,2.509,2.034,4.543,4.543,4.543h1.17c2.43,0,4.746-0.493,6.852-1.383c2.106-0.891,4.003-2.18,5.595-3.772 c1.593-1.593,2.882-3.489,3.772-5.595c0.891-2.106,1.383-4.421,1.383-6.852v-1.289C265.676,61.854,263.642,59.82,261.133,59.82z"/>
        <path style="opacity:0.0481;fill:#515A7F;" d="M246.388,59.353c-2.413,0-4.368,2.188-4.368,4.601v7.132v7.365 c0,2.413,2.118,4.368,4.531,4.368h1.152c2.337,0,4.716-0.499,6.752-1.33c2.164-0.884,4.135-2.157,5.765-3.787 c1.63-1.63,2.903-3.6,3.787-5.765c0.831-2.035,1.33-4.429,1.33-6.766v-1.271c0-2.413-1.956-4.547-4.368-4.547h-7.29h-3.645 H246.388z"/>
        <path style="opacity:0.0862;fill:#515A7F;" d="M245.874,58.887c-2.316,0-4.194,2.342-4.194,4.658v7.09v7.555 c0,2.316,2.202,4.194,4.518,4.194h1.134c2.243,0,4.688-0.503,6.651-1.277c2.224-0.877,4.267-2.134,5.934-3.801 c1.667-1.667,2.924-3.711,3.801-5.934c0.774-1.964,1.277-4.436,1.277-6.68v-1.254c0-2.316-1.878-4.552-4.194-4.552h-7.464h-3.732 H245.874z"/>
        <path style="opacity:0.1242;fill:#515A7F;" d="M245.359,58.42c-2.22,0-4.019,2.496-4.019,4.716v7.049v7.745 c0,2.22,2.286,4.019,4.506,4.019h1.116c2.15,0,4.661-0.503,6.551-1.224c2.284-0.871,4.399-2.111,6.104-3.815 c1.704-1.704,2.945-3.82,3.815-6.104c0.721-1.89,1.224-4.444,1.224-6.594v-1.237c0-2.22-1.799-4.556-4.019-4.556h-7.639h-3.82 H245.359z"/>
        <path style="opacity:0.1623;fill:#515A7F;" d="M244.844,57.954c-2.123,0-3.844,2.65-3.844,4.774v7.007v7.936 c0,2.123,2.37,3.844,4.494,3.844h1.098c2.057,0,4.636-0.501,6.451-1.17c2.345-0.865,4.532-2.088,6.273-3.83 c1.742-1.742,2.965-3.928,3.829-6.273c0.669-1.815,1.171-4.451,1.171-6.508v-1.219c0-2.123-1.721-4.56-3.844-4.56h-7.814h-3.907 H244.844z"/>
        <path style="opacity:0.2004;fill:#515A7F;" d="M244.33,57.488c-2.027,0-3.669,2.804-3.669,4.831v6.965v8.126 c0,2.027,2.455,3.67,4.481,3.67h1.08c1.963,0,4.612-0.497,6.351-1.117c2.407-0.859,4.664-2.065,6.443-3.844 c1.779-1.779,2.985-4.036,3.844-6.443c0.621-1.739,1.117-4.459,1.117-6.422v-1.202c0-2.027-1.643-4.564-3.669-4.564h-7.988 h-3.994H244.33z"/>
        <path style="opacity:0.2385;fill:#515A7F;" d="M243.815,57.021c-1.93,0-3.495,2.958-3.495,4.889v6.923v8.317 c0,1.93,2.539,3.495,4.469,3.495h1.062c1.87,0,4.588-0.49,6.251-1.064c2.47-0.854,4.796-2.042,6.612-3.858 c1.816-1.816,3.005-4.143,3.858-6.612c0.575-1.662,1.064-4.466,1.064-6.336V61.59c0-1.93-1.565-4.568-3.495-4.568h-8.163h-4.082 H243.815z"/>
        <path style="opacity:0.2765;fill:#515A7F;" d="M243.301,56.555c-1.834,0-3.32,3.113-3.32,4.946v6.881v8.507 c0,1.834,2.623,3.32,4.456,3.32h1.044c1.776,0,4.566-0.48,6.15-1.011c2.533-0.848,4.929-2.019,6.782-3.872 c1.853-1.853,3.024-4.249,3.872-6.782c0.531-1.584,1.011-4.474,1.011-6.25v-1.167c0-1.834-1.486-4.573-3.32-4.573h-8.338h-4.169 H243.301z"/>
        <path style="opacity:0.3146;fill:#515A7F;" d="M242.786,56.088c-1.737,0-3.145,3.267-3.145,5.004v6.839v8.698 c0,1.737,2.707,3.145,4.444,3.145h1.026c1.683,0,4.545-0.469,6.05-0.958c2.597-0.843,5.061-1.996,6.952-3.887 c1.89-1.89,3.043-4.354,3.887-6.951c0.489-1.506,0.958-4.481,0.958-6.164v-1.15c0-1.737-1.408-4.577-3.145-4.577h-8.513h-4.256 H242.786z"/>
        <path style="opacity:0.3527;fill:#515A7F;" d="M242.271,55.622c-1.641,0-2.971,3.421-2.971,5.061v6.797v8.888 c0,1.641,2.791,2.971,4.432,2.971h1.008c1.589,0,4.524-0.455,5.95-0.904c2.662-0.839,5.194-1.973,7.121-3.901 c1.928-1.928,3.062-4.459,3.901-7.121c0.449-1.426,0.904-4.489,0.904-6.078v-1.132c0-1.641-1.33-4.581-2.97-4.581h-8.688h-4.344 H242.271z"/>
        <path style="opacity:0.3908;fill:#515A7F;" d="M241.757,55.156c-1.544,0-2.796,3.575-2.796,5.119v6.756v9.079 c0,1.544,2.875,2.796,4.419,2.796h0.99c1.496,0,4.504-0.44,5.85-0.851c2.727-0.834,5.326-1.95,7.291-3.915 c1.965-1.965,3.081-4.564,3.915-7.291c0.411-1.346,0.851-4.496,0.851-5.992v-1.115c0-1.544-1.252-4.585-2.796-4.585h-8.862 h-4.431H241.757z"/>
        <path style="opacity:0.4288;fill:#515A7F;" d="M241.242,54.689c-1.448,0-2.621,3.729-2.621,5.176v6.714v9.269 c0,1.448,2.959,2.621,4.407,2.621H244c1.402,0,4.485-0.422,5.75-0.798c2.793-0.83,5.458-1.927,7.46-3.929 c2.002-2.002,3.1-4.667,3.929-7.46c0.376-1.265,0.798-4.504,0.798-5.906v-1.098c0-1.448-1.173-4.589-2.621-4.589h-9.037h-4.518 H241.242z"/>
        <path style="opacity:0.4669;fill:#515A7F;" d="M240.728,54.223c-1.351,0-2.446,3.883-2.446,5.234v6.672v9.46 c0,1.351,3.043,2.446,4.394,2.446h0.954c1.309,0,4.467-0.403,5.65-0.745c2.859-0.825,5.591-1.905,7.63-3.944 c2.039-2.039,3.118-4.771,3.944-7.63c0.341-1.183,0.745-4.511,0.745-5.82v-1.081c0-1.351-1.095-4.594-2.446-4.594h-9.212h-4.606 H240.728z"/>
        <path style="opacity:0.505;fill:#515A7F;" d="M240.213,53.756c-1.255,0-2.272,4.037-2.272,5.292v6.63v9.65 c0,1.255,3.128,2.272,4.382,2.272h0.936c1.215,0,4.449-0.383,5.549-0.692c2.926-0.821,5.723-1.882,7.799-3.958 c2.076-2.076,3.137-4.873,3.958-7.799c0.309-1.101,0.692-4.519,0.692-5.734v-1.063c0-1.255-1.017-4.598-2.272-4.598h-9.386 h-4.693H240.213z"/>
        <path style="opacity:0.5431;fill:#515A7F;" d="M239.698,53.29c-1.158,0-2.097,4.191-2.097,5.349v6.588v9.841 c0,1.158,3.212,2.097,4.37,2.097h0.918c1.122,0,4.431-0.36,5.449-0.638c2.993-0.817,5.855-1.859,7.969-3.972 c2.114-2.114,3.155-4.975,3.972-7.969c0.278-1.018,0.639-4.526,0.639-5.648v-1.046c0-1.158-0.939-4.602-2.097-4.602h-9.561h-4.78 H239.698z"/>
        <path style="opacity:0.5812;fill:#515A7F;" d="M239.184,52.824c-1.062,0-1.922,4.345-1.922,5.407v6.547v10.031 c0,1.062,3.296,1.922,4.357,1.922h0.9c1.028,0,4.414-0.337,5.349-0.585c3.061-0.813,5.988-1.836,8.138-3.986 c2.151-2.151,3.173-5.077,3.987-8.138c0.249-0.935,0.585-4.533,0.585-5.562V57.43c0-1.062-0.861-4.606-1.922-4.606h-9.736h-4.868 H239.184z"/>
        <path style="opacity:0.6192;fill:#515A7F;" d="M238.669,52.357c-0.965,0-1.747,4.499-1.747,5.464v6.505v10.222 c0,0.965,3.38,1.747,4.345,1.747h0.881c0.935,0,4.398-0.312,5.249-0.532c3.129-0.81,6.12-1.813,8.308-4.001 c2.188-2.188,3.191-5.179,4.001-8.308c0.22-0.851,0.532-4.541,0.532-5.476v-1.011c0-0.965-0.782-4.61-1.747-4.61h-9.911h-4.955 H238.669z"/>
        <path style="opacity:0.6573;fill:#515A7F;" d="M238.154,51.891c-0.868,0-1.573,4.653-1.573,5.522v6.463v10.412 c0,0.868,3.464,1.573,4.333,1.573h0.863c0.841,0,4.381-0.285,5.149-0.479c3.198-0.806,6.252-1.79,8.477-4.015 c2.225-2.225,3.209-5.28,4.015-8.478c0.193-0.768,0.479-4.549,0.479-5.39v-0.994c0-0.869-0.704-4.615-1.573-4.615H248.24h-5.043 H238.154z"/>
        <path style="opacity:0.6954;fill:#515A7F;" d="M237.64,51.424c-0.772,0-1.398,4.807-1.398,5.579v6.421v10.603 c0,0.772,3.548,1.398,4.32,1.398h0.845c0.748,0,4.365-0.258,5.049-0.426c3.267-0.802,6.385-1.767,8.647-4.029 c2.262-2.262,3.227-5.38,4.029-8.647c0.168-0.683,0.426-4.556,0.426-5.304v-0.976c0-0.772-0.626-4.619-1.398-4.619H247.9h-5.13 H237.64z"/>
        <path style="opacity:0.7335;fill:#515A7F;" d="M237.125,50.958c-0.675,0-1.223,4.961-1.223,5.637v6.379v10.793 c0,0.675,3.632,1.223,4.308,1.223h0.827c0.654,0,4.35-0.229,4.948-0.372c3.336-0.799,6.517-1.744,8.816-4.044 c2.3-2.3,3.245-5.481,4.044-8.817c0.143-0.599,0.372-4.563,0.372-5.218v-0.959c0-0.676-0.548-4.623-1.223-4.623H247.56h-5.217 H237.125z"/>
        <path style="opacity:0.7715;fill:#515A7F;" d="M236.611,50.492c-0.579,0-1.048,5.116-1.048,5.695v6.337v10.984 c0,0.579,3.716,1.048,4.295,1.048h0.809c0.561,0,4.334-0.199,4.848-0.319c3.405-0.795,6.649-1.721,8.986-4.058 c2.337-2.337,3.262-5.581,4.058-8.986c0.12-0.514,0.319-4.571,0.319-5.132v-0.942c0-0.579-0.469-4.627-1.048-4.627h-10.61h-5.305 H236.611z"/>
        <path style="opacity:0.8096;fill:#515A7F;" d="M236.096,50.025c-0.483,0-0.874,5.27-0.874,5.752v6.295v11.174 c0,0.482,3.8,0.874,4.283,0.874h0.791c0.467,0,4.343-0.095,4.748-0.266c3.56-0.171,6.782-1.698,9.156-4.072 c2.374-2.374,3.901-5.595,4.072-9.156c0.171-0.405,0.266-4.578,0.266-5.046v-0.924c0-0.483-0.391-4.631-0.874-4.631H246.88 h-5.392H236.096z"/>
        <path style="opacity:0.8477;fill:#515A7F;" d="M235.581,49.559c-0.386,0-0.699,5.424-0.699,5.81v6.254v11.364 c0,0.386,3.885,0.699,4.271,0.699h0.773c0.374,0,4.324-0.076,4.648-0.213c3.63-0.137,6.914-1.675,9.325-4.087 c2.411-2.411,3.949-5.696,4.086-9.325c0.137-0.324,0.213-4.586,0.213-4.96v-0.907c0-0.386-0.313-4.636-0.699-4.636h-10.959h-5.48 H235.581z"/>
        <path style="opacity:0.8858;fill:#515A7F;" d="M235.067,49.092c-0.29,0-0.524,5.578-0.524,5.867v6.212v11.555 c0,0.29,3.969,0.524,4.258,0.524h0.755c0.28,0,4.305-0.057,4.548-0.16c3.699-0.103,7.046-1.652,9.495-4.101 c2.448-2.448,3.998-5.796,4.101-9.495c0.103-0.243,0.16-4.593,0.16-4.874v-0.89c0-0.29-0.235-4.64-0.524-4.64h-11.134h-5.567 H235.067z"/>
        <path style="opacity:0.9238;fill:#515A7F;" d="M234.552,48.626c-0.193,0-0.35,5.732-0.35,5.925v6.17v11.745 c0,0.193,4.053,0.349,4.246,0.349h0.737c0.187,0,4.286-0.038,4.447-0.106c3.768-0.068,7.179-1.629,9.664-4.115 c2.486-2.486,4.047-5.896,4.115-9.664c0.069-0.162,0.106-4.601,0.106-4.788V53.27c0-0.193-0.156-4.644-0.35-4.644h-11.308h-5.654 H234.552z"/>
        <path style="opacity:0.9619;fill:#515A7F;" d="M234.038,48.16c-0.096,0-0.175,5.886-0.175,5.982v6.128v11.936 c0,0.096,4.137,0.175,4.233,0.175h0.719c0.093,0,4.266-0.019,4.347-0.053c3.837-0.034,7.311-1.606,9.834-4.129 c2.523-2.523,4.095-5.997,4.129-9.834c0.034-0.081,0.053-4.608,0.053-4.702v-0.855c0-0.097-0.078-4.648-0.175-4.648h-11.483 h-5.742H234.038z"/>
        <path style="fill:#515A7F;" d="M256.839,47.693h-11.658h-5.829h-5.829V59.82v12.126h9.169c3.907,0,7.443-1.583,10.003-4.144 c2.56-2.56,4.144-6.097,4.144-10.003V47.693z"/>
      </g>
      <g id="Shadow_5_">
        <path style="opacity:0.01;fill:#515A7F;" d="M267.804,127.337H247.04c-2.585,0-4.68,2.095-4.68,4.68l2.062,16.136 c0,2.585,2.095,4.68,4.68,4.68h6.985c1.103,0,2.175-0.13,3.203-0.376c6.028-1.442,10.51-8.928,10.51-15.399v-7.725 C269.8,128.231,268.906,127.337,267.804,127.337z"/>
        <path style="opacity:0.0481;fill:#515A7F;" d="M242.02,131.371l1.983,16.448c0,2.485,2.274,4.5,4.76,4.5h2.145 c0.054,0,4.759-0.015,4.818-0.022c1.088-0.139,2.165-0.146,3.189-0.397c6.028-1.478,10.546-8.867,10.546-15.31v-7.8 c0-1.06-0.964-1.92-2.025-1.92h-20.668C244.283,126.871,242.02,128.886,242.02,131.371z"/>
        <path style="opacity:0.0862;fill:#515A7F;" d="M241.68,130.725l1.904,16.76c0,2.386,2.454,4.32,4.84,4.32h2.139 c0.109,0,4.684-0.029,4.802-0.045c1.082-0.143,2.154-0.162,3.175-0.417c6.028-1.514,10.582-8.806,10.582-15.221v-7.875 c0-1.018-1.035-1.843-2.053-1.843h-20.572C244.11,126.405,241.68,128.339,241.68,130.725z"/>
        <path style="opacity:0.1242;fill:#515A7F;" d="M241.34,130.078l1.824,17.073c0,2.287,2.632,4.14,4.919,4.14h2.133 c0.163,0,4.608-0.043,4.786-0.067c1.076-0.146,2.144-0.178,3.161-0.438c6.028-1.55,10.617-8.745,10.617-15.132v-7.951 c0-0.975-1.106-1.766-2.081-1.766h-20.476C243.937,125.938,241.34,127.792,241.34,130.078z"/>
        <path style="opacity:0.1623;fill:#515A7F;" d="M241,129.432l1.745,17.385c0,2.187,2.812,3.96,4.999,3.96h2.127 c0.218,0,4.533-0.056,4.77-0.089c1.069-0.15,2.133-0.194,3.147-0.459c6.028-1.586,10.653-8.684,10.653-15.042v-8.026 c0-0.933-1.176-1.689-2.109-1.689h-20.38C243.765,125.472,241,127.245,241,129.432z"/>
        <path style="opacity:0.2004;fill:#515A7F;" d="M240.66,128.786l1.666,17.697c0,2.088,2.991,3.78,5.078,3.78h2.121 c0.272,0,4.458-0.068,4.754-0.111c1.063-0.154,2.123-0.21,3.133-0.479c6.028-1.622,10.689-8.623,10.689-14.953v-8.101 c0-0.89-1.247-1.612-2.137-1.612H245.68C243.592,125.005,240.66,126.698,240.66,128.786z"/>
        <path style="opacity:0.2385;fill:#515A7F;" d="M240.32,128.139l1.586,18.009c0,1.988,3.17,3.6,5.158,3.6h2.115 c0.327,0,4.384-0.081,4.738-0.134c1.057-0.158,2.112-0.226,3.119-0.5c6.028-1.658,10.725-8.562,10.725-14.864v-8.176 c0-0.848-1.317-1.536-2.165-1.536h-20.188C243.419,124.539,240.32,126.151,240.32,128.139z"/>
        <path style="opacity:0.2765;fill:#515A7F;" d="M239.981,127.493l1.507,18.321c0,1.889,3.349,3.42,5.238,3.42h2.109 c0.381,0,4.309-0.092,4.722-0.156c1.051-0.162,2.102-0.242,3.105-0.521c6.028-1.694,10.761-8.501,10.761-14.775v-8.251 c0-0.806-1.388-1.459-2.194-1.459h-20.092C243.247,124.073,239.981,125.604,239.981,127.493z"/>
        <path style="opacity:0.3146;fill:#515A7F;" d="M239.641,126.846l1.428,18.633c0,1.79,3.528,3.24,5.317,3.24h2.102 c0.436,0,4.234-0.103,4.706-0.178c1.045-0.166,2.091-0.258,3.091-0.542c6.028-1.73,10.797-8.44,10.797-14.686v-8.326 c0-0.763-1.459-1.382-2.222-1.382h-19.995C243.074,123.606,239.641,125.057,239.641,126.846z"/>
        <path style="opacity:0.3527;fill:#515A7F;" d="M239.301,126.2l1.348,18.946c0,1.69,3.707,3.06,5.397,3.06h2.096 c0.49,0,4.16-0.114,4.69-0.2c1.039-0.17,2.08-0.274,3.077-0.562c6.028-1.766,10.833-8.379,10.833-14.596v-8.402 c0-0.721-1.529-1.305-2.25-1.305h-19.899C242.902,123.14,239.301,124.51,239.301,126.2z"/>
        <path style="opacity:0.3908;fill:#515A7F;" d="M238.961,125.553l1.269,19.258c0,1.591,3.886,2.88,5.476,2.88h2.09 c0.545,0,4.085-0.124,4.674-0.223c1.033-0.173,2.07-0.29,3.063-0.583c6.028-1.802,10.868-8.318,10.868-14.507v-8.477 c0-0.679-1.6-1.229-2.278-1.229H244.32C242.729,122.673,238.961,123.963,238.961,125.553z"/>
        <path style="opacity:0.4288;fill:#515A7F;" d="M238.621,124.907l1.19,19.57c0,1.491,4.065,2.7,5.556,2.7h2.084 c0.599,0,4.011-0.133,4.658-0.245c1.027-0.177,2.059-0.305,3.049-0.604c6.027-1.838,10.904-8.257,10.904-14.418v-8.552 c0-0.636-1.671-1.152-2.307-1.152h-19.707C242.556,122.207,238.621,123.416,238.621,124.907z"/>
        <path style="opacity:0.4669;fill:#515A7F;" d="M238.281,124.261l1.11,19.882c0,1.392,4.244,2.52,5.636,2.52h2.078 c0.654,0,3.937-0.142,4.642-0.267c1.022-0.181,2.049-0.322,3.035-0.624c6.027-1.874,10.94-8.196,10.94-14.329v-8.627 c0-0.594-1.741-1.075-2.335-1.075h-19.611C242.384,121.741,238.281,122.869,238.281,124.261z"/>
        <path style="opacity:0.505;fill:#515A7F;" d="M237.941,123.614l1.031,20.194c0,1.292,4.423,2.34,5.715,2.34h2.072 c0.708,0,3.863-0.15,4.626-0.289c1.016-0.185,2.038-0.337,3.021-0.645c6.027-1.909,10.976-8.135,10.976-14.24v-8.702 c0-0.551-1.812-0.998-2.363-0.998h-19.515C242.211,121.274,237.941,122.322,237.941,123.614z"/>
        <path style="opacity:0.5431;fill:#515A7F;" d="M237.602,122.968l0.952,20.507c0,1.193,4.602,2.16,5.795,2.16h2.066 c0.763,0,3.789-0.158,4.61-0.312c1.01-0.189,2.028-0.353,3.007-0.666c6.027-1.945,11.012-8.074,11.012-14.151v-8.777 c0-0.509-1.882-0.921-2.391-0.921h-19.419C242.039,120.808,237.602,121.775,237.602,122.968z"/>
        <path style="opacity:0.5812;fill:#515A7F;" d="M237.262,122.322l0.872,20.819c0,1.094,4.781,1.98,5.874,1.98h2.06 c0.817,0,3.715-0.165,4.594-0.334c1.005-0.193,2.017-0.369,2.993-0.686c6.027-1.981,11.048-8.013,11.048-14.062v-8.852 c0-0.466-1.953-0.845-2.419-0.845h-19.323C241.866,120.341,237.262,121.228,237.262,122.322z"/>
        <path style="opacity:0.6192;fill:#515A7F;" d="M236.922,121.675l0.793,21.131c0,0.994,4.96,1.8,5.954,1.8h2.053 c0.871,0,3.641-0.171,4.578-0.356c0.999-0.197,2.007-0.385,2.979-0.707c6.027-2.017,11.083-7.952,11.083-13.972v-8.928 c0-0.424-2.023-0.768-2.448-0.768h-19.227C241.693,119.875,236.922,120.681,236.922,121.675z"/>
        <path style="opacity:0.6573;fill:#515A7F;" d="M236.582,121.029l0.714,21.443c0,0.895,5.139,1.62,6.034,1.62h2.047 c0.926,0,3.567-0.177,4.562-0.378c0.994-0.201,1.996-0.401,2.965-0.728c6.027-2.053,11.119-7.891,11.119-13.883V120.1 c0-0.382-2.094-0.691-2.476-0.691h-19.131C241.521,119.409,236.582,120.134,236.582,121.029z"/>
        <path style="opacity:0.6954;fill:#515A7F;" d="M236.242,120.382l0.635,21.755c0,0.795,5.318,1.44,6.113,1.44h2.041 c0.98,0,3.494-0.183,4.546-0.401c0.989-0.205,1.985-0.417,2.951-0.749c6.027-2.089,11.155-7.829,11.155-13.794v-9.078 c0-0.339-2.165-0.614-2.504-0.614h-19.035C241.348,118.942,236.242,119.587,236.242,120.382z"/>
        <path style="opacity:0.7335;fill:#515A7F;" d="M235.902,119.736l0.555,22.067c0,0.696,5.497,1.26,6.193,1.26h2.035 c1.035,0,3.421-0.187,4.53-0.423c0.983-0.209,1.975-0.433,2.936-0.769c6.027-2.125,11.191-7.768,11.191-13.705v-9.153 c0-0.297-2.235-0.537-2.532-0.537h-18.939C241.175,118.476,235.902,119.04,235.902,119.736z"/>
        <path style="opacity:0.7715;fill:#515A7F;" d="M235.562,119.089l0.476,22.38c0,0.596,5.676,1.08,6.273,1.08h2.029 c1.089,0,3.348-0.191,4.514-0.445c0.978-0.213,1.964-0.449,2.923-0.79c6.027-2.161,11.227-7.707,11.227-13.616v-9.228 c0-0.255-2.306-0.461-2.56-0.461h-18.843C241.003,118.009,235.562,118.493,235.562,119.089z"/>
        <path style="opacity:0.8096;fill:#515A7F;" d="M235.222,118.443l0.397,22.692c0,0.497,5.855,0.9,6.352,0.9h2.023 c1.144,0,3.275-0.195,4.498-0.467c0.973-0.217,1.954-0.465,2.909-0.811c6.027-2.197,11.263-7.646,11.263-13.527v-9.303 c0-0.212-2.376-0.384-2.589-0.384h-18.747C240.83,117.543,235.222,117.946,235.222,118.443z"/>
        <path style="opacity:0.8477;fill:#515A7F;" d="M234.882,117.797l0.317,23.004c0,0.398,6.034,0.72,6.432,0.72h2.016 c1.198,0,3.202-0.197,4.482-0.49c0.968-0.221,1.943-0.481,2.895-0.831c6.027-2.233,11.299-7.585,11.299-13.438v-9.378 c0-0.17-2.447-0.307-2.617-0.307h-18.651C240.658,117.077,234.882,117.399,234.882,117.797z"/>
        <path style="opacity:0.8858;fill:#515A7F;" d="M234.543,117.15l0.238,23.316c0,0.298,6.213,0.54,6.512,0.54h2.01 c1.253,0,3.129-0.199,4.466-0.512c0.963-0.225,1.933-0.497,2.88-0.852c6.026-2.269,11.335-7.524,11.335-13.348v-9.454 c0-0.127-2.518-0.23-2.645-0.23h-18.555C240.485,116.61,234.543,116.852,234.543,117.15z"/>
        <path style="opacity:0.9238;fill:#515A7F;" d="M234.203,116.504l0.159,23.628c0,0.199,6.392,0.36,6.591,0.36h2.004 c1.307,0,3.057-0.201,4.45-0.534c0.958-0.229,1.922-0.513,2.867-0.873c6.026-2.304,11.37-7.463,11.37-13.259v-9.529 c0-0.085-2.588-0.154-2.673-0.154h-18.459C240.312,116.144,234.203,116.305,234.203,116.504z"/>
        <path style="opacity:0.9619;fill:#515A7F;" d="M233.863,115.857l0.079,23.941c0,0.099,6.571,0.18,6.671,0.18h1.998 c1.362,0,2.985-0.202,4.434-0.557c0.954-0.233,1.912-0.528,2.852-0.893c6.026-2.34,11.406-7.402,11.406-13.17v-9.604 c0-0.042-2.659-0.077-2.701-0.077h-18.363C240.14,115.677,233.863,115.758,233.863,115.857z"/>
        <path style="fill:#515A7F;" d="M260.964,115.211h-27.441v24.253h8.742c8.049,0,18.698-6.525,18.698-14.574V115.211z"/>
      </g>
      <g id="Shadow_6_">
        <path style="opacity:0.01;fill:#515A7F;" d="M299.956,93.289h-20.764c-2.585,0-4.68,2.095-4.68,4.68l2.062,16.136 c0,2.585,2.095,4.68,4.68,4.68h6.985c1.103,0,2.175-0.13,3.203-0.376c6.028-1.443,10.51-8.928,10.51-15.399v-7.725 C301.953,94.182,301.059,93.289,299.956,93.289z"/>
        <path style="opacity:0.0481;fill:#515A7F;" d="M278.673,92.822c-2.485,0-4.5,2.305-4.5,4.79l1.983,16.159 c0,2.485,2.275,4.5,4.76,4.5h2.145c0.054,0,4.759-0.015,4.818-0.022c1.088-0.139,2.165-0.146,3.189-0.397 c6.028-1.478,10.546-8.867,10.546-15.31v-7.8c0-1.06-0.996-1.92-2.056-1.92H278.673z"/>
        <path style="opacity:0.0862;fill:#515A7F;" d="M278.153,92.356c-2.386,0-4.32,2.514-4.32,4.9l1.904,16.181 c0,2.386,2.453,4.32,4.84,4.32h2.139c0.109,0,4.683-0.029,4.802-0.045c1.082-0.143,2.154-0.162,3.175-0.417 c6.028-1.514,10.582-8.806,10.582-15.221v-7.875c0-1.018-1.098-1.843-2.116-1.843H278.153z"/>
        <path style="opacity:0.1242;fill:#515A7F;" d="M277.633,91.889c-2.287,0-4.14,2.723-4.14,5.01l1.824,16.203 c0,2.287,2.633,4.14,4.919,4.14h2.133c0.163,0,4.608-0.043,4.786-0.067c1.076-0.146,2.144-0.178,3.161-0.438 c6.028-1.55,10.617-8.745,10.617-15.131v-7.951c0-0.975-1.201-1.766-2.176-1.766H277.633z"/>
        <path style="opacity:0.1623;fill:#515A7F;" d="M277.113,91.423c-2.187,0-3.96,2.932-3.96,5.119l1.745,16.226 c0,2.187,2.812,3.96,4.999,3.96h2.127c0.218,0,4.534-0.056,4.77-0.089c1.069-0.15,2.133-0.194,3.147-0.459 c6.028-1.586,10.653-8.684,10.653-15.042v-8.026c0-0.933-1.303-1.689-2.236-1.689H277.113z"/>
        <path style="opacity:0.2004;fill:#515A7F;" d="M276.593,90.957c-2.088,0-3.78,3.141-3.78,5.229l1.666,16.248 c0,2.088,2.991,3.78,5.078,3.78h2.121c0.272,0,4.459-0.068,4.754-0.111c1.063-0.154,2.123-0.21,3.133-0.48 c6.028-1.622,10.689-8.623,10.689-14.953v-8.101c0-0.891-1.405-1.613-2.295-1.613H276.593z"/>
        <path style="opacity:0.2385;fill:#515A7F;" d="M276.073,90.49c-1.988,0-3.6,3.35-3.6,5.339l1.586,16.271 c0,1.988,3.17,3.6,5.158,3.6h2.115c0.327,0,4.384-0.081,4.738-0.133c1.057-0.158,2.112-0.226,3.119-0.5 c6.028-1.658,10.725-8.562,10.725-14.864v-8.176c0-0.848-1.507-1.536-2.355-1.536H276.073z"/>
        <path style="opacity:0.2765;fill:#515A7F;" d="M275.554,90.024c-1.889,0-3.42,3.56-3.42,5.448l1.507,16.293 c0,1.889,3.349,3.42,5.238,3.42h2.108c0.381,0,4.309-0.092,4.722-0.156c1.051-0.162,2.102-0.242,3.105-0.521 c6.028-1.694,10.761-8.501,10.761-14.775v-8.251c0-0.806-1.609-1.459-2.415-1.459H275.554z"/>
        <path style="opacity:0.3146;fill:#515A7F;" d="M275.034,89.557c-1.789,0-3.24,3.769-3.24,5.558l1.428,16.315 c0,1.789,3.528,3.24,5.317,3.24h2.102c0.436,0,4.234-0.103,4.706-0.178c1.045-0.166,2.091-0.258,3.091-0.542 c6.028-1.73,10.797-8.44,10.797-14.686v-8.326c0-0.763-1.711-1.382-2.475-1.382H275.034z"/>
        <path style="opacity:0.3527;fill:#515A7F;" d="M274.514,89.091c-1.69,0-3.06,3.978-3.06,5.668l1.348,16.338 c0,1.69,3.707,3.06,5.397,3.06h2.096c0.49,0,4.16-0.114,4.69-0.2c1.039-0.17,2.08-0.274,3.077-0.562 c6.028-1.766,10.833-8.379,10.833-14.597v-8.401c0-0.721-1.814-1.305-2.535-1.305H274.514z"/>
        <path style="opacity:0.3908;fill:#515A7F;" d="M273.994,88.625c-1.591,0-2.88,4.187-2.88,5.778l1.269,16.36 c0,1.591,3.886,2.88,5.476,2.88h2.09c0.545,0,4.085-0.124,4.674-0.223c1.033-0.173,2.07-0.289,3.063-0.583 c6.028-1.802,10.868-8.318,10.868-14.507v-8.477c0-0.679-1.916-1.229-2.595-1.229H273.994z"/>
        <path style="opacity:0.4288;fill:#515A7F;" d="M273.474,88.158c-1.491,0-2.7,4.396-2.7,5.887l1.19,16.383 c0,1.491,4.065,2.7,5.556,2.7h2.084c0.599,0,4.011-0.133,4.658-0.245c1.027-0.177,2.059-0.305,3.049-0.604 c6.027-1.838,10.904-8.257,10.904-14.418V89.31c0-0.636-2.018-1.152-2.654-1.152H273.474z"/>
        <path style="opacity:0.4669;fill:#515A7F;" d="M272.954,87.692c-1.392,0-2.52,4.605-2.52,5.997l1.11,16.405 c0,1.392,4.244,2.52,5.636,2.52h2.078c0.654,0,3.937-0.142,4.642-0.267c1.022-0.181,2.049-0.321,3.035-0.624 c6.027-1.873,10.94-8.196,10.94-14.329v-8.627c0-0.594-2.12-1.075-2.714-1.075H272.954z"/>
        <path style="opacity:0.505;fill:#515A7F;" d="M272.434,87.225c-1.292,0-2.34,4.815-2.34,6.107l1.031,16.428 c0,1.292,4.423,2.34,5.715,2.34h2.072c0.708,0,3.863-0.15,4.626-0.289c1.016-0.185,2.038-0.337,3.021-0.645 c6.027-1.909,10.976-8.135,10.976-14.24v-8.702c0-0.551-2.223-0.998-2.774-0.998H272.434z"/>
        <path style="opacity:0.5431;fill:#515A7F;" d="M271.914,86.759c-1.193,0-2.16,5.024-2.16,6.217l0.952,16.45 c0,1.193,4.602,2.16,5.795,2.16h2.066c0.763,0,3.789-0.158,4.61-0.312c1.011-0.189,2.028-0.353,3.007-0.666 c6.027-1.945,11.012-8.074,11.012-14.151V87.68c0-0.509-2.325-0.921-2.834-0.921H271.914z"/>
        <path style="opacity:0.5812;fill:#515A7F;" d="M271.395,86.293c-1.094,0-1.98,5.233-1.98,6.326l0.872,16.472 c0,1.094,4.781,1.98,5.875,1.98h2.059c0.817,0,3.715-0.165,4.594-0.334c1.005-0.193,2.017-0.369,2.993-0.687 c6.027-1.981,11.048-8.013,11.048-14.062v-8.852c0-0.466-2.427-0.845-2.894-0.845H271.395z"/>
        <path style="opacity:0.6192;fill:#515A7F;" d="M270.875,85.826c-0.994,0-1.8,5.442-1.8,6.436l0.793,16.495 c0,0.994,4.96,1.8,5.954,1.8h2.053c0.871,0,3.641-0.172,4.578-0.356c0.999-0.197,2.007-0.385,2.979-0.707 c6.027-2.017,11.083-7.952,11.083-13.973v-8.927c0-0.424-2.529-0.768-2.953-0.768H270.875z"/>
        <path style="opacity:0.6573;fill:#515A7F;" d="M270.355,85.36c-0.895,0-1.62,5.651-1.62,6.546l0.714,16.517 c0,0.895,5.139,1.62,6.034,1.62h2.047c0.926,0,3.568-0.177,4.562-0.378c0.994-0.201,1.996-0.401,2.965-0.728 c6.027-2.053,11.119-7.891,11.119-13.883v-9.003c0-0.382-2.632-0.691-3.013-0.691H270.355z"/>
        <path style="opacity:0.6954;fill:#515A7F;" d="M269.835,84.893c-0.795,0-1.44,5.86-1.44,6.656l0.634,16.54 c0,0.795,5.318,1.44,6.113,1.44h2.041c0.98,0,3.494-0.183,4.546-0.401c0.989-0.205,1.986-0.417,2.951-0.748 c6.027-2.089,11.155-7.829,11.155-13.794v-9.078c0-0.339-2.734-0.614-3.073-0.614H269.835z"/>
        <path style="opacity:0.7335;fill:#515A7F;" d="M269.315,84.427c-0.696,0-1.26,6.07-1.26,6.765l0.555,16.562 c0,0.696,5.497,1.26,6.193,1.26h2.035c1.035,0,3.421-0.187,4.53-0.423c0.983-0.209,1.975-0.433,2.937-0.769 c6.027-2.125,11.191-7.768,11.191-13.705v-9.153c0-0.297-2.836-0.537-3.133-0.537H269.315z"/>
        <path style="opacity:0.7715;fill:#515A7F;" d="M268.795,83.961c-0.596,0-1.08,6.279-1.08,6.875l0.476,16.585 c0,0.596,5.676,1.08,6.273,1.08h2.029c1.089,0,3.348-0.191,4.514-0.445c0.978-0.213,1.964-0.449,2.922-0.79 c6.027-2.161,11.227-7.707,11.227-13.616v-9.228c0-0.254-2.938-0.461-3.193-0.461H268.795z"/>
        <path style="opacity:0.8096;fill:#515A7F;" d="M268.275,83.494c-0.497,0-0.9,6.488-0.9,6.985l0.397,16.607 c0,0.497,5.855,0.9,6.352,0.9h2.023c1.144,0,3.275-0.195,4.498-0.467c0.973-0.217,1.954-0.465,2.909-0.811 c6.027-2.197,11.263-7.646,11.263-13.527v-9.303c0-0.212-3.04-0.384-3.253-0.384H268.275z"/>
        <path style="opacity:0.8477;fill:#515A7F;" d="M267.755,83.028c-0.398,0-0.72,6.697-0.72,7.095l0.317,16.629 c0,0.398,6.034,0.72,6.432,0.72h2.017c1.198,0,3.202-0.197,4.482-0.49c0.968-0.221,1.943-0.481,2.895-0.831 c6.027-2.232,11.299-7.585,11.299-13.438v-9.378c0-0.17-3.143-0.307-3.312-0.307H267.755z"/>
        <path style="opacity:0.8858;fill:#515A7F;" d="M267.235,82.561c-0.298,0-0.54,6.906-0.54,7.204l0.238,16.652 c0,0.298,6.213,0.54,6.511,0.54h2.01c1.253,0,3.129-0.2,4.466-0.512c0.963-0.225,1.933-0.497,2.88-0.852 c6.026-2.268,11.334-7.524,11.334-13.348v-9.453c0-0.127-3.245-0.23-3.372-0.23H267.235z"/>
        <path style="opacity:0.9238;fill:#515A7F;" d="M266.716,82.095c-0.199,0-0.36,7.115-0.36,7.314l0.159,16.674 c0,0.199,6.392,0.36,6.591,0.36h2.004c1.307,0,3.057-0.201,4.45-0.534c0.958-0.229,1.922-0.513,2.866-0.873 c6.026-2.304,11.37-7.463,11.37-13.259v-9.529c0-0.085-3.347-0.154-3.432-0.154H266.716z"/>
        <path style="opacity:0.9619;fill:#515A7F;" d="M266.196,81.629c-0.099,0-0.18,7.325-0.18,7.424l0.079,16.697 c0,0.099,6.571,0.18,6.671,0.18h1.998c1.362,0,2.985-0.202,4.434-0.556c0.954-0.233,1.912-0.529,2.852-0.893 c6.026-2.34,11.406-7.402,11.406-13.17v-9.604c0-0.042-3.449-0.077-3.492-0.077H266.196z"/>
        <path style="fill:#515A7F;" d="M293.116,81.162h-27.44v24.253h8.742c8.049,0,18.698-6.525,18.698-14.574V81.162z"/>
      </g>
      <g id="Shadow_7_">
        <path style="opacity:0.01;fill:#515A7F;" d="M233.326,84.363h-18.702c-2.585,0-4.68,2.095-4.68,4.68l2.062,22.323 c0,2.585,2.095,4.68,4.68,4.68h4.923c1.103,0,2.175-0.13,3.203-0.376c6.028-1.442,10.51-6.866,10.51-13.337V86.359 C235.322,85.257,234.428,84.363,233.326,84.363z"/>
        <path style="opacity:0.0481;fill:#515A7F;" d="M214.104,84.055c-2.485,0-4.5,2.284-4.5,4.769l1.983,22.287 c0,2.485,2.173,4.5,4.658,4.5h4.841c1.061,0,2.161-0.131,3.15-0.362c6.098-1.422,10.745-6.853,10.745-13.384V85.975 c0-1.06-0.999-1.92-2.059-1.92H214.104z"/>
        <path style="opacity:0.0862;fill:#515A7F;" d="M213.584,83.747c-2.386,0-4.32,2.472-4.32,4.858l1.904,22.251 c0,2.386,2.251,4.32,4.637,4.32h4.759c1.018,0,2.147-0.131,3.098-0.347c6.168-1.402,10.981-6.84,10.981-13.432V85.59 c0-1.018-1.104-1.843-2.122-1.843H213.584z"/>
        <path style="opacity:0.1242;fill:#515A7F;" d="M213.064,83.44c-2.286,0-4.14,2.66-4.14,4.947l1.824,22.215 c0,2.287,2.328,4.14,4.615,4.14h4.677c0.976,0,2.133-0.131,3.045-0.333c6.239-1.382,11.217-6.827,11.217-13.479V85.206 c0-0.975-1.209-1.766-2.184-1.766H213.064z"/>
        <path style="opacity:0.1623;fill:#515A7F;" d="M212.544,83.132c-2.187,0-3.96,2.848-3.96,5.036l1.745,22.179 c0,2.187,2.406,3.96,4.593,3.96h4.595c0.933,0,2.119-0.13,2.993-0.318c6.31-1.362,11.452-6.814,11.452-13.527v-15.64 c0-0.933-1.314-1.689-2.247-1.689H212.544z"/>
        <path style="opacity:0.2004;fill:#515A7F;" d="M212.025,82.824c-2.088,0-3.78,3.037-3.78,5.125l1.666,22.143 c0,2.088,2.484,3.78,4.571,3.78h4.513c0.891,0,2.105-0.128,2.94-0.304c6.382-1.342,11.688-6.801,11.688-13.575V84.437 c0-0.891-1.419-1.613-2.309-1.613H212.025z"/>
        <path style="opacity:0.2385;fill:#515A7F;" d="M211.505,82.516c-1.988,0-3.6,3.225-3.6,5.213l1.586,22.107 c0,1.988,2.561,3.6,4.55,3.6h4.431c0.848,0,2.091-0.126,2.887-0.289c6.455-1.322,11.924-6.787,11.924-13.622V84.052 c0-0.848-1.523-1.536-2.372-1.536H211.505z"/>
        <path style="opacity:0.2765;fill:#515A7F;" d="M210.985,82.209c-1.889,0-3.42,3.413-3.42,5.302l1.507,22.071 c0,1.889,2.639,3.42,4.528,3.42h4.349c0.806,0,2.078-0.124,2.835-0.275c6.528-1.302,12.159-6.774,12.159-13.67v-15.39 c0-0.806-1.629-1.459-2.434-1.459H210.985z"/>
        <path style="opacity:0.3146;fill:#515A7F;" d="M210.465,81.901c-1.789,0-3.24,3.601-3.24,5.391l1.428,22.035 c0,1.789,2.717,3.24,4.506,3.24h4.267c0.764,0,2.064-0.121,2.782-0.26c6.601-1.283,12.395-6.761,12.395-13.717V83.283 c0-0.763-1.734-1.382-2.497-1.382H210.465z"/>
        <path style="opacity:0.3527;fill:#515A7F;" d="M209.945,81.593c-1.69,0-3.06,3.79-3.06,5.48l1.348,21.999 c0,1.69,2.794,3.06,4.484,3.06h4.185c0.721,0,2.051-0.117,2.73-0.246c6.675-1.264,12.63-6.748,12.63-13.765V82.898 c0-0.721-1.838-1.305-2.559-1.305H209.945z"/>
        <path style="opacity:0.3908;fill:#515A7F;" d="M209.425,81.285c-1.591,0-2.88,3.978-2.88,5.569l1.269,21.963 c0,1.591,2.872,2.88,4.463,2.88h4.103c0.679,0,2.038-0.114,2.677-0.231c6.749-1.244,12.866-6.735,12.866-13.813V82.514 c0-0.679-1.943-1.229-2.622-1.229H209.425z"/>
        <path style="opacity:0.4288;fill:#515A7F;" d="M208.905,80.978c-1.491,0-2.7,4.166-2.7,5.658l1.19,21.927 c0,1.491,2.95,2.7,4.441,2.7h4.021c0.636,0,2.025-0.109,2.625-0.217c6.824-1.225,13.102-6.722,13.102-13.86V82.129 c0-0.636-2.048-1.152-2.684-1.152H208.905z"/>
        <path style="opacity:0.4669;fill:#515A7F;" d="M208.385,80.67c-1.392,0-2.52,4.355-2.52,5.746l1.11,21.891 c0,1.392,3.027,2.52,4.419,2.52h3.939c0.594,0,2.012-0.105,2.572-0.203c6.9-1.206,13.337-6.709,13.337-13.908V81.745 c0-0.594-2.153-1.075-2.747-1.075H208.385z"/>
        <path style="opacity:0.505;fill:#515A7F;" d="M207.865,80.362c-1.292,0-2.34,4.543-2.34,5.835l1.031,21.855 c0,1.292,3.105,2.34,4.397,2.34h3.857c0.552,0,1.999-0.099,2.52-0.188c6.975-1.187,13.573-6.696,13.573-13.955V81.36 c0-0.551-2.258-0.998-2.809-0.998H207.865z"/>
        <path style="opacity:0.5431;fill:#515A7F;" d="M207.346,80.054c-1.193,0-2.16,4.731-2.16,5.924l0.952,21.819 c0,1.193,3.183,2.16,4.376,2.16h3.775c0.509,0,1.986-0.094,2.467-0.174c7.051-1.168,13.809-6.682,13.809-14.003V80.976 c0-0.509-2.363-0.921-2.872-0.921H207.346z"/>
        <path style="opacity:0.5812;fill:#515A7F;" d="M206.826,79.746c-1.094,0-1.98,4.919-1.98,6.013l0.872,21.783 c0,1.094,3.26,1.98,4.354,1.98h3.693c0.467,0,1.973-0.088,2.414-0.159c7.128-1.148,14.044-6.669,14.044-14.05V80.591 c0-0.466-2.468-0.845-2.935-0.845H206.826z"/>
        <path style="opacity:0.6192;fill:#515A7F;" d="M206.306,79.439c-0.994,0-1.8,5.108-1.8,6.102l0.793,21.747 c0,0.994,3.338,1.8,4.332,1.8h3.611c0.424,0,1.96-0.082,2.362-0.145c7.205-1.13,14.28-6.656,14.28-14.098V80.206 c0-0.424-2.573-0.768-2.997-0.768H206.306z"/>
        <path style="opacity:0.6573;fill:#515A7F;" d="M205.786,79.131c-0.895,0-1.62,5.296-1.62,6.191l0.714,21.711 c0,0.895,3.416,1.62,4.31,1.62h3.529c0.382,0,1.948-0.075,2.309-0.13c7.282-1.111,14.515-6.643,14.515-14.146V79.822 c0-0.382-2.678-0.691-3.06-0.691H205.786z"/>
        <path style="opacity:0.6954;fill:#515A7F;" d="M205.266,78.823c-0.795,0-1.44,5.484-1.44,6.28l0.635,21.675 c0,0.795,3.493,1.44,4.288,1.44h3.447c0.339,0,1.935-0.068,2.257-0.116c7.36-1.092,14.751-6.63,14.751-14.193V79.437 c0-0.339-2.783-0.614-3.122-0.614H205.266z"/>
        <path style="opacity:0.7335;fill:#515A7F;" d="M204.746,78.515c-0.696,0-1.26,5.673-1.26,6.368l0.555,21.639 c0,0.696,3.571,1.26,4.267,1.26h3.365c0.297,0,1.923-0.061,2.204-0.101c7.438-1.073,14.987-6.617,14.987-14.241V79.053 c0-0.297-2.888-0.538-3.185-0.538H204.746z"/>
        <path style="opacity:0.7715;fill:#515A7F;" d="M204.226,78.208c-0.596,0-1.08,5.861-1.08,6.457l0.476,21.603 c0,0.596,3.648,1.08,4.245,1.08h3.284c0.255,0,1.91-0.053,2.152-0.087c7.516-1.054,15.222-6.604,15.222-14.288V78.668 c0-0.254-2.993-0.461-3.247-0.461H204.226z"/>
        <path style="opacity:0.8096;fill:#515A7F;" d="M203.706,77.9c-0.497,0-0.9,6.049-0.9,6.546l0.397,21.567 c0,0.497,3.726,0.9,4.223,0.9h3.202c0.212,0,1.898-0.045,2.099-0.072c7.595-1.036,15.458-6.59,15.458-14.336V78.284 c0-0.212-3.098-0.384-3.31-0.384H203.706z"/>
        <path style="opacity:0.8477;fill:#515A7F;" d="M203.187,77.592c-0.398,0-0.72,6.237-0.72,6.635l0.317,21.531 c0,0.398,3.804,0.72,4.201,0.72h3.12c0.17,0,1.885-0.036,2.046-0.058c7.674-1.017,15.693-6.577,15.693-14.383V77.899 c0-0.17-3.203-0.307-3.372-0.307H203.187z"/>
        <path style="opacity:0.8858;fill:#515A7F;" d="M202.667,77.284c-0.298,0-0.54,6.425-0.54,6.724l0.238,21.495 c0,0.298,3.882,0.54,4.18,0.54h3.038c0.127,0,1.873-0.028,1.994-0.043c7.754-0.999,15.929-6.564,15.929-14.431V77.515 c0-0.127-3.308-0.23-3.435-0.23H202.667z"/>
        <path style="opacity:0.9238;fill:#515A7F;" d="M202.147,76.977c-0.199,0-0.36,6.614-0.36,6.813l0.159,21.459 c0,0.199,3.959,0.36,4.158,0.36h2.956c0.085,0,1.861-0.019,1.941-0.029c7.833-0.98,16.165-6.551,16.165-14.479V77.13 c0-0.085-3.413-0.154-3.498-0.154H202.147z"/>
        <path style="opacity:0.9619;fill:#515A7F;" d="M201.627,76.669c-0.099,0-0.18,6.802-0.18,6.901l0.079,21.423 c0,0.099,4.037,0.18,4.136,0.18h2.874c0.042,0,1.848-0.009,1.889-0.014c7.913-0.962,16.4-6.538,16.4-14.526V76.745 c0-0.042-3.518-0.077-3.56-0.077H201.627z"/>
        <path style="fill:#515A7F;" d="M226.485,76.361h-25.378v28.377h8.742c8.049,0,16.636-6.525,16.636-14.574V76.361z"/>
      </g>
      <g id="Shadow_8_">
        <circle style="opacity:0.01;fill:#515A7F;" cx="258.077" cy="105.36" r="9.205"/>
        <ellipse transform="matrix(0.9248 -0.3805 0.3805 0.9248 -20.493 105.8938)" style="opacity:0.0481;fill:#515A7F;" cx="257.554" cy="104.773" rx="9.205" ry="9.205"/>
        <circle style="opacity:0.0862;fill:#515A7F;" cx="257.032" cy="104.186" r="9.205"/>
        <ellipse transform="matrix(0.2307 -0.973 0.973 0.2307 96.5382 329.295)" style="opacity:0.1242;fill:#515A7F;" cx="256.51" cy="103.598" rx="9.205" ry="9.205"/>
        <ellipse transform="matrix(0.1631 -0.9866 0.9866 0.1631 112.6097 338.7731)" style="opacity:0.1623;fill:#515A7F;" cx="255.988" cy="103.011" rx="9.205" ry="9.205"/>
        <circle style="opacity:0.2004;fill:#515A7F;" cx="255.466" cy="102.424" r="9.205"/>
        <ellipse transform="matrix(0.2288 -0.9735 0.9735 0.2288 97.4658 326.709)" style="opacity:0.2385;fill:#515A7F;" cx="254.944" cy="101.837" rx="9.205" ry="9.205"/>
        <circle style="opacity:0.2765;fill:#515A7F;" cx="254.421" cy="101.249" r="9.205"/>
        <ellipse transform="matrix(0.2502 -0.9682 0.9682 0.2502 92.9032 321.2928)" style="opacity:0.3146;fill:#515A7F;" cx="253.899" cy="100.662" rx="9.205" ry="9.205"/>
        <circle style="opacity:0.3527;fill:#515A7F;" cx="253.377" cy="100.075" r="9.205"/>
        <ellipse transform="matrix(0.9248 -0.3805 0.3805 0.9248 -18.8353 103.7077)" style="opacity:0.3908;fill:#515A7F;" cx="252.855" cy="99.488" rx="9.205" ry="9.205"/>
        <ellipse transform="matrix(0.2288 -0.9735 0.9735 0.2288 98.3107 321.9031)" style="opacity:0.4288;fill:#515A7F;" cx="252.333" cy="98.9" rx="9.205" ry="9.205"/>
        <circle style="opacity:0.4669;fill:#515A7F;" cx="251.81" cy="98.313" r="9.205"/>
        <ellipse transform="matrix(0.1597 -0.9872 0.9872 0.1597 114.6803 330.1788)" style="opacity:0.505;fill:#515A7F;" cx="251.288" cy="97.726" rx="9.205" ry="9.205"/>
        <circle style="opacity:0.5431;fill:#515A7F;" cx="250.766" cy="97.139" r="9.205"/>
        <ellipse transform="matrix(0.7071 -0.7071 0.7071 0.7071 5.0226 205.2284)" style="opacity:0.5812;fill:#515A7F;" cx="250.244" cy="96.551" rx="9.205" ry="9.205"/>
        <circle style="opacity:0.6192;fill:#515A7F;" cx="249.722" cy="95.964" r="9.205"/>
        <ellipse transform="matrix(0.2307 -0.973 0.973 0.2307 98.9136 315.8566)" style="opacity:0.6573;fill:#515A7F;" cx="249.2" cy="95.377" rx="9.205" ry="9.205"/>
        <ellipse transform="matrix(0.1597 -0.9872 0.9872 0.1597 115.3849 325.1342)" style="opacity:0.6954;fill:#515A7F;" cx="248.677" cy="94.79" rx="9.205" ry="9.205"/>
        <circle style="opacity:0.7335;fill:#515A7F;" cx="248.155" cy="94.202" r="9.205"/>
        <ellipse transform="matrix(0.2416 -0.9704 0.9704 0.2416 96.9739 311.3024)" style="opacity:0.7715;fill:#515A7F;" cx="247.633" cy="93.615" rx="9.205" ry="9.205"/>
        <circle style="opacity:0.8096;fill:#515A7F;" cx="247.111" cy="93.028" r="9.205"/>
        <ellipse transform="matrix(0.9248 -0.3805 0.3805 0.9248 -16.6251 100.793)" style="opacity:0.8477;fill:#515A7F;" cx="246.589" cy="92.441" rx="9.205" ry="9.205"/>
        <circle style="opacity:0.8858;fill:#515A7F;" cx="246.066" cy="91.853" r="9.205"/>
        <ellipse transform="matrix(0.7071 -0.7071 0.7071 0.7071 7.3833 200.3573)" style="opacity:0.9238;fill:#515A7F;" cx="245.544" cy="91.266" rx="9.205" ry="9.205"/>
        <ellipse transform="matrix(0.2127 -0.9771 0.9771 0.2127 104.3007 310.8062)" style="opacity:0.9619;fill:#515A7F;" cx="245.022" cy="90.679" rx="9.205" ry="9.205"/>
        <circle style="fill:#515A7F;" cx="244.5" cy="90.092" r="9.205"/>
      </g>
    </g>
    <g id="Table_1_">
      <g>
        <path style="fill:#66301D;" d="M261.348,60.561c0,9.302-7.541,14.503-16.843,14.503c-9.302,0-16.843-5.201-16.843-14.503 c0-9.302,7.541-19.182,16.843-19.182C253.808,41.379,261.348,51.259,261.348,60.561z"/>
        <path style="fill:#BF5F3D;" d="M260.27,60.561c0,8.706-7.058,13.424-15.764,13.424c-8.706,0-15.764-4.718-15.764-13.424 c0-8.706,7.058-18.103,15.764-18.103C253.212,42.458,260.27,51.855,260.27,60.561z"/>
        <path style="fill:#FFC3AD;" d="M244.506,73.254c-8.583,0-15.549-4.593-15.745-13.064c-0.003,0.124-0.018,0.248-0.018,0.372 c0,8.706,7.058,13.424,15.764,13.424c8.706,0,15.764-4.718,15.764-13.424c0-0.124-0.016-0.248-0.018-0.372 C260.055,68.66,253.088,73.254,244.506,73.254z"/>
        <path style="fill:#E0C7B1;" d="M232.274,52.115c-0.985,1.927-1.531,6.453-1.493,8.776c0.118,7.231,6.053,10.948,13.281,11.2 c7.832,0.273,14.268-3.656,14.268-11.427c0-2.219-0.533-6.648-1.47-8.5c-0.632-1.249-1.849-2.118-3.24-2.278 c-6.041-0.697-12.085-0.697-18.132,0C234.116,50.044,232.902,50.886,232.274,52.115z"/>
        <path style="fill:#FEFBF1;" d="M233.631,53.067c-0.876,1.715-1.362,6.06-1.328,8.126c0.105,6.432,5.385,9.418,11.813,9.642 c6.967,0.243,12.691-2.932,12.691-9.844c0-1.974-0.474-6.233-1.308-7.881c-0.562-1.111-1.645-1.884-2.882-2.026 c-5.373-0.62-10.75-0.62-16.129,0C235.269,51.225,234.19,51.974,233.631,53.067z"/>
        <path style="fill:#994726;" d="M244.5,36.148c13.058,0,18.395,1.546,18.395,1.546l-6.074,10.691c0,0-0.41-0.152-12.321-0.152 c-11.911,0-12.45,0.329-12.45,0.329l-5.935-10.852C226.116,37.71,231.442,36.148,244.5,36.148z"/>
        <path style="fill:#BF5F3D;" d="M244.5,32.662c9.697,0,15.144,1.121,17.16,1.642c0.534,0.138,0.943,0.613,1.011,1.16l0.305,1.956 c0,0.331-0.312,0.569-0.631,0.48c-1.765-0.491-7.326-1.753-17.845-1.753c-10.52,0-16.081,1.262-17.845,1.753 c-0.319,0.089-0.631-0.149-0.631-0.48l0.305-1.956c0.068-0.548,0.477-1.022,1.011-1.16 C229.356,33.782,234.802,32.662,244.5,32.662z"/>
        <path style="fill:#E0C7B1;" d="M228.528,39.047c0.031-0.249,0.208-0.453,0.451-0.514c1.985-0.497,6.911-1.45,15.521-1.45 c8.61,0,13.536,0.953,15.521,1.45c0.243,0.061,0.42,0.265,0.451,0.514l0.066,0.526c0.015,0.123-0.007,0.248-0.065,0.358 l-3.478,6.641c-0.383,0.693-1.465,0.813-12.495,0.813c-11.03,0-12.112-0.119-12.495-0.813l-3.478-6.641 c-0.058-0.11-0.08-0.235-0.065-0.358L228.528,39.047z"/>
        <path style="fill:#FEFBF1;" d="M260.021,39.887c-1.985-0.497-6.911-1.45-15.521-1.45c-8.61,0-13.536,0.953-15.521,1.45 c-0.149,0.037-0.258,0.139-0.338,0.261l-0.114-0.217c-0.058-0.11-0.08-0.235-0.065-0.358l0.066-0.526 c0.031-0.249,0.208-0.453,0.451-0.514c1.985-0.497,6.911-1.45,15.521-1.45c8.61,0,13.536,0.953,15.521,1.45 c0.243,0.061,0.42,0.265,0.451,0.514l0.066,0.526c0.015,0.123-0.007,0.248-0.065,0.358l-0.114,0.217 C260.278,40.025,260.17,39.924,260.021,39.887z"/>
        <path style="fill:#FEFBF1;" d="M230.999,41.771c3.383-0.069,6.763-0.254,10.133-0.555c-4.016,0.142-3.806-1.094-5.217-1.112 C234.777,40.089,235.33,41.391,230.999,41.771z"/>
        <path style="fill:#FEFBF1;" d="M247.106,41.257c3.372,0.273,6.754,0.43,10.138,0.472c-4.01-0.265-3.676-1.473-5.078-1.633 C251.035,39.965,251.454,41.317,247.106,41.257z"/>
        <path style="fill:#FEFBF1;" d="M234.975,45.969c2.65,0.234,5.308,0.378,7.967,0.43c-3.151-0.232-2.881-1.179-3.983-1.314 C238.071,44.977,238.392,46.042,234.975,45.969z"/>
        <path style="fill:#FEFBF1;" d="M245.733,46.345c2.66-0.016,5.32-0.122,7.972-0.32c-3.158,0.065-2.979-0.903-4.089-0.934 C248.723,45.066,249.142,46.096,245.733,46.345z"/>
        <path style="fill:#FEFBF1;" d="M239.559,43.82c3.202,0.083,6.406,0.057,9.606-0.078c-3.803-0.043-3.55-1.202-4.884-1.281 C243.206,42.396,243.671,43.652,239.559,43.82z"/>
        <path style="fill:#FFC3AD;" d="M227.591,34.51c1.045,0.636,0.682,1.817,0.045,2.635c0,0,2.726-1.09,12.858-1.318 c10.132-0.227,14.266-0.091,21.353,1.545c0,0-1.908-1.59-0.409-2.59c0,0-1-0.409-2.181-0.591c0,0,1.864,1.508,0.363,1.908 c-0.424,0.113-3.037-0.582-5.486-0.824c-5.916-0.583-14.602-0.605-19.645,0.076c-5.043,0.681-5.242,0.596-5.333,0.278 c-0.091-0.318-0.857-0.927,0.551-1.563L227.591,34.51z"/>
      </g>
      <g>
        <path style="fill:#66301D;" d="M261.348,119.622c0-9.302-7.541-14.503-16.843-14.503c-9.302,0-16.843,5.201-16.843,14.503 c0,9.302,7.541,19.182,16.843,19.182C253.808,138.804,261.348,128.924,261.348,119.622z"/>
        <path style="fill:#BF5F3D;" d="M260.27,119.622c0-8.706-7.058-13.424-15.764-13.424c-8.706,0-15.764,4.718-15.764,13.424 c0,8.706,7.058,18.103,15.764,18.103C253.212,137.725,260.27,128.328,260.27,119.622z"/>
        <path style="fill:#FFC3AD;" d="M244.506,106.93c-8.583,0-15.549,4.593-15.745,13.064c-0.003-0.124-0.018-0.249-0.018-0.372 c0-8.706,7.058-13.424,15.764-13.424c8.706,0,15.764,4.718,15.764,13.424c0,0.123-0.016,0.248-0.018,0.372 C260.055,111.523,253.088,106.93,244.506,106.93z"/>
        <path style="fill:#E0C7B1;" d="M232.274,128.068c-0.985-1.927-1.531-6.453-1.493-8.776c0.118-7.231,6.053-10.948,13.281-11.2 c7.832-0.273,14.268,3.656,14.268,11.427c0,2.219-0.533,6.648-1.47,8.5c-0.632,1.249-1.849,2.118-3.24,2.278 c-6.041,0.697-12.085,0.697-18.132,0C234.116,130.139,232.902,129.297,232.274,128.068z"/>
        <path style="fill:#FEFBF1;" d="M233.631,127.116c-0.876-1.715-1.362-6.06-1.328-8.126c0.105-6.432,5.385-9.418,11.813-9.642 c6.967-0.243,12.691,2.932,12.691,9.844c0,1.974-0.474,6.233-1.308,7.881c-0.562,1.111-1.645,1.884-2.882,2.026 c-5.373,0.62-10.75,0.62-16.129,0C235.269,128.958,234.19,128.21,233.631,127.116z"/>
        <path style="fill:#994726;" d="M244.5,144.036c13.058,0,18.395-1.546,18.395-1.546l-6.074-10.692c0,0-0.41,0.152-12.321,0.152 c-11.911,0-12.45-0.329-12.45-0.329l-5.935,10.852C226.116,142.473,231.442,144.036,244.5,144.036z"/>
        <path style="fill:#BF5F3D;" d="M244.5,147.522c9.697,0,15.144-1.121,17.16-1.642c0.534-0.138,0.943-0.613,1.011-1.16l0.305-1.956 c0-0.331-0.312-0.569-0.631-0.48c-1.765,0.491-7.326,1.753-17.845,1.753c-10.52,0-16.081-1.262-17.845-1.753 c-0.319-0.089-0.631,0.149-0.631,0.48l0.305,1.956c0.068,0.548,0.477,1.022,1.011,1.16 C229.356,146.401,234.802,147.522,244.5,147.522z"/>
        <path style="fill:#E0C7B1;" d="M228.528,141.137c0.031,0.249,0.208,0.453,0.451,0.514c1.985,0.497,6.911,1.45,15.521,1.45 c8.61,0,13.536-0.953,15.521-1.45c0.243-0.061,0.42-0.265,0.451-0.514l0.066-0.526c0.015-0.123-0.007-0.248-0.065-0.358 l-3.478-6.641c-0.383-0.693-1.465-0.813-12.495-0.813c-11.03,0-12.112,0.12-12.495,0.813l-3.478,6.641 c-0.058,0.11-0.08,0.235-0.065,0.358L228.528,141.137z"/>
        <path style="fill:#FEFBF1;" d="M260.021,140.297c-1.985,0.497-6.911,1.45-15.521,1.45c-8.61,0-13.536-0.953-15.521-1.45 c-0.149-0.037-0.258-0.139-0.338-0.261l-0.114,0.217c-0.058,0.11-0.08,0.235-0.065,0.358l0.066,0.526 c0.031,0.249,0.208,0.453,0.451,0.514c1.985,0.497,6.911,1.45,15.521,1.45c8.61,0,13.536-0.953,15.521-1.45 c0.243-0.061,0.42-0.265,0.451-0.514l0.066-0.526c0.015-0.123-0.007-0.248-0.065-0.358l-0.114-0.217 C260.278,140.158,260.17,140.259,260.021,140.297z"/>
        <path style="fill:#FEFBF1;" d="M230.999,138.413c3.383,0.069,6.763,0.254,10.133,0.555c-4.016-0.142-3.806,1.094-5.217,1.112 C234.777,140.095,235.33,138.792,230.999,138.413z"/>
        <path style="fill:#FEFBF1;" d="M247.106,138.926c3.372-0.273,6.754-0.43,10.138-0.471c-4.01,0.265-3.676,1.473-5.078,1.633 C251.035,140.218,251.454,138.866,247.106,138.926z"/>
        <path style="fill:#FEFBF1;" d="M234.975,134.214c2.65-0.234,5.308-0.378,7.967-0.43c-3.151,0.232-2.881,1.179-3.983,1.314 C238.071,135.207,238.392,134.141,234.975,134.214z"/>
        <path style="fill:#FEFBF1;" d="M245.733,133.839c2.66,0.016,5.32,0.122,7.972,0.32c-3.158-0.065-2.979,0.904-4.089,0.934 C248.723,135.117,249.142,134.087,245.733,133.839z"/>
        <path style="fill:#FEFBF1;" d="M239.559,136.363c3.202-0.083,6.406-0.057,9.606,0.078c-3.803,0.043-3.55,1.202-4.884,1.281 C243.206,137.787,243.671,136.531,239.559,136.363z"/>
        <path style="fill:#FFC3AD;" d="M227.591,145.673c1.045-0.636,0.682-1.817,0.045-2.635c0,0,2.726,1.09,12.858,1.318 c10.132,0.227,14.266,0.091,21.353-1.545c0,0-1.908,1.59-0.409,2.59c0,0-1,0.409-2.181,0.591c0,0,1.864-1.508,0.363-1.908 c-0.424-0.113-3.037,0.582-5.486,0.824c-5.916,0.583-14.602,0.605-19.645-0.076c-5.043-0.682-5.242-0.596-5.333-0.278 c-0.091,0.318-0.857,0.927,0.551,1.564L227.591,145.673z"/>
      </g>
      <g id="Chair_S_2_">
        <path style="fill:#BF5F3D;" d="M287.948,76.507c0.58,0.079,1.052,0.496,1.193,1.065c0.408,1.653,1.155,5.62,1.155,12.52 s-0.747,10.867-1.155,12.52c-0.14,0.568-0.613,0.986-1.193,1.065c-5.361,0.728-17.63,0.71-23.082-0.005 c-0.583-0.076-1.059-0.495-1.2-1.066c-0.409-1.657-1.153-5.623-1.153-12.514c0-6.891,0.745-10.857,1.153-12.514 c0.141-0.571,0.617-0.989,1.2-1.066C270.317,75.797,282.587,75.778,287.948,76.507z"/>
        <path style="fill:#FFC3AD;" d="M265.62,103.674c-0.583-0.076-1.059-0.495-1.2-1.066c-0.409-1.658-1.154-5.624-1.154-12.517 c0-6.893,0.745-10.859,1.154-12.517c0.141-0.571,0.617-0.989,1.2-1.066c2.59-0.34,6.719-0.52,10.914-0.54 c-4.45,0.001-8.924,0.184-11.669,0.544c-0.583,0.076-1.059,0.495-1.2,1.066c-0.409,1.657-1.153,5.623-1.153,12.514 c0,6.891,0.745,10.857,1.153,12.514c0.141,0.571,0.617,0.989,1.2,1.066c2.747,0.36,7.225,0.543,11.678,0.544 C272.345,104.195,268.212,104.014,265.62,103.674z"/>
        <path style="fill:#E0C7B1;" d="M285.056,78.431c0.373,0.054,0.673,0.325,0.768,0.69c0.336,1.287,0.55,4.739,0.55,10.97 c0,6.232-0.214,9.683-0.55,10.971c-0.095,0.364-0.395,0.635-0.768,0.69c-4.559,0.666-14.135,0.649-18.781-0.004 c-0.375-0.053-0.678-0.324-0.774-0.691c-0.336-1.291-1.043-4.741-1.043-10.966c0-6.224,0.706-9.675,1.043-10.966 c0.096-0.367,0.399-0.638,0.774-0.691C270.92,77.782,280.496,77.765,285.056,78.431z"/>
        <path style="fill:#FEFBF1;" d="M284.062,79.657c0.333,0.049,0.602,0.291,0.687,0.617c0.301,1.152,0.492,4.24,0.492,9.817 c0,5.577-0.191,8.665-0.492,9.817c-0.085,0.326-0.354,0.569-0.687,0.617c-4.08,0.596-12.69,0.581-16.846-0.003 c-0.336-0.047-0.607-0.29-0.693-0.618c-0.301-1.155-0.933-4.243-0.933-9.813s0.632-8.658,0.933-9.813 c0.086-0.328,0.357-0.571,0.693-0.618C271.373,79.076,279.982,79.061,284.062,79.657z"/>
        <path style="fill:#994726;" d="M263.666,77.578c-0.409,1.657-1.153,5.623-1.153,12.514c0,6.891,0.745,10.857,1.153,12.514 c0.063,0.254,0.2,0.471,0.376,0.648l-0.682,0.755c-0.19-0.188-0.337-0.421-0.404-0.694c-0.432-1.751-1.219-5.941-1.219-13.223 s0.787-11.472,1.219-13.223c0.053-0.216,0.164-0.4,0.297-0.565l0.681,0.756C263.814,77.212,263.714,77.381,263.666,77.578z"/>
        <path style="fill:#66301D;" d="M264.041,103.254c0.219,0.22,0.501,0.375,0.824,0.417c5.452,0.715,17.721,0.734,23.082,0.005 c0.58-0.079,1.052-0.496,1.193-1.065c0.408-1.653,1.155-5.62,1.155-12.52s-0.747-10.867-1.155-12.52 c-0.14-0.568-0.613-0.986-1.193-1.065c-5.361-0.728-17.63-0.71-23.082,0.005c-0.382,0.05-0.707,0.257-0.933,0.547l-0.681-0.756 c0.239-0.297,0.576-0.509,0.971-0.561c5.761-0.756,18.704-0.775,24.368-0.006c0.613,0.083,1.112,0.524,1.26,1.125 c0.431,1.747,1.22,5.939,1.22,13.23s-0.789,11.483-1.22,13.23c-0.148,0.601-0.647,1.042-1.26,1.125 c-5.665,0.77-18.608,0.75-24.368-0.006c-0.337-0.044-0.633-0.204-0.863-0.432L264.041,103.254z"/>
        <path style="fill:#994726;" d="M298.191,90.092c0,13.058-1.546,18.396-1.546,18.396l-8.778-4.799c0,0,1.948-1.685,1.948-13.596 c0-11.911-1.948-13.596-1.948-13.596l8.762-4.788C296.628,71.707,298.191,77.034,298.191,90.092z"/>
        <path style="fill:#E0C7B1;" d="M295.292,74.12c0.249,0.031,0.453,0.208,0.514,0.451c0.497,1.985,1.45,6.911,1.45,15.521 s-0.953,13.536-1.45,15.521c-0.061,0.243-0.265,0.42-0.514,0.451l-0.526,0.066c-0.123,0.015-0.248-0.007-0.358-0.065 l-6.641-3.478c-0.693-0.383-0.813-1.465-0.813-12.495s0.119-12.112,0.813-12.495l6.641-3.478c0.11-0.058,0.235-0.08,0.358-0.065 L295.292,74.12z"/>
        <path style="fill:#FEFBF1;" d="M294.452,105.613c0.497-1.985,1.45-6.911,1.45-15.521s-0.953-13.536-1.45-15.521 c-0.037-0.149-0.139-0.257-0.261-0.338l0.217-0.114c0.11-0.058,0.235-0.08,0.358-0.065l0.526,0.066 c0.249,0.031,0.453,0.208,0.514,0.451c0.497,1.985,1.45,6.911,1.45,15.521s-0.953,13.536-1.45,15.521 c-0.061,0.243-0.265,0.42-0.514,0.451l-0.526,0.066c-0.123,0.015-0.248-0.007-0.358-0.065l-0.217-0.114 C294.313,105.87,294.415,105.762,294.452,105.613z"/>
        <path style="fill:#FEFBF1;" d="M292.568,76.59c0.069,3.383,0.254,6.763,0.555,10.133c-0.142-4.016,1.094-3.806,1.112-5.217 C294.25,80.369,292.947,80.922,292.568,76.59z"/>
        <path style="fill:#FEFBF1;" d="M293.082,92.698c-0.273,3.372-0.43,6.754-0.471,10.138c0.265-4.01,1.473-3.676,1.633-5.078 C294.373,96.627,293.021,97.045,293.082,92.698z"/>
        <path style="fill:#FEFBF1;" d="M288.37,80.566c-0.234,2.65-0.378,5.308-0.43,7.967c0.232-3.151,1.179-2.881,1.314-3.983 C289.362,83.663,288.297,83.984,288.37,80.566z"/>
        <path style="fill:#FEFBF1;" d="M287.994,91.325c0.016,2.66,0.122,5.32,0.32,7.972c-0.065-3.159,0.904-2.979,0.934-4.089 C289.273,94.314,288.242,94.734,287.994,91.325z"/>
        <path style="fill:#FEFBF1;" d="M290.519,85.15c-0.083,3.202-0.057,6.406,0.078,9.606c0.043-3.803,1.202-3.55,1.281-4.884 C291.943,88.797,290.686,89.263,290.519,85.15z"/>
        <path style="fill:#BF5F3D;" d="M301.656,90.079c0,9.697-1.121,15.144-1.642,17.16c-0.138,0.534-0.613,0.942-1.16,1.01 l-1.956,0.305c-0.331,0-0.569-0.312-0.48-0.631c0.491-1.765,1.753-7.326,1.753-17.845s-1.262-16.081-1.753-17.845 c-0.089-0.319,0.149-0.631,0.48-0.631l1.956,0.305c0.547,0.068,1.022,0.477,1.16,1.01 C300.536,74.935,301.656,80.382,301.656,90.079z"/>
        <path style="fill:#FFC3AD;" d="M299.807,73.171c-0.636,1.045-1.817,0.682-2.635,0.045c0,0,1.223,3.195,1.45,13.326 c0.227,10.132-0.042,13.797-1.677,20.885c0,0,1.59-1.908,2.59-0.409c0,0,0.409-1,0.591-2.181c0,0-1.508,1.864-1.908,0.364 c-0.113-0.425,0.582-3.037,0.824-5.486c0.583-5.916,0.605-14.602-0.076-19.645c-0.682-5.043-0.596-5.242-0.278-5.333 c0.318-0.091,0.927-0.857,1.564,0.551L299.807,73.171z"/>
      </g>
      <g id="Chair_S_1_">
        <path style="fill:#BF5F3D;" d="M201.052,76.507c-0.58,0.079-1.052,0.496-1.193,1.065c-0.408,1.653-1.155,5.62-1.155,12.52 s0.747,10.867,1.155,12.52c0.14,0.568,0.613,0.986,1.193,1.065c5.361,0.728,17.63,0.71,23.082-0.005 c0.583-0.076,1.059-0.495,1.2-1.066c0.409-1.657,1.153-5.623,1.153-12.514c0-6.891-0.745-10.857-1.153-12.514 c-0.141-0.571-0.617-0.989-1.2-1.066C218.683,75.797,206.413,75.778,201.052,76.507z"/>
        <path style="fill:#FFC3AD;" d="M223.38,103.674c0.583-0.076,1.059-0.495,1.2-1.066c0.409-1.658,1.154-5.624,1.154-12.517 c0-6.893-0.745-10.859-1.154-12.517c-0.141-0.571-0.617-0.989-1.2-1.066c-2.59-0.34-6.719-0.52-10.914-0.54 c4.45,0.001,8.924,0.184,11.669,0.544c0.583,0.076,1.059,0.495,1.2,1.066c0.409,1.657,1.153,5.623,1.153,12.514 c0,6.891-0.745,10.857-1.153,12.514c-0.141,0.571-0.617,0.989-1.2,1.066c-2.747,0.36-7.225,0.543-11.678,0.544 C216.655,104.195,220.788,104.014,223.38,103.674z"/>
        <path style="fill:#E0C7B1;" d="M203.944,78.431c-0.373,0.054-0.673,0.325-0.768,0.69c-0.336,1.287-0.55,4.739-0.55,10.97 c0,6.232,0.214,9.683,0.55,10.971c0.095,0.364,0.395,0.635,0.768,0.69c4.559,0.666,14.135,0.649,18.781-0.004 c0.375-0.053,0.678-0.324,0.774-0.691c0.337-1.291,1.043-4.741,1.043-10.966c0-6.224-0.706-9.675-1.043-10.966 c-0.096-0.367-0.399-0.638-0.774-0.691C218.08,77.782,208.504,77.765,203.944,78.431z"/>
        <path style="fill:#FEFBF1;" d="M204.938,79.657c-0.334,0.049-0.602,0.291-0.687,0.617c-0.301,1.152-0.492,4.24-0.492,9.817 c0,5.577,0.191,8.665,0.492,9.817c0.085,0.326,0.354,0.569,0.687,0.617c4.08,0.596,12.689,0.581,16.847-0.003 c0.336-0.047,0.607-0.29,0.692-0.618c0.301-1.155,0.933-4.243,0.933-9.813s-0.632-8.658-0.933-9.813 c-0.085-0.328-0.357-0.571-0.692-0.618C217.627,79.076,209.018,79.061,204.938,79.657z"/>
        <path style="fill:#994726;" d="M225.334,77.578c0.409,1.657,1.153,5.623,1.153,12.514c0,6.891-0.745,10.857-1.153,12.514 c-0.063,0.254-0.2,0.471-0.376,0.648l0.682,0.755c0.19-0.188,0.337-0.421,0.404-0.694c0.432-1.751,1.219-5.941,1.219-13.223 s-0.787-11.472-1.219-13.223c-0.053-0.216-0.164-0.4-0.296-0.565l-0.682,0.756C225.186,77.212,225.286,77.381,225.334,77.578z"/>
        <path style="fill:#66301D;" d="M224.959,103.254c-0.218,0.22-0.501,0.375-0.824,0.417c-5.452,0.715-17.722,0.734-23.082,0.005 c-0.58-0.079-1.052-0.496-1.193-1.065c-0.408-1.653-1.155-5.62-1.155-12.52s0.747-10.867,1.155-12.52 c0.14-0.568,0.613-0.986,1.193-1.065c5.361-0.728,17.631-0.71,23.082,0.005c0.382,0.05,0.707,0.257,0.933,0.547l0.682-0.756 c-0.239-0.297-0.576-0.509-0.971-0.561c-5.761-0.756-18.704-0.775-24.368-0.006c-0.613,0.083-1.112,0.524-1.26,1.125 c-0.431,1.747-1.22,5.939-1.22,13.23s0.789,11.483,1.22,13.23c0.148,0.601,0.647,1.042,1.26,1.125 c5.665,0.77,18.608,0.75,24.368-0.006c0.337-0.044,0.633-0.204,0.863-0.432L224.959,103.254z"/>
        <path style="fill:#994726;" d="M190.809,90.092c0,13.058,1.546,18.396,1.546,18.396l8.778-4.799c0,0-1.948-1.685-1.948-13.596 c0-11.911,1.948-13.596,1.948-13.596l-8.762-4.788C192.371,71.707,190.809,77.034,190.809,90.092z"/>
        <path style="fill:#E0C7B1;" d="M193.708,74.12c-0.249,0.031-0.453,0.208-0.514,0.451c-0.497,1.985-1.45,6.911-1.45,15.521 s0.953,13.536,1.45,15.521c0.061,0.243,0.265,0.42,0.514,0.451l0.526,0.066c0.123,0.015,0.248-0.007,0.358-0.065l6.641-3.478 c0.693-0.383,0.813-1.465,0.813-12.495s-0.12-12.112-0.813-12.495l-6.641-3.478c-0.11-0.058-0.235-0.08-0.358-0.065 L193.708,74.12z"/>
        <path style="fill:#FEFBF1;" d="M194.548,105.613c-0.497-1.985-1.45-6.911-1.45-15.521s0.953-13.536,1.45-15.521 c0.037-0.149,0.139-0.257,0.261-0.338l-0.217-0.114c-0.11-0.058-0.235-0.08-0.358-0.065l-0.526,0.066 c-0.249,0.031-0.453,0.208-0.514,0.451c-0.497,1.985-1.45,6.911-1.45,15.521s0.953,13.536,1.45,15.521 c0.061,0.243,0.265,0.42,0.514,0.451l0.526,0.066c0.123,0.015,0.248-0.007,0.358-0.065l0.217-0.114 C194.686,105.87,194.585,105.762,194.548,105.613z"/>
        <path style="fill:#FEFBF1;" d="M196.432,76.59c-0.069,3.383-0.254,6.763-0.555,10.133c0.142-4.016-1.094-3.806-1.112-5.217 C194.75,80.369,196.053,80.922,196.432,76.59z"/>
        <path style="fill:#FEFBF1;" d="M195.918,92.698c0.273,3.372,0.43,6.754,0.472,10.138c-0.265-4.01-1.473-3.676-1.633-5.078 C194.627,96.627,195.979,97.045,195.918,92.698z"/>
        <path style="fill:#FEFBF1;" d="M200.63,80.566c0.234,2.65,0.378,5.308,0.43,7.967c-0.231-3.151-1.179-2.881-1.314-3.983 C199.638,83.663,200.703,83.984,200.63,80.566z"/>
        <path style="fill:#FEFBF1;" d="M201.006,91.325c-0.016,2.66-0.122,5.32-0.32,7.972c0.065-3.159-0.904-2.979-0.934-4.089 C199.727,94.314,200.758,94.734,201.006,91.325z"/>
        <path style="fill:#FEFBF1;" d="M198.481,85.15c0.084,3.202,0.057,6.406-0.078,9.606c-0.043-3.803-1.202-3.55-1.281-4.884 C197.057,88.797,198.314,89.263,198.481,85.15z"/>
        <path style="fill:#BF5F3D;" d="M187.344,90.079c0,9.697,1.121,15.144,1.642,17.16c0.138,0.534,0.613,0.942,1.16,1.01l1.956,0.305 c0.331,0,0.569-0.312,0.48-0.631c-0.491-1.765-1.753-7.326-1.753-17.845s1.262-16.081,1.753-17.845 c0.089-0.319-0.149-0.631-0.48-0.631l-1.956,0.305c-0.548,0.068-1.022,0.477-1.16,1.01 C188.464,74.935,187.344,80.382,187.344,90.079z"/>
        <path style="fill:#FFC3AD;" d="M189.192,73.171c0.636,1.045,1.817,0.682,2.635,0.045c0,0-1.223,3.195-1.45,13.326 c-0.227,10.132,0.042,13.797,1.677,20.885c0,0-1.59-1.908-2.59-0.409c0,0-0.409-1-0.591-2.181c0,0,1.508,1.864,1.908,0.364 c0.113-0.425-0.582-3.037-0.824-5.486c-0.583-5.916-0.605-14.602,0.076-19.645c0.682-5.043,0.596-5.242,0.278-5.333 c-0.318-0.091-0.927-0.857-1.563,0.551L189.192,73.171z"/>
      </g>
      <g id="Table">
        <path style="fill:#0087B9;" d="M263.982,115.698c-13.358,1.581-25.605,1.581-38.963,0c-3.203-0.379-5.745-2.922-6.124-6.124 c-1.581-13.358-1.581-25.605,0-38.963c0.379-3.202,2.922-5.745,6.124-6.124c13.358-1.581,25.605-1.581,38.963,0 c3.202,0.379,5.745,2.922,6.124,6.124c1.581,13.358,1.581,25.605,0,38.963C269.727,112.776,267.184,115.318,263.982,115.698z"/>
        <path style="fill:#FFFFFF;" d="M262.867,114.232c-12.593,1.491-24.14,1.491-36.734,0c-3.019-0.357-5.417-2.755-5.774-5.774 c-1.491-12.594-1.491-24.14,0-36.734c0.357-3.019,2.755-5.417,5.774-5.774c12.594-1.491,24.14-1.491,36.734,0 c3.019,0.357,5.417,2.755,5.774,5.774c1.491,12.593,1.49,24.14,0,36.734C268.283,111.478,265.886,113.875,262.867,114.232z"/>
        <path style="fill:#FFFFFF;" d="M220.359,72.337c0.357-3.019,2.755-5.417,5.774-5.774c12.594-1.491,24.141-1.491,36.734,0 c3.019,0.357,5.417,2.754,5.774,5.774c0.733,6.19,1.101,12.128,1.113,18.061c0.013-6.137-0.355-12.27-1.113-18.673 c-0.357-3.019-2.755-5.417-5.774-5.774c-12.593-1.491-24.14-1.491-36.734,0c-3.019,0.357-5.417,2.755-5.774,5.774 c-0.758,6.403-1.126,12.536-1.113,18.673C219.258,84.465,219.626,78.527,220.359,72.337z"/>
        <path style="fill:#FFFFFF;" d="M220.359,107.846c0.357,3.019,2.755,5.417,5.774,5.774c12.594,1.491,24.141,1.491,36.734,0 c3.019-0.357,5.417-2.755,5.774-5.774c0.733-6.19,1.101-12.128,1.113-18.061c0.013,6.137-0.355,12.27-1.113,18.673 c-0.357,3.019-2.755,5.416-5.774,5.774c-12.593,1.491-24.14,1.491-36.734,0c-3.019-0.357-5.417-2.755-5.774-5.774 c-0.758-6.403-1.126-12.536-1.113-18.673C219.258,95.719,219.626,101.656,220.359,107.846z"/>
        <circle style="fill:#989FB3;" cx="244.5" cy="90.092" r="9.205"/>
      </g>
    </g>
  </g>
</svg>