<?xml version="1.0" encoding="utf-8"?>
<svg xmlns="http://www.w3.org/2000/svg" viewBox="0 0 500 500">
  <g id="Couch_1_" transform="matrix(1, 0, 0, 1, -164.765627, 80.543718)">
    <g id="Shadow_1_">
      <path style="opacity:0.01;fill:#515A7F;" d="M423.42,56.904h-94.477c-2.509,0-4.543,2.034-4.543,4.543v34.504 c0,2.509,2.034,4.543,4.543,4.543h94.477c2.509,0,4.543-2.034,4.543-4.543V61.447C427.964,58.938,425.929,56.904,423.42,56.904z"/>
      <path style="opacity:0.0481;fill:#515A7F;" d="M324.049,60.756v34.595c0,2.413,1.956,4.662,4.368,4.662h94.786 c2.413,0,4.395-2.218,4.395-4.631l0.122-32.61c0.001-0.024-0.005-1.81-0.008-1.833c-0.368-2.47-2.058-4.515-4.563-4.517 l-94.46-0.033C326.277,56.39,324.049,58.344,324.049,60.756z"/>
      <path style="opacity:0.0862;fill:#515A7F;" d="M323.698,60.065v34.686c0,2.316,1.878,4.781,4.194,4.781h95.096 c2.316,0,4.247-2.402,4.247-4.718l0.243-32.551c0.002-0.048-0.009-1.786-0.016-1.831c-0.379-2.456-2.081-4.487-4.583-4.491 l-94.443-0.066C326.12,55.876,323.698,57.749,323.698,60.065z"/>
      <path style="opacity:0.1242;fill:#515A7F;" d="M323.347,59.374v34.777c0,2.22,1.799,4.9,4.019,4.9h95.406 c2.22,0,4.099-2.586,4.099-4.806l0.365-32.491c0.003-0.072-0.014-1.762-0.024-1.829c-0.389-2.443-2.105-4.459-4.603-4.465 l-94.426-0.099C325.963,55.363,323.347,57.155,323.347,59.374z"/>
      <path style="opacity:0.1623;fill:#515A7F;" d="M322.995,58.683v34.868c0,2.123,1.721,5.02,3.844,5.02h95.716 c2.123,0,3.951-2.77,3.951-4.893l0.487-32.432c0.005-0.095-0.018-1.738-0.033-1.827c-0.4-2.429-2.128-4.431-4.623-4.439 l-94.408-0.132C325.806,54.849,322.995,56.56,322.995,58.683z"/>
      <path style="opacity:0.2004;fill:#515A7F;" d="M322.644,57.992v34.959c0,2.027,1.643,5.139,3.669,5.139h96.026 c2.027,0,3.803-2.954,3.803-4.981l0.608-32.372c0.006-0.119-0.022-1.713-0.041-1.825c-0.411-2.416-2.152-4.403-4.643-4.413 l-94.391-0.165C325.649,54.335,322.644,55.966,322.644,57.992z"/>
      <path style="opacity:0.2385;fill:#515A7F;" d="M322.293,57.301v35.05c0,1.93,1.565,5.258,3.495,5.258h96.336 c1.93,0,3.655-3.138,3.655-5.068l0.73-32.313c0.007-0.143-0.025-1.689-0.049-1.822c-0.421-2.403-2.176-4.375-4.663-4.386 l-94.374-0.198C325.492,53.821,322.293,55.371,322.293,57.301z"/>
      <path style="opacity:0.2765;fill:#515A7F;" d="M321.942,56.61v35.141c0,1.834,1.486,5.377,3.32,5.377h96.645 c1.834,0,3.506-3.322,3.506-5.156l0.852-32.254c0.008-0.167-0.029-1.665-0.057-1.821c-0.432-2.39-2.199-4.347-4.683-4.36 l-94.357-0.231C325.334,53.308,321.942,54.777,321.942,56.61z"/>
      <path style="opacity:0.3146;fill:#515A7F;" d="M321.59,55.919v35.233c0,1.737,1.408,5.496,3.145,5.496h96.955 c1.737,0,3.358-3.506,3.358-5.243l0.973-32.194c0.009-0.191-0.032-1.641-0.065-1.819c-0.443-2.378-2.223-4.319-4.703-4.334 l-94.34-0.264C325.177,52.794,321.59,54.182,321.59,55.919z"/>
      <path style="opacity:0.3527;fill:#515A7F;" d="M321.239,55.228v35.324c0,1.641,1.33,5.615,2.97,5.615h97.265 c1.641,0,3.21-3.69,3.21-5.331l1.095-32.135c0.01-0.215-0.035-1.617-0.073-1.817c-0.454-2.366-2.247-4.292-4.723-4.308 l-94.323-0.297C325.02,52.28,321.239,53.588,321.239,55.228z"/>
      <path style="opacity:0.3908;fill:#515A7F;" d="M320.888,54.537v35.415c0,1.544,1.252,5.734,2.796,5.734h97.575 c1.544,0,3.062-3.874,3.062-5.418l1.216-32.075c0.012-0.238-0.038-1.593-0.081-1.815c-0.464-2.354-2.27-4.264-4.743-4.282 l-94.306-0.33C324.863,51.766,320.888,52.993,320.888,54.537z"/>
      <path style="opacity:0.4288;fill:#515A7F;" d="M320.537,53.847v35.506c0,1.447,1.174,5.853,2.621,5.853h97.885 c1.448,0,2.914-4.058,2.914-5.506l1.338-32.016c0.013-0.262-0.04-1.569-0.089-1.813c-0.475-2.342-2.294-4.236-4.763-4.256 l-94.289-0.363C324.706,51.253,320.537,52.399,320.537,53.847z"/>
      <path style="opacity:0.4669;fill:#515A7F;" d="M320.185,53.155v35.597c0,1.351,1.095,5.972,2.446,5.972h98.194 c1.351,0,2.766-4.242,2.766-5.593l1.46-31.956c0.014-0.286-0.042-1.546-0.098-1.811c-0.486-2.33-2.317-4.208-4.783-4.229 L325.9,50.739C324.549,50.739,320.185,51.804,320.185,53.155z"/>
      <path style="opacity:0.505;fill:#515A7F;" d="M319.834,52.465v35.688c0,1.255,1.017,6.091,2.272,6.091h98.504 c1.255,0,2.618-4.426,2.618-5.681l1.581-31.897c0.015-0.31-0.044-1.522-0.106-1.809c-0.497-2.319-2.341-4.18-4.803-4.203 l-94.255-0.429C324.391,50.225,319.834,51.21,319.834,52.465z"/>
      <path style="opacity:0.5431;fill:#515A7F;" d="M319.483,51.773v35.779c0,1.158,0.939,6.21,2.097,6.21h98.814 c1.158,0,2.47-4.61,2.47-5.768l1.703-31.838c0.016-0.334-0.046-1.498-0.114-1.807c-0.508-2.307-2.365-4.152-4.823-4.177 l-94.238-0.462C324.234,49.711,319.483,50.616,319.483,51.773z"/>
      <path style="opacity:0.5812;fill:#515A7F;" d="M319.132,51.083v35.87c0,1.062,0.861,6.329,1.922,6.329h99.124 c1.061,0,2.322-4.794,2.322-5.856l1.825-31.778c0.017-0.358-0.047-1.474-0.122-1.805c-0.519-2.296-2.388-4.124-4.843-4.151 l-94.221-0.495C324.077,49.198,319.132,50.021,319.132,51.083z"/>
      <path style="opacity:0.6192;fill:#515A7F;" d="M318.78,50.392v35.961c0,0.965,0.782,6.449,1.747,6.449h99.434 c0.965,0,2.174-4.978,2.174-5.943l1.946-31.719c0.019-0.382-0.048-1.451-0.13-1.803c-0.53-2.285-2.412-4.096-4.863-4.125 l-94.204-0.528C323.92,48.684,318.78,49.426,318.78,50.392z"/>
      <path style="opacity:0.6573;fill:#515A7F;" d="M318.429,49.701v36.052c0,0.868,0.704,6.568,1.573,6.568h99.743 c0.869,0,2.026-5.162,2.026-6.031l2.068-31.659c0.02-0.405-0.049-1.427-0.138-1.801c-0.542-2.275-2.435-4.068-4.883-4.099 l-94.187-0.561C323.763,48.17,318.429,48.832,318.429,49.701z"/>
      <path style="opacity:0.6954;fill:#515A7F;" d="M318.078,49.01v36.143c0,0.772,0.626,6.687,1.398,6.687h100.053 c0.772,0,1.878-5.346,1.878-6.118l2.19-31.6c0.021-0.429-0.05-1.404-0.146-1.799c-0.553-2.264-2.459-4.04-4.902-4.073 l-94.17-0.594C323.606,47.656,318.078,48.238,318.078,49.01z"/>
      <path style="opacity:0.7335;fill:#515A7F;" d="M317.727,48.319v36.234c0,0.675,0.548,6.806,1.223,6.806h100.363 c0.676,0,1.729-5.53,1.729-6.206l2.311-31.541c0.022-0.453-0.05-1.381-0.154-1.797c-0.564-2.254-2.483-4.012-4.922-4.047 l-94.153-0.626C323.448,47.143,317.727,47.643,317.727,48.319z"/>
      <path style="opacity:0.7715;fill:#515A7F;" d="M317.375,47.628v36.325c0,0.579,0.469,6.925,1.048,6.925h100.673 c0.579,0,1.581-5.714,1.581-6.293l2.433-31.481c0.023-0.477-0.051-1.358-0.163-1.795c-0.575-2.244-2.506-3.984-4.942-4.021 l-94.136-0.659C323.291,46.629,317.375,47.049,317.375,47.628z"/>
      <path style="opacity:0.8096;fill:#515A7F;" d="M317.024,46.937v36.416c0,0.482,0.391,7.044,0.874,7.044h100.983 c0.483,0,1.433-5.898,1.433-6.381l2.554-31.422c0.024-0.501-0.05-1.334-0.171-1.793c-0.587-2.235-2.53-3.956-4.962-3.994 l-94.119-0.692C323.134,46.115,317.024,46.454,317.024,46.937z"/>
      <path style="opacity:0.8477;fill:#515A7F;" d="M316.673,46.246v36.507c0,0.386,0.313,7.163,0.699,7.163h101.293 c0.386,0,1.285-6.082,1.285-6.468l2.676-31.362c0.025-0.525-0.05-1.311-0.179-1.791c-0.598-2.225-2.553-3.928-4.982-3.968 l-94.102-0.725C322.977,45.601,316.673,45.86,316.673,46.246z"/>
      <path style="opacity:0.8858;fill:#515A7F;" d="M316.322,45.555v36.598c0,0.29,0.235,7.282,0.524,7.282h101.602 c0.289,0,1.137-6.266,1.137-6.556l2.798-31.303c0.027-0.548-0.049-1.288-0.187-1.789c-0.609-2.216-2.577-3.9-5.002-3.942 l-94.085-0.758C322.82,45.088,316.322,45.265,316.322,45.555z"/>
      <path style="opacity:0.9238;fill:#515A7F;" d="M315.97,44.864v36.689c0,0.193,0.156,7.401,0.349,7.401h101.912 c0.193,0,0.989-6.45,0.989-6.643l2.919-31.243c0.028-0.572-0.048-1.265-0.195-1.787c-0.621-2.207-2.601-3.872-5.022-3.916 l-94.067-0.791C322.663,44.574,315.97,44.671,315.97,44.864z"/>
      <path style="opacity:0.9619;fill:#515A7F;" d="M315.619,44.173v36.781c0,0.096,0.078,7.52,0.175,7.52h102.222 c0.097,0,0.841-6.634,0.841-6.731l3.041-31.184c0.029-0.596-0.047-1.243-0.203-1.785c-0.633-2.198-2.624-3.844-5.042-3.89 l-94.05-0.824C322.505,44.06,315.619,44.076,315.619,44.173z"/>
      <path style="fill:#515A7F;" d="M416.382,44.404l-101.114-0.922v44.511H417.8l3.855-37.943 C421.802,47.018,419.417,44.464,416.382,44.404z"/>
    </g>
    <g id="Couch">
      <g>
        <path style="fill:#66301D;" d="M422.966,79.887H309.87l3.212,6.165c0.555,1.262,1.836,2.082,3.256,2.082h100.161 c1.419,0,2.701-0.82,3.255-2.082L422.966,79.887z"/>
        <rect x="319.48" y="76.655" style="fill:#994726;" width="94.925" height="8.247"/>
      </g>
      <g>
        <path style="fill:#66301D;" d="M325.272,40.337c-8.331,0-14.438,5.519-15.702,23.798c-1.003,14.508-2.109,16.568-0.437,18.721 c0.396,0.509,2.981,2.694,3.806,2.694c4.001,0,5.699,0,9.062,0c3.363,0,3.27-1.422,3.27-9.99 C325.272,66.991,325.272,40.337,325.272,40.337z"/>
        <path style="fill:#994726;" d="M308.831,73.019c-0.646,6.678-0.941,8.233,0.303,9.836c0.396,0.509,2.981,2.694,3.806,2.694 c4.001,0,5.699,0,9.062,0c1.121,0,1.853-0.167,2.337-0.695L308.831,73.019z"/>
        <path style="fill:#BF5F3D;" d="M320.649,40.337c-1.896,0-12.997,4.53-12.997,17.889c0,7.465-0.038,14.169,0.002,16.993 c0.09,6.293,1.025,8.306,3.15,8.306c3.194,0,4.549,0,7.234,0c2.685,0,2.61-2.973,2.61-10.842S320.649,40.337,320.649,40.337z"/>
        <path style="fill:#994726;" d="M320.649,49.715c0-5.331,0-9.377,0-9.377c-1.416,0-7.968,2.53-11.193,9.377H320.649z"/>
        <path style="fill:#FFC3AD;" d="M317.935,82.442c-2.792,0-4.201,0-7.522,0c-0.898,0-1.589-0.341-2.102-1.158 c0.505,1.619,1.316,2.241,2.493,2.241c3.194,0,4.549,0,7.234,0c1.91,0,2.424-1.511,2.561-5.217 C320.599,78.308,320.543,82.442,317.935,82.442z"/>
        <g>
          <path style="fill:#E0C7B1;" d="M318.243,62.29c0-6.059,0.053-8.348-1.862-8.348h-5.16c-1.516,0-2.183,1.55-2.247,6.396 c-0.016,1.181-0.016,12.185,0,13.367c0.064,4.846,0.731,6.396,2.247,6.396h5.16c1.915,0,1.862-2.289,1.862-8.348V62.29z"/>
          <path style="fill:#FEFBF1;" d="M317.277,61.75c0-5.428,0.048-7.479-1.668-7.479h-4.623c-1.358,0-1.955,1.389-2.013,5.73 c-0.014,1.059-0.014,11.79,0,12.848c0.058,4.341,0.655,5.73,2.013,5.73h4.623c1.716,0,1.668-2.051,1.668-7.479V61.75z"/>
        </g>
      </g>
      <g>
        <path style="fill:#66301D;" d="M407.564,40.337c8.33,0,14.438,5.519,15.702,23.798c1.003,14.508,2.109,16.568,0.437,18.721 c-0.396,0.509-2.981,2.694-3.806,2.694c-4.001,0-5.699,0-9.062,0c-3.363,0-3.27-1.422-3.27-9.99 C407.564,66.991,407.564,40.337,407.564,40.337z"/>
        <path style="fill:#994726;" d="M424.006,73.019c0.646,6.678,0.941,8.233-0.304,9.836c-0.396,0.509-2.981,2.694-3.806,2.694 c-4.001,0-5.699,0-9.062,0c-1.121,0-1.853-0.167-2.337-0.695L424.006,73.019z"/>
        <path style="fill:#BF5F3D;" d="M412.188,40.337c1.896,0,12.534,4.261,12.534,17.62c0,7.465,0.501,14.438,0.46,17.262 c-0.09,6.293-1.025,8.306-3.15,8.306c-3.194,0-4.549,0-7.234,0c-2.685,0-2.61-2.973-2.61-10.842S412.188,40.337,412.188,40.337z"/>
        <path style="fill:#994726;" d="M423.315,50.249c-2.954-7.354-9.66-9.912-11.128-9.912c0,0,0,4.322,0,9.912H423.315z"/>
        <path style="fill:#FFC3AD;" d="M414.901,82.442c2.792,0,4.201,0,7.522,0c0.898,0,1.589-0.341,2.102-1.158 c-0.505,1.619-1.316,2.241-2.493,2.241c-3.194,0-4.549,0-7.234,0c-1.91,0-2.424-1.511-2.561-5.217 C412.237,78.308,412.294,82.442,414.901,82.442z"/>
        <g>
          <path style="fill:#E0C7B1;" d="M414.557,62.29c0-6.059-0.053-8.348,1.862-8.348h5.16c1.516,0,2.183,1.55,2.247,6.396 c0.016,1.181,0.016,12.185,0,13.367c-0.064,4.846-0.731,6.396-2.247,6.396h-5.16c-1.915,0-1.862-2.289-1.862-8.348V62.29z"/>
          <path style="fill:#FEFBF1;" d="M415.523,61.75c0-5.428-0.048-7.479,1.668-7.479h4.623c1.358,0,1.955,1.389,2.013,5.73 c0.014,1.059,0.014,11.79,0,12.848c-0.058,4.341-0.655,5.73-2.013,5.73h-4.623c-1.716,0-1.668-2.051-1.668-7.479V61.75z"/>
        </g>
      </g>
      <g>
        <path style="fill:#EEE0D1;" d="M406.147,48.853h-79.458c-1.94,0-3.513,1.573-3.513,3.513v27.981c0,1.94,1.573,3.513,3.513,3.513 h21.803c1.94,0,3.512-1.572,3.513-3.511c0.001,1.939,1.573,3.511,3.513,3.511h21.802c1.94,0,3.512-1.572,3.513-3.511 c0.001,1.939,1.573,3.511,3.513,3.511h21.802c1.94,0,3.513-1.573,3.513-3.513V52.366 C409.66,50.426,408.087,48.853,406.147,48.853z"/>
        <path style="fill:#FEFBF1;" d="M406.147,81.047h-21.802c-1.94,0-3.512-0.634-3.513-2.574c-0.001,1.939-1.573,2.574-3.513,2.574 h-21.802c-1.94,0-3.512-0.634-3.513-2.574c-0.001,1.939-1.573,2.574-3.513,2.574h-21.803c-1.94,0-3.513-0.635-3.513-2.575v0 c0,1.94,1.573,3.513,3.513,3.513h21.803c1.939,0,3.512-1.572,3.513-3.511c0.001,1.939,1.573,3.511,3.513,3.511h21.802 c1.94,0,3.512-1.572,3.513-3.511c0.001,1.939,1.573,3.511,3.513,3.511h21.802c1.94,0,3.513-1.573,3.513-3.513v0 C409.66,80.411,408.087,81.047,406.147,81.047z"/>
        <path style="fill:#E0C7B1;" d="M406.147,81.984h-21.802c-1.94,0-3.512-1.572-3.513-3.511c-0.001,1.939-1.573,3.511-3.513,3.511 h-21.802c-1.94,0-3.512-1.572-3.513-3.511c-0.001,1.939-1.573,3.511-3.513,3.511h-21.803c-1.94,0-3.513-1.573-3.513-3.513v1.875 c0,1.94,1.573,3.513,3.513,3.513h21.803c1.939,0,3.512-1.572,3.513-3.511c0.001,1.939,1.573,3.511,3.513,3.511h21.802 c1.94,0,3.512-1.572,3.513-3.511c0.001,1.939,1.573,3.511,3.513,3.511h21.802c1.94,0,3.513-1.573,3.513-3.513v-1.875 C409.66,80.411,408.087,81.984,406.147,81.984z"/>
        <path style="fill:#FEFBF1;" d="M351.066,56.418v17.966c0,2.718-2.336,4.922-5.217,4.922h-16.517 c-2.881,0-5.217-2.204-5.217-4.922V56.418c0-2.718,2.336-4.922,5.217-4.922h16.517C348.731,51.496,351.066,53.7,351.066,56.418z M403.505,51.496h-16.517c-2.881,0-5.217,2.204-5.217,4.922v17.966c0,2.718,2.336,4.922,5.217,4.922h16.517 c2.881,0,5.217-2.204,5.217-4.922V56.418C408.722,53.7,406.386,51.496,403.505,51.496z M374.677,51.496h-16.518 c-2.881,0-5.217,2.204-5.217,4.922v17.966c0,2.718,2.336,4.922,5.217,4.922h16.518c2.881,0,5.217-2.204,5.217-4.922V56.418 C379.894,53.7,377.558,51.496,374.677,51.496z"/>
      </g>
      <g>
        <path style="fill:#E0C7B1;" d="M317.93,41.886c1.757,2.802,4.935,7.298,7.02,7.298h83.07c2.009,0,4.992-4.336,6.772-7.171 L317.93,41.886z"/>
        <path style="fill:#EEE0D1;" d="M410.759,43.83h-88.681c-3.092,0-5.599-2.507-5.599-5.599v-0.338c0-3.092,2.507-5.599,5.599-5.599 h88.681c3.092,0,5.599,2.507,5.599,5.599v0.338C416.358,41.324,413.851,43.83,410.759,43.83z"/>
        <path style="fill:#FEFBF1;" d="M410.59,42.893h-88.344c-3.027,0-5.505-2.334-5.744-5.299c-0.013,0.155-0.024,0.311-0.024,0.469 c0,3.185,2.582,5.768,5.768,5.768h88.344c3.186,0,5.768-2.583,5.768-5.768c0-0.158-0.011-0.314-0.024-0.469 C416.095,40.559,413.617,42.893,410.59,42.893z"/>
        <path style="fill:#FEFBF1;" d="M410.59,33.572h-88.344c-1.352,0-2.594,0.465-3.577,1.244c-1.776,1.408-1.776,4.148,0,5.555 c0.983,0.779,2.225,1.244,3.577,1.244h88.344c1.352,0,2.594-0.465,3.577-1.244c1.776-1.407,1.776-4.148,0-5.555 C413.184,34.037,411.942,33.572,410.59,33.572z"/>
        <g>
          <path style="fill:#FEFBF1;" d="M323.336,46.26c3.167,0.027,6.336-0.055,9.498-0.245c-3.762,0.024-3.532-1.126-4.852-1.182 C326.918,44.788,327.4,46.022,323.336,46.26z"/>
          <path style="fill:#FEFBF1;" d="M331.371,48.316c2.997,0.078,5.997,0.054,8.993-0.073c-3.56-0.04-3.324-1.125-4.572-1.2 C334.785,46.983,335.22,48.159,331.371,48.316z"/>
          <path style="fill:#FEFBF1;" d="M338.647,46.26c3.167,0.027,6.336-0.055,9.498-0.245c-3.762,0.024-3.532-1.126-4.852-1.182 C342.228,44.788,342.71,46.022,338.647,46.26z"/>
          <path style="fill:#FEFBF1;" d="M346.681,48.316c2.997,0.078,5.997,0.054,8.993-0.073c-3.561-0.04-3.324-1.125-4.572-1.2 C350.095,46.983,350.531,48.159,346.681,48.316z"/>
          <path style="fill:#FEFBF1;" d="M353.957,46.26c3.167,0.027,6.336-0.055,9.498-0.245c-3.762,0.024-3.532-1.126-4.852-1.182 C357.539,44.788,358.021,46.022,353.957,46.26z"/>
          <path style="fill:#FEFBF1;" d="M361.991,48.316c2.997,0.078,5.997,0.054,8.993-0.073c-3.561-0.04-3.324-1.125-4.572-1.2 C365.405,46.983,365.841,48.159,361.991,48.316z"/>
          <path style="fill:#FEFBF1;" d="M369.267,46.26c3.167,0.027,6.336-0.055,9.498-0.245c-3.762,0.024-3.532-1.126-4.852-1.182 C372.849,44.788,373.331,46.022,369.267,46.26z"/>
          <path style="fill:#FEFBF1;" d="M377.302,48.316c2.997,0.078,5.997,0.054,8.993-0.073c-3.561-0.04-3.324-1.125-4.572-1.2 C380.716,46.983,381.151,48.159,377.302,48.316z"/>
          <path style="fill:#FEFBF1;" d="M384.578,46.26c3.167,0.027,6.336-0.055,9.498-0.245c-3.762,0.024-3.532-1.126-4.852-1.182 C388.159,44.788,388.641,46.022,384.578,46.26z"/>
          <path style="fill:#FEFBF1;" d="M392.612,48.316c2.997,0.078,5.997,0.054,8.993-0.073c-3.56-0.04-3.324-1.125-4.572-1.2 C396.026,46.983,396.462,48.159,392.612,48.316z"/>
          <path style="fill:#FEFBF1;" d="M399.888,46.26c3.167,0.027,6.336-0.055,9.498-0.245c-3.762,0.024-3.532-1.126-4.852-1.182 C403.469,44.788,403.951,46.022,399.888,46.26z"/>
        </g>
      </g>
    </g>
  </g>
</svg>