<?xml version="1.0" encoding="utf-8"?>
<svg xmlns="http://www.w3.org/2000/svg" viewBox="0 0 500 500">
  <g id="Tv" transform="matrix(1, 0, 0, 1, -231.430378, -229.729053)">
    <g id="Shadow_33_">
      <path style="opacity:0;fill:#515A7F;" d="M428.735,356.22h-53.558c-3.3,0-5.975-2.675-5.975-5.975v-25.221 c0-3.3,2.675-5.975,5.975-5.975h53.558c3.3,0,5.975,2.675,5.975,5.975v25.221C434.71,353.545,432.035,356.22,428.735,356.22z"/>
      <path style="opacity:0.0385;fill:#515A7F;" d="M428.35,355.835h-53.558c-3.3,0-5.975-2.675-5.975-5.975V324.64 c0-3.3,2.675-5.975,5.975-5.975h53.558c3.3,0,5.975,2.675,5.975,5.975v25.221C434.325,353.16,431.65,355.835,428.35,355.835z"/>
      <path style="opacity:0.0769;fill:#515A7F;" d="M427.965,355.45h-53.558c-3.3,0-5.975-2.675-5.975-5.975v-25.221 c0-3.3,2.675-5.975,5.975-5.975h53.558c3.3,0,5.975,2.675,5.975,5.975v25.221C433.94,352.775,431.265,355.45,427.965,355.45z"/>
      <path style="opacity:0.1154;fill:#515A7F;" d="M427.58,355.065h-53.558c-3.3,0-5.975-2.675-5.975-5.975V323.87 c0-3.3,2.675-5.975,5.975-5.975h53.558c3.3,0,5.975,2.675,5.975,5.975v25.221C433.555,352.39,430.88,355.065,427.58,355.065z"/>
      <path style="opacity:0.1538;fill:#515A7F;" d="M427.195,354.68h-53.558c-3.3,0-5.975-2.675-5.975-5.975v-25.221 c0-3.3,2.675-5.975,5.975-5.975h53.558c3.3,0,5.975,2.675,5.975,5.975v25.221C433.17,352.005,430.495,354.68,427.195,354.68z"/>
      <path style="opacity:0.1923;fill:#515A7F;" d="M426.81,354.295h-53.558c-3.3,0-5.975-2.675-5.975-5.975V323.1 c0-3.3,2.675-5.975,5.975-5.975h53.558c3.3,0,5.975,2.675,5.975,5.975v25.221C432.785,351.62,430.11,354.295,426.81,354.295z"/>
      <path style="opacity:0.2308;fill:#515A7F;" d="M426.425,353.91h-53.558c-3.3,0-5.975-2.675-5.975-5.975v-25.221 c0-3.3,2.675-5.975,5.975-5.975h53.558c3.3,0,5.975,2.675,5.975,5.975v25.221C432.4,351.235,429.725,353.91,426.425,353.91z"/>
      <path style="opacity:0.2692;fill:#515A7F;" d="M426.04,353.525h-53.558c-3.3,0-5.975-2.675-5.975-5.975V322.33 c0-3.3,2.675-5.975,5.975-5.975h53.558c3.3,0,5.975,2.675,5.975,5.975v25.221C432.015,350.85,429.34,353.525,426.04,353.525z"/>
      <path style="opacity:0.3077;fill:#515A7F;" d="M425.655,353.141h-53.558c-3.3,0-5.975-2.675-5.975-5.975v-25.221 c0-3.3,2.675-5.975,5.975-5.975h53.558c3.3,0,5.975,2.675,5.975,5.975v25.221C431.63,350.466,428.955,353.141,425.655,353.141z"/>
      <path style="opacity:0.3462;fill:#515A7F;" d="M425.27,352.755h-53.558c-3.3,0-5.975-2.675-5.975-5.975V321.56 c0-3.3,2.675-5.975,5.975-5.975h53.558c3.3,0,5.975,2.675,5.975,5.975v25.221C431.245,350.081,428.57,352.755,425.27,352.755z"/>
      <path style="opacity:0.3846;fill:#515A7F;" d="M424.885,352.371h-53.558c-3.3,0-5.975-2.675-5.975-5.975v-25.221 c0-3.3,2.675-5.975,5.975-5.975h53.558c3.3,0,5.975,2.675,5.975,5.975v25.221C430.86,349.696,428.185,352.371,424.885,352.371z"/>
      <path style="opacity:0.4231;fill:#515A7F;" d="M424.5,351.986h-53.558c-3.3,0-5.975-2.675-5.975-5.975V320.79 c0-3.3,2.675-5.975,5.975-5.975H424.5c3.3,0,5.975,2.675,5.975,5.975v25.221C430.475,349.311,427.8,351.986,424.5,351.986z"/>
      <path style="opacity:0.4615;fill:#515A7F;" d="M424.115,351.601h-53.558c-3.3,0-5.975-2.675-5.975-5.975v-25.221 c0-3.3,2.675-5.975,5.975-5.975h53.558c3.3,0,5.975,2.675,5.975,5.975v25.221C430.09,348.926,427.415,351.601,424.115,351.601z"/>
      <path style="opacity:0.5;fill:#515A7F;" d="M423.73,351.216h-53.558c-3.3,0-5.975-2.675-5.975-5.975V320.02 c0-3.3,2.675-5.975,5.975-5.975h53.558c3.3,0,5.975,2.675,5.975,5.975v25.221C429.705,348.541,427.03,351.216,423.73,351.216z"/>
      <path style="opacity:0.5385;fill:#515A7F;" d="M423.345,350.831h-53.558c-3.3,0-5.975-2.675-5.975-5.975v-25.221 c0-3.3,2.675-5.975,5.975-5.975h53.558c3.3,0,5.975,2.675,5.975,5.975v25.221C429.32,348.156,426.645,350.831,423.345,350.831z"/>
      <path style="opacity:0.5769;fill:#515A7F;" d="M422.96,350.446h-53.558c-3.3,0-5.975-2.675-5.975-5.975V319.25 c0-3.3,2.675-5.975,5.975-5.975h53.558c3.3,0,5.975,2.675,5.975,5.975v25.221C428.935,347.771,426.26,350.446,422.96,350.446z"/>
      <path style="opacity:0.6154;fill:#515A7F;" d="M422.576,350.061h-53.558c-3.3,0-5.975-2.675-5.975-5.975v-25.221 c0-3.3,2.675-5.975,5.975-5.975h53.558c3.3,0,5.975,2.675,5.975,5.975v25.221C428.55,347.386,425.875,350.061,422.576,350.061z"/>
      <path style="opacity:0.6538;fill:#515A7F;" d="M422.19,349.676h-53.558c-3.3,0-5.975-2.675-5.975-5.975V318.48 c0-3.3,2.675-5.975,5.975-5.975h53.558c3.3,0,5.975,2.675,5.975,5.975v25.221C428.165,347.001,425.49,349.676,422.19,349.676z"/>
      <path style="opacity:0.6923;fill:#515A7F;" d="M421.806,349.291h-53.558c-3.3,0-5.975-2.675-5.975-5.975v-25.221 c0-3.3,2.675-5.975,5.975-5.975h53.558c3.3,0,5.975,2.675,5.975,5.975v25.221C427.78,346.616,425.105,349.291,421.806,349.291z"/>
      <path style="opacity:0.7308;fill:#515A7F;" d="M421.421,348.906h-53.558c-3.3,0-5.975-2.675-5.975-5.975V317.71 c0-3.3,2.675-5.975,5.975-5.975h53.558c3.3,0,5.975,2.675,5.975,5.975v25.221C427.395,346.231,424.72,348.906,421.421,348.906z"/>
      <path style="opacity:0.7692;fill:#515A7F;" d="M421.036,348.521h-53.558c-3.3,0-5.975-2.675-5.975-5.975v-25.221 c0-3.3,2.675-5.975,5.975-5.975h53.558c3.3,0,5.975,2.675,5.975,5.975v25.221C427.01,345.846,424.335,348.521,421.036,348.521z"/>
      <path style="opacity:0.8077;fill:#515A7F;" d="M420.651,348.136h-53.558c-3.3,0-5.975-2.675-5.975-5.975V316.94 c0-3.3,2.675-5.975,5.975-5.975h53.558c3.3,0,5.975,2.675,5.975,5.975v25.221C426.625,345.461,423.95,348.136,420.651,348.136z"/>
      <path style="opacity:0.8462;fill:#515A7F;" d="M420.266,347.751h-53.558c-3.3,0-5.975-2.675-5.975-5.975v-25.221 c0-3.3,2.675-5.975,5.975-5.975h53.558c3.3,0,5.975,2.675,5.975,5.975v25.221C426.24,345.076,423.565,347.751,420.266,347.751z"/>
      <path style="opacity:0.8846;fill:#515A7F;" d="M419.881,347.366h-53.558c-3.3,0-5.975-2.675-5.975-5.975v-25.221 c0-3.3,2.675-5.975,5.975-5.975h53.558c3.3,0,5.975,2.675,5.975,5.975v25.221C425.855,344.691,423.18,347.366,419.881,347.366z"/>
      <path style="opacity:0.9231;fill:#515A7F;" d="M419.496,346.981h-53.558c-3.3,0-5.975-2.675-5.975-5.975v-25.221 c0-3.3,2.675-5.975,5.975-5.975h53.558c3.3,0,5.975,2.675,5.975,5.975v25.221C425.47,344.306,422.796,346.981,419.496,346.981z"/>
      <path style="opacity:0.9615;fill:#515A7F;" d="M419.111,346.596h-53.558c-3.3,0-5.975-2.675-5.975-5.975v-25.221 c0-3.3,2.675-5.975,5.975-5.975h53.558c3.3,0,5.975,2.675,5.975,5.975v25.221C425.086,343.921,422.411,346.596,419.111,346.596z"/>
      <path style="fill:#515A7F;" d="M418.726,346.211h-53.558c-3.3,0-5.975-2.675-5.975-5.975v-25.221c0-3.3,2.675-5.975,5.975-5.975 h53.558c3.3,0,5.975,2.675,5.975,5.975v25.221C424.701,343.536,422.026,346.211,418.726,346.211z"/>
    </g>
    <g>
      <g>
        <path style="fill:#984626;" d="M418.726,346.211h-53.558c-3.3,0-5.975-2.675-5.975-5.975v-25.221c0-3.3,2.675-5.975,5.975-5.975 h53.558c3.3,0,5.975,2.675,5.975,5.975v25.221C424.701,343.536,422.026,346.211,418.726,346.211z"/>
        <path style="fill:#BF5F3D;" d="M418.354,344.393h-52.815c-2.572,0-4.658-2.085-4.658-4.658v-24.219 c0-2.572,2.085-4.658,4.658-4.658h52.815c2.572,0,4.658,2.085,4.658,4.658v24.219 C423.012,342.308,420.927,344.393,418.354,344.393z"/>
        <path style="fill:#FFC2AD;" d="M417.451,342.392h-51.009c-2.542,0-4.603-2.085-4.603-4.658v1.001 c0,2.572,2.061,4.658,4.603,4.658h51.009c2.542,0,4.603-2.085,4.603-4.658v-1.001 C422.054,340.306,419.993,342.392,417.451,342.392z"/>
        <path style="fill:#984626;" d="M417.451,312.86h-51.009c-2.542,0-4.603,2.085-4.603,4.658v-1.001 c0-2.572,2.061-4.658,4.603-4.658h51.009c2.542,0,4.603,2.085,4.603,4.658v1.001C422.054,314.946,419.993,312.86,417.451,312.86z "/>
      </g>
      <g>
        <path style="fill:#11222E;" d="M384.421,332.023c-3.775-3.775-3.775-9.896,0-13.671c3.775-3.775,9.896-3.775,13.671,0 c3.775,3.775,3.775,9.896,0,13.671C394.317,335.798,388.196,335.798,384.421,332.023z"/>
        <polygon style="fill:#708587;" points="429.206,319.87 354.687,319.87 362.193,329.585 421.7,329.585 &#9;&#9;&#9;"/>
        <polygon style="fill:#11222E;" points="356.887,320.718 427.007,320.718 421.011,328.917 362.882,328.917 &#9;&#9;&#9;"/>
        <polygon style="fill:#203941;" points="421.011,328.917 421.59,328.126 413.339,320.718 407.264,320.718 417.022,328.917 &#9;&#9;&#9;"/>
        <polygon style="fill:#203941;" points="398.283,328.917 386.37,320.718 386.37,320.718 374.782,320.718 387.891,328.917 &#9;&#9;&#9;"/>
        <path style="fill:#FEFBF1;" d="M428.033,317.651H355.86c-0.648,0-1.173,0.525-1.173,1.173v1.046h74.519v-1.046 C429.206,318.176,428.681,317.651,428.033,317.651z"/>
      </g>
    </g>
  </g>
</svg>