<?xml version="1.0" encoding="UTF-8"?>
<svg version="1.1" xmlns="http://www.w3.org/2000/svg" width="512" height="512">
<path d="M0 0 C1.90625 0.46484375 1.90625 0.46484375 4.40625 2.27734375 C5.90625 5.46484375 5.90625 5.46484375 5.90625 16.46484375 C21.74625 16.46484375 37.58625 16.46484375 53.90625 16.46484375 C53.90625 12.83484375 53.90625 9.20484375 53.90625 5.46484375 C55.40625 2.27734375 55.40625 2.27734375 57.90625 0.46484375 C60.74270803 -0.22683351 63.06979197 -0.22683351 65.90625 0.46484375 C68.40625 2.27734375 68.40625 2.27734375 69.90625 5.46484375 C70.00851802 7.36208604 70.03359822 9.264363 70 11.1640625 C69.98646484 12.15623779 69.97292969 13.14841309 69.95898438 14.1706543 C69.93288086 15.30627808 69.93288086 15.30627808 69.90625 16.46484375 C71.42722967 16.46069568 71.42722967 16.46069568 72.9789362 16.45646381 C97.64978691 16.38986947 122.32062597 16.34056851 146.99154758 16.30940723 C158.9222133 16.2939374 170.85281965 16.27284558 182.78344727 16.23852539 C193.18200038 16.20862669 203.5805105 16.18926959 213.97910541 16.18257827 C219.48524004 16.17866683 224.99125166 16.16947182 230.49734688 16.14765358 C235.68061385 16.1272811 240.86370721 16.12101154 246.04701042 16.12552071 C247.94850991 16.12469585 249.85001525 16.11873479 251.7514801 16.10722733 C254.35040677 16.09227131 256.94868047 16.09590144 259.54762268 16.1040802 C260.29764055 16.09534168 261.04765843 16.08660315 261.82040411 16.07759982 C268.69348765 16.1359441 273.95124469 18.1869123 279.15625 22.71484375 C279.80078125 23.25625 280.4453125 23.79765625 281.109375 24.35546875 C286.18598296 30.31496505 286.3406667 36.41116681 286.29393005 43.89561462 C286.30200836 45.45195274 286.30200836 45.45195274 286.31024987 47.03973204 C286.32453491 50.5096009 286.31742417 53.97908857 286.31030273 57.44897461 C286.31600598 59.93946133 286.32297006 62.42994544 286.33110046 64.92042542 C286.34718779 70.9788392 286.34913156 77.03710372 286.34388756 83.09552424 C286.339842 88.02092886 286.341294 92.94630285 286.34663582 97.87170601 C286.34738424 98.57338955 286.34813266 99.27507309 286.34890376 99.99801977 C286.35043528 101.42360119 286.35197363 102.8491826 286.35351873 104.27476401 C286.36723842 117.63569172 286.36180977 130.99656084 286.35033352 144.35748721 C286.34040106 156.57343094 286.35334291 168.78922321 286.37726771 181.00514358 C286.40166584 193.55759732 286.41126487 206.10998055 286.40461498 218.66245753 C286.40112442 225.70608174 286.40334404 232.74958947 286.42086601 239.79319572 C286.43713783 246.41623145 286.43239526 253.039025 286.41356087 259.66206932 C286.40987108 262.09206334 286.41299472 264.52207873 286.42344666 266.95205307 C286.4366308 270.27073286 286.42513067 273.58845079 286.40745544 276.90708923 C286.41706045 277.86731253 286.42666546 278.82753583 286.43656152 279.8168568 C286.35823229 286.97110331 284.69689119 292.28029495 279.94140625 297.70703125 C279.29042969 298.24585938 278.63945312 298.7846875 277.96875 299.33984375 C277.32035156 299.89414062 276.67195313 300.4484375 276.00390625 301.01953125 C271.34284877 304.23106061 267.36583633 304.71588617 261.75850582 304.72211266 C261.04650641 304.72561873 260.334507 304.7291248 259.60093185 304.73273712 C257.20888817 304.74206037 254.81708744 304.73712549 252.42503357 304.73226929 C250.69527569 304.73600506 248.9655195 304.74060629 247.23576599 304.74599993 C242.47750646 304.75825391 237.71931711 304.75796666 232.96104538 304.75561118 C227.83148175 304.75520363 222.7019408 304.76623607 217.5723877 304.77572632 C207.52188712 304.79234924 197.47140999 304.7978364 187.42089682 304.79895107 C179.25504681 304.79990071 171.08920456 304.80400677 162.92335701 304.81035233 C139.78673207 304.82796642 116.6501257 304.83719066 93.51349401 304.83569138 C91.64198415 304.83557151 91.64198415 304.83557151 89.73266602 304.83544922 C88.48347518 304.83536746 87.23428434 304.8352857 85.94723923 304.83520146 C65.6873668 304.83438798 45.42756862 304.85354075 25.16771769 304.88172595 C4.37982665 304.91041837 -16.40802813 304.92426833 -37.19593948 304.9225384 C-48.87284635 304.92187335 -60.54967533 304.9274161 -72.22656441 304.9488945 C-82.16522855 304.96705819 -92.10377949 304.97149321 -102.042453 304.95787565 C-107.11635519 304.95132227 -112.19003991 304.95131394 -117.26392174 304.96858215 C-121.90430931 304.98421319 -126.54430516 304.98155224 -131.1846826 304.96401389 C-132.8676366 304.96092191 -134.55061913 304.96465819 -136.23353953 304.97573404 C-138.5134564 304.98975085 -140.79197919 304.97935323 -143.07184696 304.96262169 C-144.97473692 304.96327379 -144.97473692 304.96327379 -146.91606909 304.96393907 C-150.09375 304.46484375 -150.09375 304.46484375 -152.53261894 302.62123263 C-154.09375 300.46484375 -154.09375 300.46484375 -154.09375 297.46484375 C-159.70375 297.46484375 -165.31375 297.46484375 -171.09375 297.46484375 C-171.42375 299.11484375 -171.75375 300.76484375 -172.09375 302.46484375 C-175.69902856 304.86836279 -178.37315038 304.78758231 -182.54296875 304.80078125 C-183.27441605 304.80743805 -184.00586334 304.81409485 -184.75947571 304.82095337 C-186.30861908 304.83107546 -187.85780602 304.83577052 -189.40698242 304.83544922 C-191.75579743 304.83979664 -194.10269257 304.87604444 -196.45117188 304.9140625 C-205.51119857 304.98391225 -212.21234945 304.74244737 -219.3359375 298.5 C-219.87476563 297.84902344 -220.41359375 297.19804687 -220.96875 296.52734375 C-221.52304688 295.87894531 -222.07734375 295.23054688 -222.6484375 294.5625 C-226.49614649 288.97812236 -226.38217466 283.83954402 -226.36117554 277.27458191 C-226.36570665 276.23873201 -226.37023776 275.20288211 -226.37490618 274.13564283 C-226.3875811 270.65963795 -226.3859278 267.18378913 -226.38427734 263.70776367 C-226.39026066 261.21757302 -226.39706575 258.72738422 -226.40463257 256.23719788 C-226.42048207 250.17185765 -226.42674184 244.10657894 -226.42785732 238.04122373 C-226.42880812 233.11005552 -226.43292002 228.17890013 -226.43925858 223.24773598 C-226.45686955 209.26206331 -226.46609771 195.27642131 -226.46459763 181.29073747 C-226.46451772 180.5369694 -226.4644378 179.78320133 -226.46435547 179.0065918 C-226.46427371 178.25190164 -226.46419195 177.49721147 -226.46410771 176.71965192 C-226.46329492 164.49065331 -226.48243107 152.26177791 -226.5106322 140.03281494 C-226.53937106 127.47139139 -226.55317194 114.9100279 -226.55144465 102.34857064 C-226.55078108 95.2982016 -226.5562589 88.2479617 -226.57780075 81.1976223 C-226.59793233 74.56641778 -226.59732859 67.9354393 -226.58276749 61.30420494 C-226.58067444 58.87098289 -226.58540964 56.4377439 -226.5974884 54.00455093 C-226.61291598 50.6813981 -226.60364812 47.35918892 -226.58822632 44.03605652 C-226.59851344 43.07446898 -226.60880057 42.11288144 -226.61939943 41.12215489 C-226.54602308 33.96108206 -224.8692083 28.68976898 -220.1640625 23.22265625 C-219.52210938 22.68382813 -218.88015625 22.145 -218.21875 21.58984375 C-217.58195313 21.03554687 -216.94515625 20.48125 -216.2890625 19.91015625 C-211.11826985 16.50589774 -205.8867196 16.17766815 -199.8553772 16.22433472 C-198.63487232 16.22177144 -198.63487232 16.22177144 -197.38971078 16.21915638 C-194.67198882 16.21587054 -191.95451551 16.22685023 -189.23681641 16.23779297 C-187.28521734 16.23835728 -185.33361786 16.23804014 -183.38201904 16.23690796 C-178.08911747 16.23633422 -172.79630658 16.24809207 -167.50342607 16.26205587 C-161.97009268 16.2745596 -156.43675721 16.27573345 -150.90341187 16.27810669 C-140.42754851 16.2843225 -129.95172691 16.30073472 -119.47588193 16.32080567 C-107.54852695 16.34316149 -95.62116998 16.35415731 -83.69379926 16.36419654 C-59.16042636 16.38510083 -34.62709052 16.42027881 -10.09375 16.46484375 C-10.11115234 15.70776123 -10.12855469 14.95067871 -10.14648438 14.1706543 C-10.16001953 13.178479 -10.17355469 12.18630371 -10.1875 11.1640625 C-10.20490234 10.18010498 -10.22230469 9.19614746 -10.24023438 8.18237305 C-10.09375 5.46484375 -10.09375 5.46484375 -8.59375 2.27734375 C-5.56583477 0.08210521 -3.68637851 -0.28198045 0 0 Z " fill="#E0A773" transform="translate(226.09375,103.53515625)"/>
<path d="M0 0 C4.10446627 0.58635232 5.00540965 1.28031337 7.5 4.5 C7.98101807 7.22088623 7.98101807 7.22088623 7.95410156 10.37011719 C7.95379944 11.55103943 7.95349731 12.73196167 7.95318604 13.94866943 C7.93254089 15.21857727 7.91189575 16.48848511 7.890625 17.796875 C7.88496521 19.10078186 7.87930542 20.40468872 7.87347412 21.74810791 C7.85823338 25.20732523 7.81896662 28.66586606 7.7746582 32.12481689 C7.73367087 35.65733693 7.71545582 39.18996674 7.6953125 42.72265625 C7.65246951 49.64874268 7.58213328 56.57426918 7.5 63.5 C15.75 63.5 24 63.5 32.5 63.5 C32.47905273 61.73366211 32.45810547 59.96732422 32.43652344 58.14746094 C32.37199463 52.30815771 32.32604831 46.46886681 32.29275131 40.62931442 C32.27188588 37.08909928 32.24358874 33.54927026 32.19824219 30.00927734 C32.14642262 25.93843909 32.12704631 21.86800573 32.109375 17.796875 C32.08872986 16.52696716 32.06808472 15.25705933 32.04681396 13.94866943 C32.04651184 12.76774719 32.04620972 11.58682495 32.04589844 10.37011719 C32.03701599 9.33087097 32.02813354 8.29162476 32.01898193 7.22088623 C32.62926538 3.76880837 33.73714055 2.59937901 36.5 0.5 C40 0 40 0 43.5 0.5 C46.26285945 2.59937901 47.37073462 3.76880837 47.98101807 7.22088623 C47.9676944 8.77975555 47.9676944 8.77975555 47.95410156 10.37011719 C47.95379944 11.55103943 47.95349731 12.73196167 47.95318604 13.94866943 C47.93254089 15.21857727 47.91189575 16.48848511 47.890625 17.796875 C47.88496521 19.10078186 47.87930542 20.40468872 47.87347412 21.74810791 C47.85823338 25.20732523 47.81896662 28.66586606 47.7746582 32.12481689 C47.73367087 35.65733693 47.71545582 39.18996674 47.6953125 42.72265625 C47.65246951 49.64874268 47.58213328 56.57426918 47.5 63.5 C55.75 63.5 64 63.5 72.5 63.5 C72.4685791 60.85049316 72.4685791 60.85049316 72.43652344 58.14746094 C72.37199463 52.30815771 72.32604831 46.46886681 72.29275131 40.62931442 C72.27188588 37.08909928 72.24358874 33.54927026 72.19824219 30.00927734 C72.14642262 25.93843909 72.12704631 21.86800573 72.109375 17.796875 C72.08872986 16.52696716 72.06808472 15.25705933 72.04681396 13.94866943 C72.04636078 12.17728607 72.04636078 12.17728607 72.04589844 10.37011719 C72.03701599 9.33087097 72.02813354 8.29162476 72.01898193 7.22088623 C72.62926538 3.76880837 73.73714055 2.59937901 76.5 0.5 C80 0 80 0 83.5 0.5 C86.26285945 2.59937901 87.37073462 3.76880837 87.98101807 7.22088623 C87.9676944 8.77975555 87.9676944 8.77975555 87.95410156 10.37011719 C87.95379944 11.55103943 87.95349731 12.73196167 87.95318604 13.94866943 C87.93254089 15.21857727 87.91189575 16.48848511 87.890625 17.796875 C87.88496521 19.10078186 87.87930542 20.40468872 87.87347412 21.74810791 C87.85823338 25.20732523 87.81896662 28.66586606 87.7746582 32.12481689 C87.73367087 35.65733693 87.71545582 39.18996674 87.6953125 42.72265625 C87.65246951 49.64874268 87.58213328 56.57426918 87.5 63.5 C95.75 63.5 104 63.5 112.5 63.5 C112.47905273 61.76919189 112.45810547 60.03838379 112.43652344 58.25512695 C112.37194458 52.52758215 112.32602579 46.80008976 112.29275131 41.07227802 C112.27190288 37.60046816 112.24363705 34.12905327 112.19824219 30.6574707 C112.14634561 26.66353631 112.12703227 22.67001485 112.109375 18.67578125 C112.08872986 17.43290848 112.06808472 16.19003571 112.04681396 14.90950012 C112.04651184 13.74867416 112.04620972 12.58784821 112.04589844 11.3918457 C112.03701599 10.37258499 112.02813354 9.35332428 112.01898193 8.30317688 C112.62911025 4.74759818 114.01651965 3.06637256 116.5 0.5 C119.44493382 -0.35917455 121.36132349 0.1014379 124.5 0.5 C126.22480774 1.6599884 126.22480774 1.6599884 127.5 3.5 C127.86076355 6.17655945 127.86076355 6.17655945 127.84057617 9.44018555 C127.84034958 10.66122482 127.84012299 11.8822641 127.83988953 13.14030457 C127.82440567 14.45912125 127.80892181 15.77793793 127.79296875 17.13671875 C127.78737243 18.50006138 127.7831025 19.86341004 127.78010559 21.22676086 C127.76865949 24.81243592 127.73919486 28.39774554 127.70599365 31.98327637 C127.67528739 35.6430975 127.6615991 39.30297777 127.64648438 42.96289062 C127.6143244 50.14211285 127.56155899 57.32095864 127.5 64.5 C136.08 64.5 144.66 64.5 153.5 64.5 C153.47643433 61.75175903 153.47643433 61.75175903 153.45239258 58.94799805 C153.40403325 52.89709658 153.3695531 46.84624083 153.34456348 40.79519939 C153.32890195 37.12613324 153.30765525 33.45727599 153.27368164 29.78833008 C153.24110486 26.24811053 153.22315066 22.70809201 153.21536827 19.16773415 C153.20712076 17.15852345 153.18369863 15.14939372 153.16011047 13.14030457 C153.15977058 11.30874565 153.15977058 11.30874565 153.15942383 9.44018555 C153.14943108 7.82469063 153.14943108 7.82469063 153.13923645 6.17655945 C153.5 3.5 153.5 3.5 154.90019226 1.65364075 C156.89257395 0.21691017 158.05969607 0.09726927 160.5 0.125 C161.5209375 0.11339844 161.5209375 0.11339844 162.5625 0.1015625 C165.15134924 0.63394682 165.90410434 1.39557705 167.5 3.5 C167.86076355 6.17655945 167.86076355 6.17655945 167.84057617 9.44018555 C167.84034958 10.66122482 167.84012299 11.8822641 167.83988953 13.14030457 C167.82440567 14.45912125 167.80892181 15.77793793 167.79296875 17.13671875 C167.78737243 18.50006138 167.7831025 19.86341004 167.78010559 21.22676086 C167.76865949 24.81243592 167.73919486 28.39774554 167.70599365 31.98327637 C167.67528739 35.6430975 167.6615991 39.30297777 167.64648438 42.96289062 C167.6143244 50.14211285 167.56155899 57.32095864 167.5 64.5 C176.08 64.5 184.66 64.5 193.5 64.5 C193.47643433 61.75175903 193.47643433 61.75175903 193.45239258 58.94799805 C193.40403325 52.89709658 193.3695531 46.84624083 193.34456348 40.79519939 C193.32890195 37.12613324 193.30765525 33.45727599 193.27368164 29.78833008 C193.24110486 26.24811053 193.22315066 22.70809201 193.21536827 19.16773415 C193.20712076 17.15852345 193.18369863 15.14939372 193.16011047 13.14030457 C193.15977058 11.30874565 193.15977058 11.30874565 193.15942383 9.44018555 C193.14943108 7.82469063 193.14943108 7.82469063 193.13923645 6.17655945 C193.5 3.5 193.5 3.5 194.90019226 1.65364075 C196.89257395 0.21691017 198.05969607 0.09726927 200.5 0.125 C201.5209375 0.11339844 201.5209375 0.11339844 202.5625 0.1015625 C205.15134924 0.63394682 205.90410434 1.39557705 207.5 3.5 C207.86076355 6.17655945 207.86076355 6.17655945 207.84057617 9.44018555 C207.84034958 10.66122482 207.84012299 11.8822641 207.83988953 13.14030457 C207.82440567 14.45912125 207.80892181 15.77793793 207.79296875 17.13671875 C207.78737243 18.50006138 207.7831025 19.86341004 207.78010559 21.22676086 C207.76865949 24.81243592 207.73919486 28.39774554 207.70599365 31.98327637 C207.67528739 35.6430975 207.6615991 39.30297777 207.64648438 42.96289062 C207.6143244 50.14211285 207.56155899 57.32095864 207.5 64.5 C216.08 64.5 224.66 64.5 233.5 64.5 C233.48428955 62.66783936 233.4685791 60.83567871 233.45239258 58.94799805 C233.40403325 52.89709658 233.3695531 46.84624083 233.34456348 40.79519939 C233.32890195 37.12613324 233.30765525 33.45727599 233.27368164 29.78833008 C233.24110486 26.24811053 233.22315066 22.70809201 233.21536827 19.16773415 C233.20712076 17.15852345 233.18369863 15.14939372 233.16011047 13.14030457 C233.15988388 11.91926529 233.15965729 10.69822601 233.15942383 9.44018555 C233.14943108 7.82469063 233.14943108 7.82469063 233.13923645 6.17655945 C233.5 3.5 233.5 3.5 234.90019226 1.65364075 C236.89257395 0.21691017 238.05969607 0.09726927 240.5 0.125 C241.5209375 0.11339844 241.5209375 0.11339844 242.5625 0.1015625 C245.15134924 0.63394682 245.90410434 1.39557705 247.5 3.5 C247.86076355 6.17655945 247.86076355 6.17655945 247.84057617 9.44018555 C247.84034958 10.66122482 247.84012299 11.8822641 247.83988953 13.14030457 C247.82440567 14.45912125 247.80892181 15.77793793 247.79296875 17.13671875 C247.78737243 18.50006138 247.7831025 19.86341004 247.78010559 21.22676086 C247.76865949 24.81243592 247.73919486 28.39774554 247.70599365 31.98327637 C247.67528739 35.6430975 247.6615991 39.30297777 247.64648438 42.96289062 C247.6143244 50.14211285 247.56155899 57.32095864 247.5 64.5 C256.08 64.5 264.66 64.5 273.5 64.5 C273.46519531 60.21515625 273.43039062 55.9303125 273.39453125 51.515625 C273.37523538 48.09689598 273.35896806 44.67818238 273.34474945 41.25942993 C273.32891401 37.6516831 273.30775638 34.04414803 273.27368164 30.43652344 C273.24106172 26.96113743 273.22314156 23.48595667 273.21536827 20.01042938 C273.20713561 18.04059576 273.18372027 16.07084459 273.16011047 14.10113525 C273.15988388 12.90019226 273.15965729 11.69924927 273.15942383 10.46191406 C273.14943108 8.8763974 273.14943108 8.8763974 273.13923645 7.2588501 C273.55459945 4.08246422 274.20157183 2.7154475 276.5 0.5 C281.97087379 -0.2815534 281.97087379 -0.2815534 284.5 0.5 C287.99952101 4.11998973 288.99773868 6.38448693 288.95410156 11.3918457 C288.95364838 13.13308464 288.95364838 13.13308464 288.95318604 14.90950012 C288.93254089 16.15237289 288.91189575 17.39524567 288.890625 18.67578125 C288.88496521 19.95607712 288.87930542 21.23637299 288.87347412 22.5554657 C288.85825452 25.94727213 288.81900634 29.33838548 288.7746582 32.72991943 C288.73362496 36.19550197 288.71544605 39.6611973 288.6953125 43.12695312 C288.65122812 49.91830714 288.58218865 56.70900453 288.5 63.5 C296.75 63.5 305 63.5 313.5 63.5 C313.47905273 61.73366211 313.45810547 59.96732422 313.43652344 58.14746094 C313.37199463 52.30815771 313.32604831 46.46886681 313.29275131 40.62931442 C313.27188588 37.08909928 313.24358874 33.54927026 313.19824219 30.00927734 C313.14642262 25.93843909 313.12704631 21.86800573 313.109375 17.796875 C313.08872986 16.52696716 313.06808472 15.25705933 313.04681396 13.94866943 C313.04651184 12.76774719 313.04620972 11.58682495 313.04589844 10.37011719 C313.03701599 9.33087097 313.02813354 8.29162476 313.01898193 7.22088623 C313.62926538 3.76880837 314.73714055 2.59937901 317.5 0.5 C321 0 321 0 324.5 0.5 C327.26285945 2.59937901 328.37073462 3.76880837 328.98101807 7.22088623 C328.97213562 8.26013245 328.96325317 9.29937866 328.95410156 10.37011719 C328.95364838 12.14150055 328.95364838 12.14150055 328.95318604 13.94866943 C328.93254089 15.21857727 328.91189575 16.48848511 328.890625 17.796875 C328.88496521 19.10078186 328.87930542 20.40468872 328.87347412 21.74810791 C328.85823338 25.20732523 328.81896662 28.66586606 328.7746582 32.12481689 C328.73367087 35.65733693 328.71545582 39.18996674 328.6953125 42.72265625 C328.65246951 49.64874268 328.58213328 56.57426918 328.5 63.5 C336.75 63.5 345 63.5 353.5 63.5 C353.47905273 61.73366211 353.45810547 59.96732422 353.43652344 58.14746094 C353.37199463 52.30815771 353.32604831 46.46886681 353.29275131 40.62931442 C353.27188588 37.08909928 353.24358874 33.54927026 353.19824219 30.00927734 C353.14642262 25.93843909 353.12704631 21.86800573 353.109375 17.796875 C353.08872986 16.52696716 353.06808472 15.25705933 353.04681396 13.94866943 C353.04651184 12.76774719 353.04620972 11.58682495 353.04589844 10.37011719 C353.03701599 9.33087097 353.02813354 8.29162476 353.01898193 7.22088623 C353.62926538 3.76880837 354.73714055 2.59937901 357.5 0.5 C361 0 361 0 364.5 0.5 C367.26285945 2.59937901 368.37073462 3.76880837 368.98101807 7.22088623 C368.97213562 8.26013245 368.96325317 9.29937866 368.95410156 10.37011719 C368.95364838 12.14150055 368.95364838 12.14150055 368.95318604 13.94866943 C368.93254089 15.21857727 368.91189575 16.48848511 368.890625 17.796875 C368.88496521 19.10078186 368.87930542 20.40468872 368.87347412 21.74810791 C368.85823338 25.20732523 368.81896662 28.66586606 368.7746582 32.12481689 C368.73367087 35.65733693 368.71545582 39.18996674 368.6953125 42.72265625 C368.65246951 49.64874268 368.58213328 56.57426918 368.5 63.5 C376.75 63.5 385 63.5 393.5 63.5 C393.47905273 61.73366211 393.45810547 59.96732422 393.43652344 58.14746094 C393.37199463 52.30815771 393.32604831 46.46886681 393.29275131 40.62931442 C393.27188588 37.08909928 393.24358874 33.54927026 393.19824219 30.00927734 C393.14642262 25.93843909 393.12704631 21.86800573 393.109375 17.796875 C393.08872986 16.52696716 393.06808472 15.25705933 393.04681396 13.94866943 C393.04651184 12.76774719 393.04620972 11.58682495 393.04589844 10.37011719 C393.03701599 9.33087097 393.02813354 8.29162476 393.01898193 7.22088623 C393.62926538 3.76880837 394.73714055 2.59937901 397.5 0.5 C401 0 401 0 404.5 0.5 C407.28738872 2.61071665 408.37436965 3.7794547 408.98101807 7.2588501 C408.97213562 8.31586121 408.96325317 9.37287231 408.95410156 10.46191406 C408.95364838 12.26332855 408.95364838 12.26332855 408.95318604 14.10113525 C408.93254089 15.39291687 408.91189575 16.68469849 408.890625 18.015625 C408.88316071 19.35511429 408.87746866 20.69461452 408.87347412 22.03411865 C408.85823213 25.55251436 408.81896418 29.07024515 408.7746582 32.58837891 C408.73367364 36.18122361 408.7154564 39.7741762 408.6953125 43.3671875 C408.65246745 50.41172966 408.58423446 57.45582132 408.5 64.5 C409.17184326 64.5424585 409.84368652 64.58491699 410.53588867 64.62866211 C411.86970581 64.73319702 411.86970581 64.73319702 413.23046875 64.83984375 C414.10856201 64.90292725 414.98665527 64.96601074 415.89135742 65.03100586 C421.20940199 65.98710915 424.87757537 69.36098245 428.0703125 73.5703125 C432.0862802 79.78932533 433.41016554 85.10359727 432.5 92.5 C430.24615848 99.40302134 426.55306775 104.49170458 420.5 108.5 C419.93410156 108.8815625 419.36820312 109.263125 418.78515625 109.65625 C415.3534579 110.92333862 412.14985781 110.54989995 408.5 110.5 C408.50888245 111.24280212 408.51776489 111.98560425 408.5269165 112.75091553 C408.60709744 119.75449905 408.66798186 126.75792335 408.70724869 133.76183701 C408.72811513 137.36258286 408.75641421 140.96294916 408.80175781 144.56347656 C408.84525125 148.03887913 408.86914421 151.51391688 408.87950897 154.98957062 C408.89048615 156.95945784 408.921707 158.92919847 408.95318604 160.89886475 C408.95348816 162.09980774 408.95379028 163.30075073 408.95410156 164.53808594 C408.96298401 165.59509705 408.97186646 166.65210815 408.98101807 167.7411499 C408.37603507 171.21099339 407.23570108 172.35000593 404.5 174.5 C401.5625 175.5625 401.5625 175.5625 398.5 175.5 C395.88022597 173.85900566 394.92191634 173.15078759 393.5 170.5 C392.79038562 166.03485124 392.91967541 161.61641864 393.01171875 157.10546875 C393.01879349 155.80297684 393.02586823 154.50048492 393.03315735 153.15852356 C393.05218487 149.70736116 393.10124561 146.25726261 393.15667725 142.80651855 C393.20796351 139.28066396 393.23069117 135.75463627 393.25585938 132.22851562 C393.30937137 125.31853116 393.39727053 118.40942629 393.5 111.5 C385.25 111.5 377 111.5 368.5 111.5 C368.52094727 113.26633789 368.54189453 115.03267578 368.56347656 116.85253906 C368.62800537 122.69184229 368.67395169 128.53113319 368.70724869 134.37068558 C368.72811412 137.91090072 368.75641126 141.45072974 368.80175781 144.99072266 C368.85357738 149.06156091 368.87295369 153.13199427 368.890625 157.203125 C368.91127014 158.47303284 368.93191528 159.74294067 368.95318604 161.05133057 C368.95348816 162.23225281 368.95379028 163.41317505 368.95410156 164.62988281 C368.96298401 165.66912903 368.97186646 166.70837524 368.98101807 167.77911377 C368.37255371 171.22090192 367.21108662 172.36213342 364.5 174.5 C361.5625 175.5625 361.5625 175.5625 358.5 175.5 C355.88022597 173.85900566 354.92191634 173.15078759 353.5 170.5 C352.79038562 166.03485124 352.91967541 161.61641864 353.01171875 157.10546875 C353.01879349 155.80297684 353.02586823 154.50048492 353.03315735 153.15852356 C353.05218487 149.70736116 353.10124561 146.25726261 353.15667725 142.80651855 C353.20796351 139.28066396 353.23069117 135.75463627 353.25585938 132.22851562 C353.30937137 125.31853116 353.39727053 118.40942629 353.5 111.5 C345.25 111.5 337 111.5 328.5 111.5 C328.54713135 114.14165161 328.54713135 114.14165161 328.59521484 116.83666992 C328.6920754 122.66389268 328.76095702 128.49108767 328.81087303 134.31887341 C328.8421499 137.85146852 328.88455065 141.38319058 328.95263672 144.9152832 C329.03047326 148.97876218 329.0594473 153.04132833 329.0859375 157.10546875 C329.11690521 158.3702153 329.14787292 159.63496185 329.17977905 160.93803406 C329.18304703 169.45325839 329.18304703 169.45325839 327.23638916 172.43643188 C324.60672243 174.77039496 322.82371306 175.49365269 319.3125 175.5625 C316.027733 174.32158802 315.24773456 173.49564071 313.5 170.5 C313.13923645 167.7411499 313.13923645 167.7411499 313.15942383 164.53808594 C313.15965042 163.33714294 313.15987701 162.13619995 313.16011047 160.89886475 C313.17559433 159.60708313 313.19107819 158.31530151 313.20703125 156.984375 C313.21262948 155.64488195 313.21689851 154.30538274 313.21989441 152.96588135 C313.23132546 149.44762079 313.26077706 145.92973429 313.29400635 142.41162109 C313.32474511 138.81873636 313.33840784 135.22579094 313.35351562 131.6328125 C313.38564894 124.58837441 313.43840229 117.54425104 313.5 110.5 C305.25 110.5 297 110.5 288.5 110.5 C288.51571045 112.23080811 288.5314209 113.96161621 288.54760742 115.74487305 C288.59604183 121.47244914 288.63048103 127.19999573 288.65543652 132.92772198 C288.67107243 136.3994411 288.69227212 139.87093803 288.72631836 143.3425293 C288.76524063 147.33644712 288.77972629 151.33013263 288.79296875 155.32421875 C288.80845261 156.56709152 288.82393646 157.80996429 288.83988953 159.09049988 C288.84011612 160.25132584 288.84034271 161.41215179 288.84057617 162.6081543 C288.85056892 164.13704536 288.85056892 164.13704536 288.86076355 165.69682312 C288.43589096 168.9981351 287.46797217 170.83453194 285.5 173.5 C282.5 175.5 282.5 175.5 279.5 175.375 C275.95553159 174.34119671 275.30921416 173.64415926 273.5 170.5 C273.13923645 167.7411499 273.13923645 167.7411499 273.15942383 164.53808594 C273.15965042 163.33714294 273.15987701 162.13619995 273.16011047 160.89886475 C273.17559433 159.60708313 273.19107819 158.31530151 273.20703125 156.984375 C273.21262948 155.64488195 273.21689851 154.30538274 273.21989441 152.96588135 C273.23132546 149.44762079 273.26077706 145.92973429 273.29400635 142.41162109 C273.32474511 138.81873636 273.33840784 135.22579094 273.35351562 131.6328125 C273.38564894 124.58837441 273.43840229 117.54425104 273.5 110.5 C265.25 110.5 257 110.5 248.5 110.5 C248.51571045 112.23080811 248.5314209 113.96161621 248.54760742 115.74487305 C248.59604183 121.47244914 248.63048103 127.19999573 248.65543652 132.92772198 C248.67107243 136.3994411 248.69227212 139.87093803 248.72631836 143.3425293 C248.76524063 147.33644712 248.77972629 151.33013263 248.79296875 155.32421875 C248.80845261 156.56709152 248.82393646 157.80996429 248.83988953 159.09049988 C248.84011612 160.25132584 248.84034271 161.41215179 248.84057617 162.6081543 C248.85056892 164.13704536 248.85056892 164.13704536 248.86076355 165.69682312 C248.43589096 168.9981351 247.46797217 170.83453194 245.5 173.5 C242.5 175.5 242.5 175.5 239.5 175.3125 C236.32811061 174.45344662 235.39849915 174.09125555 233.5 171.5 C233.13923645 168.82344055 233.13923645 168.82344055 233.15942383 165.55981445 C233.15965042 164.33877518 233.15987701 163.1177359 233.16011047 161.85969543 C233.17559433 160.54087875 233.19107819 159.22206207 233.20703125 157.86328125 C233.21262757 156.49993862 233.2168975 155.13658996 233.21989441 153.77323914 C233.23134051 150.18756408 233.26080514 146.60225446 233.29400635 143.01672363 C233.32471261 139.3569025 233.3384009 135.69702223 233.35351562 132.03710938 C233.3856756 124.85788715 233.43844101 117.67904136 233.5 110.5 C225.25 110.5 217 110.5 208.5 110.5 C208.52356567 113.09621216 208.52356567 113.09621216 208.54760742 115.74487305 C208.59604183 121.47244914 208.63048103 127.19999573 208.65543652 132.92772198 C208.67107243 136.3994411 208.69227212 139.87093803 208.72631836 143.3425293 C208.76524063 147.33644712 208.77972629 151.33013263 208.79296875 155.32421875 C208.80845261 156.56709152 208.82393646 157.80996429 208.83988953 159.09049988 C208.84022942 160.83173882 208.84022942 160.83173882 208.84057617 162.6081543 C208.85056892 164.13704536 208.85056892 164.13704536 208.86076355 165.69682312 C208.43589096 168.9981351 207.46797217 170.83453194 205.5 173.5 C202.5 175.5 202.5 175.5 199.5 175.3125 C196.44655621 174.48552564 195.33270011 174.00790541 193.5 171.5 C192.44888391 168.34665174 192.37929528 166.14487717 192.38647461 162.83520508 C192.38655014 161.67422806 192.38662567 160.51325104 192.38670349 159.3170929 C192.39186478 158.06389755 192.39702606 156.81070221 192.40234375 155.51953125 C192.40446617 153.59484261 192.40446617 153.59484261 192.40663147 151.63127136 C192.41044595 148.22329759 192.42026709 144.81536657 192.43133545 141.40740967 C192.44157257 137.92851337 192.44613402 134.44961015 192.45117188 130.97070312 C192.46189033 124.14711611 192.47947848 117.32356451 192.5 110.5 C184.25 110.5 176 110.5 167.5 110.5 C167.52356567 113.24824097 167.52356567 113.24824097 167.54760742 116.05200195 C167.59596675 122.10290342 167.6304469 128.15375917 167.65543652 134.20480061 C167.67109805 137.87386676 167.69234475 141.54272401 167.72631836 145.21166992 C167.75889514 148.75188947 167.77684934 152.29190799 167.78463173 155.83226585 C167.79287924 157.84147655 167.81630137 159.85060628 167.83988953 161.85969543 C167.84022942 163.69125435 167.84022942 163.69125435 167.84057617 165.55981445 C167.85056892 167.17530937 167.85056892 167.17530937 167.86076355 168.82344055 C167.5 171.5 167.5 171.5 166.09980774 173.34635925 C163.18138775 175.45086727 159.93545902 175.03791112 156.5 174.5 C153.82568511 172.68836733 153.54079641 171.62238923 152.5 168.5 C152.41147181 166.61343185 152.38237778 164.72384476 152.38647461 162.83520508 C152.38655014 161.67422806 152.38662567 160.51325104 152.38670349 159.3170929 C152.39186478 158.06389755 152.39702606 156.81070221 152.40234375 155.51953125 C152.40446617 153.59484261 152.40446617 153.59484261 152.40663147 151.63127136 C152.41044595 148.22329759 152.42026709 144.81536657 152.43133545 141.40740967 C152.44157257 137.92851337 152.44613402 134.44961015 152.45117188 130.97070312 C152.46189033 124.14711611 152.47947848 117.32356451 152.5 110.5 C144.25 110.5 136 110.5 127.5 110.5 C127.52356567 113.19494629 127.52356567 113.19494629 127.54760742 115.94433594 C127.59600217 121.88347644 127.630463 127.82256111 127.65543652 133.76183701 C127.67108596 137.36249566 127.69231058 140.96294079 127.72631836 144.56347656 C127.75893828 148.03886257 127.77685844 151.51404333 127.78463173 154.98957062 C127.79286439 156.95940424 127.81627973 158.92915541 127.83988953 160.89886475 C127.84022942 162.70027924 127.84022942 162.70027924 127.84057617 164.53808594 C127.85056892 166.1236026 127.85056892 166.1236026 127.86076355 167.7411499 C127.4507221 170.87684059 126.67790903 172.24234475 124.5 174.5 C121.79238135 175.19328139 119.24291641 174.98101248 116.5 174.5 C113.82568511 172.68836733 113.54079641 171.62238923 112.5 168.5 C112.41147181 166.61343185 112.38237778 164.72384476 112.38647461 162.83520508 C112.38655014 161.67422806 112.38662567 160.51325104 112.38670349 159.3170929 C112.39186478 158.06389755 112.39702606 156.81070221 112.40234375 155.51953125 C112.40446617 153.59484261 112.40446617 153.59484261 112.40663147 151.63127136 C112.41044595 148.22329759 112.42026709 144.81536657 112.43133545 141.40740967 C112.44157257 137.92851337 112.44613402 134.44961015 112.45117188 130.97070312 C112.46189033 124.14711611 112.47947848 117.32356451 112.5 110.5 C104.25 110.5 96 110.5 87.5 110.5 C87.51571045 112.29663086 87.5314209 114.09326172 87.54760742 115.94433594 C87.59600217 121.88347644 87.630463 127.82256111 87.65543652 133.76183701 C87.67108596 137.36249566 87.69231058 140.96294079 87.72631836 144.56347656 C87.75893828 148.03886257 87.77685844 151.51404333 87.78463173 154.98957062 C87.79286439 156.95940424 87.81627973 158.92915541 87.83988953 160.89886475 C87.84011612 162.09980774 87.84034271 163.30075073 87.84057617 164.53808594 C87.85056892 166.1236026 87.85056892 166.1236026 87.86076355 167.7411499 C87.44549355 170.91682461 86.80087956 172.28740051 84.5 174.5 C79.11809045 175.18341709 79.11809045 175.18341709 76.5 174.5 C73.81494409 172.36824348 72.62386486 171.20064354 72.01898193 167.77911377 C72.0323056 166.22024445 72.0323056 166.22024445 72.04589844 164.62988281 C72.04620056 163.44896057 72.04650269 162.26803833 72.04681396 161.05133057 C72.06745911 159.78142273 72.08810425 158.51151489 72.109375 157.203125 C72.11503479 155.89921814 72.12069458 154.59531128 72.12652588 153.25189209 C72.14176662 149.79267477 72.18103338 146.33413394 72.2253418 142.87518311 C72.26632913 139.34266307 72.28454418 135.81003326 72.3046875 132.27734375 C72.34753049 125.35125732 72.41786672 118.42573082 72.5 111.5 C64.25 111.5 56 111.5 47.5 111.5 C47.51571045 113.26633789 47.5314209 115.03267578 47.54760742 116.85253906 C47.59600431 122.69187683 47.63046409 128.53120765 47.65543652 134.37068558 C47.6710852 137.91081201 47.69230836 141.45072123 47.72631836 144.99072266 C47.76518288 149.06154452 47.77971574 153.13213861 47.79296875 157.203125 C47.80845261 158.47303284 47.82393646 159.74294067 47.83988953 161.05133057 C47.84011612 162.23225281 47.84034271 163.41317505 47.84057617 164.62988281 C47.85056892 166.18875214 47.85056892 166.18875214 47.86076355 167.77911377 C47.44278952 170.93148261 46.78092735 172.29900005 44.5 174.5 C39.11809045 175.18341709 39.11809045 175.18341709 36.5 174.5 C33.81494409 172.36824348 32.62386486 171.20064354 32.01898193 167.77911377 C32.0323056 166.22024445 32.0323056 166.22024445 32.04589844 164.62988281 C32.04620056 163.44896057 32.04650269 162.26803833 32.04681396 161.05133057 C32.06745911 159.78142273 32.08810425 158.51151489 32.109375 157.203125 C32.11503479 155.89921814 32.12069458 154.59531128 32.12652588 153.25189209 C32.14176662 149.79267477 32.18103338 146.33413394 32.2253418 142.87518311 C32.26632913 139.34266307 32.28454418 135.81003326 32.3046875 132.27734375 C32.34753049 125.35125732 32.41786672 118.42573082 32.5 111.5 C24.25 111.5 16 111.5 7.5 111.5 C7.52094727 113.26633789 7.54189453 115.03267578 7.56347656 116.85253906 C7.62800537 122.69184229 7.67395169 128.53113319 7.70724869 134.37068558 C7.72811412 137.91090072 7.75641126 141.45072974 7.80175781 144.99072266 C7.85357738 149.06156091 7.87295369 153.13199427 7.890625 157.203125 C7.91127014 158.47303284 7.93191528 159.74294067 7.95318604 161.05133057 C7.95348816 162.23225281 7.95379028 163.41317505 7.95410156 164.62988281 C7.96298401 165.66912903 7.97186646 166.70837524 7.98101807 167.77911377 C7.37073462 171.23119163 6.26285945 172.40062099 3.5 174.5 C0 175 0 175 -3.5 174.5 C-6.28738872 172.38928335 -7.37436965 171.2205453 -7.98101807 167.7411499 C-7.97213562 166.68413879 -7.96325317 165.62712769 -7.95410156 164.53808594 C-7.95379944 163.33714294 -7.95349731 162.13619995 -7.95318604 160.89886475 C-7.93254089 159.60708313 -7.91189575 158.31530151 -7.890625 156.984375 C-7.88316071 155.64488571 -7.87746866 154.30538548 -7.87347412 152.96588135 C-7.85823213 149.44748564 -7.81896418 145.92975485 -7.7746582 142.41162109 C-7.73367364 138.81877639 -7.7154564 135.2258238 -7.6953125 131.6328125 C-7.65246745 124.58827034 -7.58423446 117.54417868 -7.5 110.5 C-9.40712769 110.52731201 -9.40712769 110.52731201 -11.3527832 110.55517578 C-17.20786396 110.6390265 -20.82610222 108.02149946 -25.0078125 104.078125 C-30.02632454 98.48864453 -32.16972862 92.53583485 -31.91015625 85.12109375 C-30.77200802 77.84778461 -26.98750838 72.04219389 -21.1875 67.6171875 C-16.52552286 64.53078597 -13.02725463 64.43542927 -7.5 64.5 C-7.50888245 63.75719788 -7.51776489 63.01439575 -7.5269165 62.24908447 C-7.60709744 55.24550095 -7.66798186 48.24207665 -7.70724869 41.23816299 C-7.72811513 37.63741714 -7.75641421 34.03705084 -7.80175781 30.43652344 C-7.84525125 26.96112087 -7.86914421 23.48608312 -7.87950897 20.01042938 C-7.89048615 18.04054216 -7.921707 16.07080153 -7.95318604 14.10113525 C-7.95348816 12.90019226 -7.95379028 11.69924927 -7.95410156 10.46191406 C-7.96298401 9.40490295 -7.97186646 8.34789185 -7.98101807 7.2588501 C-7.12925849 2.37363443 -4.7680726 0.68115323 0 0 Z " fill="#030201" transform="translate(55.5,192.5)"/>
<path d="M0 0 C1.90625 0.46484375 1.90625 0.46484375 4.40625 2.27734375 C5.90625 5.46484375 5.90625 5.46484375 5.90625 16.46484375 C21.74625 16.46484375 37.58625 16.46484375 53.90625 16.46484375 C53.90625 12.83484375 53.90625 9.20484375 53.90625 5.46484375 C55.40625 2.27734375 55.40625 2.27734375 57.90625 0.46484375 C60.74270803 -0.22683351 63.06979197 -0.22683351 65.90625 0.46484375 C68.40625 2.27734375 68.40625 2.27734375 69.90625 5.46484375 C70.00851802 7.36208604 70.03359822 9.264363 70 11.1640625 C69.98646484 12.15623779 69.97292969 13.14841309 69.95898438 14.1706543 C69.93288086 15.30627808 69.93288086 15.30627808 69.90625 16.46484375 C71.42722967 16.46069568 71.42722967 16.46069568 72.9789362 16.45646381 C97.64978691 16.38986947 122.32062597 16.34056851 146.99154758 16.30940723 C158.9222133 16.2939374 170.85281965 16.27284558 182.78344727 16.23852539 C193.18200038 16.20862669 203.5805105 16.18926959 213.97910541 16.18257827 C219.48524004 16.17866683 224.99125166 16.16947182 230.49734688 16.14765358 C235.68061385 16.1272811 240.86370721 16.12101154 246.04701042 16.12552071 C247.94850991 16.12469585 249.85001525 16.11873479 251.7514801 16.10722733 C254.35040677 16.09227131 256.94868047 16.09590144 259.54762268 16.1040802 C260.29764055 16.09534168 261.04765843 16.08660315 261.82040411 16.07759982 C268.69348765 16.1359441 273.95124469 18.1869123 279.15625 22.71484375 C279.80078125 23.25625 280.4453125 23.79765625 281.109375 24.35546875 C286.18598296 30.31496505 286.3406667 36.41116681 286.29393005 43.89561462 C286.30200836 45.45195274 286.30200836 45.45195274 286.31024987 47.03973204 C286.32453491 50.5096009 286.31742417 53.97908857 286.31030273 57.44897461 C286.31600598 59.93946133 286.32297006 62.42994544 286.33110046 64.92042542 C286.34718779 70.9788392 286.34913156 77.03710372 286.34388756 83.09552424 C286.339842 88.02092886 286.341294 92.94630285 286.34663582 97.87170601 C286.34738424 98.57338955 286.34813266 99.27507309 286.34890376 99.99801977 C286.35043528 101.42360119 286.35197363 102.8491826 286.35351873 104.27476401 C286.36723842 117.63569172 286.36180977 130.99656084 286.35033352 144.35748721 C286.34040106 156.57343094 286.35334291 168.78922321 286.37726771 181.00514358 C286.40166584 193.55759732 286.41126487 206.10998055 286.40461498 218.66245753 C286.40112442 225.70608174 286.40334404 232.74958947 286.42086601 239.79319572 C286.43713783 246.41623145 286.43239526 253.039025 286.41356087 259.66206932 C286.40987108 262.09206334 286.41299472 264.52207873 286.42344666 266.95205307 C286.4366308 270.27073286 286.42513067 273.58845079 286.40745544 276.90708923 C286.41706045 277.86731253 286.42666546 278.82753583 286.43656152 279.8168568 C286.35823229 286.97110331 284.69689119 292.28029495 279.94140625 297.70703125 C279.29042969 298.24585938 278.63945312 298.7846875 277.96875 299.33984375 C277.32035156 299.89414062 276.67195313 300.4484375 276.00390625 301.01953125 C271.34284877 304.23106061 267.36583633 304.71588617 261.75850582 304.72211266 C261.04650641 304.72561873 260.334507 304.7291248 259.60093185 304.73273712 C257.20888817 304.74206037 254.81708744 304.73712549 252.42503357 304.73226929 C250.69527569 304.73600506 248.9655195 304.74060629 247.23576599 304.74599993 C242.47750646 304.75825391 237.71931711 304.75796666 232.96104538 304.75561118 C227.83148175 304.75520363 222.7019408 304.76623607 217.5723877 304.77572632 C207.52188712 304.79234924 197.47140999 304.7978364 187.42089682 304.79895107 C179.25504681 304.79990071 171.08920456 304.80400677 162.92335701 304.81035233 C139.78673207 304.82796642 116.6501257 304.83719066 93.51349401 304.83569138 C91.64198415 304.83557151 91.64198415 304.83557151 89.73266602 304.83544922 C88.48347518 304.83536746 87.23428434 304.8352857 85.94723923 304.83520146 C65.6873668 304.83438798 45.42756862 304.85354075 25.16771769 304.88172595 C4.37982665 304.91041837 -16.40802813 304.92426833 -37.19593948 304.9225384 C-48.87284635 304.92187335 -60.54967533 304.9274161 -72.22656441 304.9488945 C-82.16522855 304.96705819 -92.10377949 304.97149321 -102.042453 304.95787565 C-107.11635519 304.95132227 -112.19003991 304.95131394 -117.26392174 304.96858215 C-121.90430931 304.98421319 -126.54430516 304.98155224 -131.1846826 304.96401389 C-132.8676366 304.96092191 -134.55061913 304.96465819 -136.23353953 304.97573404 C-138.5134564 304.98975085 -140.79197919 304.97935323 -143.07184696 304.96262169 C-144.97473692 304.96327379 -144.97473692 304.96327379 -146.91606909 304.96393907 C-150.65194333 304.37717237 -151.84603478 303.44964518 -154.09375 300.46484375 C-154.37109375 298.4296875 -154.37109375 298.4296875 -154.03125 296.40234375 C-153.93714844 295.73074219 -153.84304687 295.05914062 -153.74609375 294.3671875 C-152.90469858 291.91353812 -152.18815508 291.02507562 -150.09375 289.46484375 C-147.07232773 289.08928823 -147.07232773 289.08928823 -143.27298164 289.08846283 C-142.57203139 289.08421171 -141.87108113 289.0799606 -141.14888996 289.07558066 C-138.78226304 289.06490846 -136.41621167 289.07573132 -134.04959106 289.08630371 C-132.34289505 289.08301525 -130.63620114 289.07840329 -128.9295119 289.07257605 C-124.22563172 289.06031719 -119.52193076 289.06675222 -114.81805062 289.07608104 C-109.75046217 289.08285676 -104.68290752 289.07235547 -99.61532593 289.063797 C-90.82962786 289.05121039 -82.04397901 289.04926434 -73.25827408 289.05415344 C-60.55007189 289.06094865 -47.8419442 289.04846691 -35.13375531 289.03064626 C-14.50990915 289.00197315 6.11392899 288.98447712 26.73779297 288.97607422 C27.97289943 288.97556704 29.20800589 288.97505986 30.48053981 288.97453731 C39.24744311 288.97101016 48.01434652 288.96788093 56.78125 288.96484375 C66.79215507 288.96137524 76.80306002 288.95772614 86.81396484 288.95361328 C88.04696583 288.95311067 89.27996681 288.95260805 90.55033146 288.9520902 C111.0929614 288.94335295 131.63556372 288.92292988 152.17817509 288.89413118 C164.85755291 288.87692669 177.53685269 288.87037734 190.21624066 288.87743723 C198.90137277 288.88160921 207.58645563 288.87529059 216.27157627 288.8606385 C221.28681736 288.85256142 226.3019364 288.84950143 231.31717682 288.85946083 C235.90521625 288.86849605 240.49302832 288.86387511 245.08104815 288.8482464 C246.74388793 288.84504675 248.40674674 288.84696185 250.06957291 288.85441178 C252.32459296 288.86379765 254.57881811 288.85484418 256.83379936 288.84122467 C258.71496273 288.84081609 258.71496273 288.84081609 260.63412941 288.84039927 C264.18415706 288.43294715 266.07340548 287.604336 268.90625 285.46484375 C270.55476741 282.16780893 270.06029804 278.49719907 270.06446838 274.87228394 C270.07187535 273.52214838 270.07187535 273.52214838 270.07943195 272.14473736 C270.09486315 269.11065367 270.10318274 266.07659122 270.11157227 263.04248047 C270.12114638 260.87472342 270.13115617 258.70696826 270.14157104 256.53921509 C270.16867681 250.63870727 270.1896556 244.73819141 270.20957303 238.83765554 C270.23139769 232.67700314 270.25880355 226.5163757 270.28562927 220.35574341 C270.33560388 208.68272083 270.38052498 197.00968443 270.42365164 185.33663476 C270.47298333 172.05024654 270.52791651 158.76388403 270.58333123 145.47751975 C270.69722445 118.13998443 270.80404745 90.8024251 270.90625 63.46484375 C270.07899414 63.48579102 269.25173828 63.50673828 268.39941406 63.52832031 C264.6518163 63.61145994 260.90441251 63.66349906 257.15625 63.71484375 C255.85429687 63.74835938 254.55234375 63.781875 253.2109375 63.81640625 C251.96054687 63.82929688 250.71015625 63.8421875 249.421875 63.85546875 C247.69372559 63.88688965 247.69372559 63.88688965 245.93066406 63.91894531 C242.25898299 63.36765965 241.11552123 62.39507692 238.90625 59.46484375 C238.18111296 55.678017 238.53208046 54.06281563 240.578125 50.79296875 C244.30822527 47.24914065 249.09769241 47.9604353 253.94335938 48.02539062 C255.81217773 48.08823242 255.81217773 48.08823242 257.71875 48.15234375 C258.98396484 48.17490234 260.24917969 48.19746094 261.55273438 48.22070312 C264.67177619 48.27955297 267.78840902 48.36173005 270.90625 48.46484375 C270.70486699 46.35783649 270.46912227 44.25409265 270.21875 42.15234375 C270.02732422 40.39470703 270.02732422 40.39470703 269.83203125 38.6015625 C269.20064704 35.40187102 269.20064704 35.40187102 266.92458057 33.79371929 C262.77572049 31.96710734 259.1738864 32.04107877 254.68717957 32.06611633 C253.75594106 32.05946951 252.82470255 32.05282268 251.86524469 32.04597443 C248.74362962 32.02731621 245.6223969 32.02995166 242.50073242 32.0324707 C240.26356463 32.02345529 238.02640179 32.01312861 235.78924561 32.00158691 C229.71327621 31.97396506 223.6374004 31.96472531 217.56137633 31.95873284 C211.21253598 31.94936271 204.86376591 31.92316042 198.51496887 31.89872742 C187.85805024 31.85998904 177.20115485 31.83165168 166.54418945 31.8112793 C155.56825049 31.79026866 144.59235653 31.76299284 133.61645508 31.72729492 C132.9397207 31.7250961 132.26298632 31.72289727 131.56574484 31.72063182 C128.1707135 31.70956214 124.77568257 31.69836934 121.38065183 31.68711531 C93.22255738 31.59393466 65.06443778 31.52255625 36.90625 31.46484375 C36.90625 37.07484375 36.90625 42.68484375 36.90625 48.46484375 C39.15020065 48.45374069 41.39415131 48.44263763 43.70610046 48.43119812 C64.82216277 48.32909948 85.93819259 48.25464969 107.05444622 48.20578289 C117.91131516 48.17999086 128.76800309 48.14482114 139.62475586 48.08764648 C149.08646365 48.03784223 158.54804037 48.00556001 168.0098756 47.99440128 C173.02085996 47.98787749 178.03146932 47.97252389 183.0423336 47.93619347 C187.75784615 47.90228111 192.47282886 47.89178117 197.18845177 47.89930534 C198.91987995 47.89792866 200.65132566 47.88796769 202.38264847 47.86881638 C204.74624492 47.84395135 207.10783893 47.84991282 209.47148132 47.86357117 C210.15728781 47.84900696 210.8430943 47.83444275 211.5496828 47.81943721 C215.32737066 47.87847925 216.8473979 48.41771065 219.83576679 50.81101704 C221.90625 53.46484375 221.90625 53.46484375 222.46875 56.52734375 C221.7638623 60.20842394 220.867254 61.19943879 217.90625 63.46484375 C214.65869546 63.96163774 214.65869546 63.96163774 210.7142067 63.95703506 C209.62081516 63.96395813 209.62081516 63.96395813 208.50533491 63.97102106 C206.04943739 63.98165489 203.59457743 63.96362761 201.13873291 63.94586182 C199.36573883 63.94760528 197.59274574 63.95110606 195.81975818 63.95621848 C190.93738917 63.9651864 186.05536941 63.94912991 181.17304492 63.92910624 C175.91198897 63.91187174 170.65095355 63.9176751 165.38987732 63.92071533 C156.27129683 63.92281523 147.15283061 63.91023917 138.03427887 63.88776398 C124.85031673 63.85528957 111.66640999 63.84484163 98.48241219 63.83981201 C77.09354944 63.8310522 55.70474762 63.804418 34.31591797 63.76660156 C13.53564764 63.72989924 -7.24460616 63.70157877 -28.02490234 63.68457031 C-29.30527255 63.68351942 -30.58564276 63.68246852 -31.90481207 63.68138579 C-38.32789599 63.67616573 -44.75098004 63.67111087 -51.17406416 63.66613817 C-104.48066823 63.62465477 -157.78720615 63.55418765 -211.09375 63.46484375 C-211.07995334 92.0630146 -211.03777133 120.66102112 -210.96165943 149.2590971 C-210.92698461 162.5372521 -210.90165063 175.81530301 -210.89819336 189.09350586 C-210.89515695 200.66480656 -210.8747098 212.23592202 -210.83322543 223.80715114 C-210.81186463 229.9358729 -210.79931076 236.06433109 -210.80759621 242.19309044 C-210.81511666 247.95926723 -210.79939475 253.72490909 -210.76568985 259.49098778 C-210.75743243 261.60938439 -210.75773488 263.72783396 -210.76715279 265.84622574 C-210.77872735 268.7352922 -210.75972866 271.62259168 -210.73298645 274.51152039 C-210.74365971 275.3529648 -210.75433297 276.19440922 -210.76532966 277.06135195 C-210.69133263 281.3358969 -210.45946216 282.99174792 -207.75742626 286.48717976 C-204.35909444 289.01029361 -202.38751828 289.0652546 -198.18359375 289.03125 C-196.86423828 289.04220703 -195.54488281 289.05316406 -194.18554688 289.06445312 C-192.80076196 289.05447417 -191.41599246 289.04208022 -190.03125 289.02734375 C-187.30987694 289.00544071 -184.59295655 289.01128524 -181.87109375 289.03125 C-180.06499634 289.0149353 -180.06499634 289.0149353 -178.22241211 288.99829102 C-175.09375 289.46484375 -175.09375 289.46484375 -172.70141602 291.27319336 C-170.35755804 294.46845729 -170.54226715 296.60446383 -171.09375 300.46484375 C-172.65332031 302.65039062 -172.65332031 302.65039062 -175.09375 304.46484375 C-177.75121079 304.86372628 -179.9868014 305.02688003 -182.640625 304.99609375 C-183.37065735 304.99992065 -184.1006897 305.00374756 -184.85284424 305.00769043 C-186.39605082 305.01040771 -187.9393036 305.00305918 -189.48242188 304.98632812 C-191.82268519 304.96503541 -194.15983575 304.98606771 -196.5 305.01171875 C-205.51364117 305.03000114 -212.25748675 304.70289325 -219.3359375 298.5 C-219.87476563 297.84902344 -220.41359375 297.19804687 -220.96875 296.52734375 C-221.52304688 295.87894531 -222.07734375 295.23054688 -222.6484375 294.5625 C-226.49614649 288.97812236 -226.38217466 283.83954402 -226.36117554 277.27458191 C-226.36570665 276.23873201 -226.37023776 275.20288211 -226.37490618 274.13564283 C-226.3875811 270.65963795 -226.3859278 267.18378913 -226.38427734 263.70776367 C-226.39026066 261.21757302 -226.39706575 258.72738422 -226.40463257 256.23719788 C-226.42048207 250.17185765 -226.42674184 244.10657894 -226.42785732 238.04122373 C-226.42880812 233.11005552 -226.43292002 228.17890013 -226.43925858 223.24773598 C-226.45686955 209.26206331 -226.46609771 195.27642131 -226.46459763 181.29073747 C-226.46451772 180.5369694 -226.4644378 179.78320133 -226.46435547 179.0065918 C-226.46427371 178.25190164 -226.46419195 177.49721147 -226.46410771 176.71965192 C-226.46329492 164.49065331 -226.48243107 152.26177791 -226.5106322 140.03281494 C-226.53937106 127.47139139 -226.55317194 114.9100279 -226.55144465 102.34857064 C-226.55078108 95.2982016 -226.5562589 88.2479617 -226.57780075 81.1976223 C-226.59793233 74.56641778 -226.59732859 67.9354393 -226.58276749 61.30420494 C-226.58067444 58.87098289 -226.58540964 56.4377439 -226.5974884 54.00455093 C-226.61291598 50.6813981 -226.60364812 47.35918892 -226.58822632 44.03605652 C-226.59851344 43.07446898 -226.60880057 42.11288144 -226.61939943 41.12215489 C-226.54602308 33.96108206 -224.8692083 28.68976898 -220.1640625 23.22265625 C-219.52210938 22.68382813 -218.88015625 22.145 -218.21875 21.58984375 C-217.58195313 21.03554687 -216.94515625 20.48125 -216.2890625 19.91015625 C-211.11826985 16.50589774 -205.8867196 16.17766815 -199.8553772 16.22433472 C-198.63487232 16.22177144 -198.63487232 16.22177144 -197.38971078 16.21915638 C-194.67198882 16.21587054 -191.95451551 16.22685023 -189.23681641 16.23779297 C-187.28521734 16.23835728 -185.33361786 16.23804014 -183.38201904 16.23690796 C-178.08911747 16.23633422 -172.79630658 16.24809207 -167.50342607 16.26205587 C-161.97009268 16.2745596 -156.43675721 16.27573345 -150.90341187 16.27810669 C-140.42754851 16.2843225 -129.95172691 16.30073472 -119.47588193 16.32080567 C-107.54852695 16.34316149 -95.62116998 16.35415731 -83.69379926 16.36419654 C-59.16042636 16.38510083 -34.62709052 16.42027881 -10.09375 16.46484375 C-10.11115234 15.70776123 -10.12855469 14.95067871 -10.14648438 14.1706543 C-10.16001953 13.178479 -10.17355469 12.18630371 -10.1875 11.1640625 C-10.20490234 10.18010498 -10.22230469 9.19614746 -10.24023438 8.18237305 C-10.09375 5.46484375 -10.09375 5.46484375 -8.59375 2.27734375 C-5.56583477 0.08210521 -3.68637851 -0.28198045 0 0 Z " fill="#010000" transform="translate(226.09375,103.53515625)"/>
<path d="M0 0 C140.58 0 281.16 0 426 0 C426 0.33 426 0.66 426 1 C291.03 1 156.06 1 17 1 C17.33 32.02 17.66 63.04 18 95 C16.35 96.98 14.7 98.96 13 101 C9.87512097 106.60323136 8.98069311 111.70648129 10 118 C11.55492382 122.15242107 13.35155773 126.40744146 16.57714844 129.52368164 C18.84295294 133.46706788 18.28684393 137.38943561 18.15234375 141.84765625 C18.12412132 143.83528324 18.09613417 145.82291358 18.06835938 147.81054688 C18.0064943 150.92849798 17.93789251 154.04615225 17.86303711 157.16381836 C17.52510911 172.38753516 17.48178349 184.82653607 28.4375 196.625 C39.83011471 207.18400876 50.97554129 208.73955531 65.91937256 208.63923645 C67.71990127 208.64555652 69.52042339 208.65406451 71.32093263 208.66455668 C76.24225594 208.68696358 81.16310765 208.67853417 86.084445 208.6648711 C91.40129796 208.65558146 96.71805557 208.67517083 102.03488159 208.69119263 C111.23788732 208.71500071 120.44075914 208.72064936 129.6437912 208.71384621 C142.94968163 208.70403653 156.25542385 208.72179687 169.56129029 208.74621352 C191.15088952 208.7850856 212.7404463 208.80176503 234.33007812 208.80444336 C255.29819923 208.80709222 276.26627074 208.82022078 297.234375 208.84741211 C299.1741801 208.84992218 299.1741801 208.84992218 301.15317318 208.85248295 C307.64101272 208.86094263 314.12885198 208.86960801 320.61669111 208.87837565 C374.4111186 208.95080726 428.20552754 208.98720341 482 209 C482.04905756 210.76795181 482.0841477 212.53629516 482.11328125 214.3046875 C482.13430908 215.28937012 482.15533691 216.27405273 482.17700195 217.28857422 C482 220 482 220 480.1875 223.125 C476.37343748 226.39419645 473.02001547 226.12490071 468.17364502 226.12469864 C467.47209557 226.12604287 466.77054612 226.12738711 466.0477376 226.12877208 C463.67926426 226.13210109 461.31085483 226.12828391 458.94238281 226.12457275 C457.23426406 226.12555845 455.52614553 226.12699513 453.8180275 226.12884593 C450.0951251 226.13191152 446.37224056 226.13179246 442.64933777 226.12928963 C436.59292121 226.12523832 430.53651869 226.1279947 424.48010254 226.13163757 C416.82867555 226.13573137 409.17725169 226.13796728 401.52582359 226.13805357 C386.49669365 226.13825603 371.46759607 226.15069958 356.43847656 226.16766357 C354.07452775 226.1702694 351.71057893 226.17286821 349.3466301 226.1754601 C345.76384662 226.17939856 342.18106315 226.18334506 338.59827971 226.18732132 C325.08505233 226.20227313 311.57182396 226.21589548 298.05859375 226.22802734 C296.82296267 226.2291409 295.58733159 226.23025447 294.31425714 226.23140177 C274.2767045 226.2489887 254.23917203 226.2518451 234.20161295 226.25017694 C213.64767316 226.24889955 193.09380874 226.26659069 172.53989792 226.30119491 C159.85126723 226.32188845 147.16281675 226.32714956 134.47417641 226.3128666 C125.78528449 226.30443117 117.09653316 226.31407678 108.40767097 226.3381761 C103.38855513 226.35153212 98.36977614 226.35658985 93.35066223 226.34005547 C88.76134496 226.32510344 84.1726649 226.33288494 79.58340406 226.359225 C77.91791193 226.36467667 76.25236668 226.36156596 74.58691072 226.34930804 C72.33260945 226.33392635 70.08054221 226.34893704 67.82635498 226.3719368 C66.57148663 226.37253389 65.31661827 226.37313097 64.0237236 226.37374616 C60.81673123 226.69575166 60.81673123 226.69575166 59.13585281 229.41425395 C58.76102139 230.26755015 58.38618996 231.12084634 58 232 C57.67 232.66 57.34 233.32 57 234 C51.39 234 45.78 234 40 234 C39.34 232.35 38.68 230.7 38 229 C35.18678888 226.18678888 33.35273755 226.74587745 29.41796875 226.7265625 C28.08006989 226.70626481 26.74217933 226.68541387 25.40429688 226.6640625 C23.29769907 226.64150844 21.19142958 226.62501095 19.0847168 226.61914062 C17.04936476 226.60957937 15.0154879 226.57575435 12.98046875 226.5390625 C11.15358521 226.52673584 11.15358521 226.52673584 9.28979492 226.51416016 C5.41654772 225.90881258 3.76701053 224.72157679 1 222 C-0.64901752 218.70196496 -0.13267635 215.03223938 -0.12025452 211.40744019 C-0.12111053 210.50952759 -0.12196655 209.61161499 -0.12284851 208.68649292 C-0.12451157 205.65018771 -0.11896733 202.61393694 -0.11352539 199.57763672 C-0.11321925 197.37468531 -0.11335221 195.17173379 -0.11389065 192.96878242 C-0.11411707 187.05163382 -0.10830728 181.1345053 -0.10128021 175.21736145 C-0.09559927 169.67168105 -0.09531786 164.12600563 -0.09460449 158.58032227 C-0.08935023 142.34521217 -0.07538917 126.11010583 -0.0625 109.875 C-0.041875 73.61625 -0.02125 37.3575 0 0 Z " fill="#CE986C" transform="translate(15,167)"/>
<path d="M0 0 C0.93361321 -0.00170885 1.86722643 -0.0034177 2.82913095 -0.00517833 C5.97074381 -0.00848368 9.11214508 0.00254769 12.2537384 0.01345825 C14.50045771 0.01402214 16.74717739 0.01370625 18.99389648 0.01257324 C25.10512626 0.01199785 31.21627802 0.02378225 37.32748961 0.03772116 C43.7096656 0.05019755 50.09184324 0.05139657 56.47402954 0.05377197 C67.19000357 0.05928808 77.90594339 0.07179267 88.62190247 0.08963013 C99.65998694 0.10798469 110.69806363 0.12214327 121.73616028 0.13064575 C122.4164071 0.1311712 123.09665392 0.13169665 123.79751428 0.13223802 C127.21007058 0.13484807 130.62262692 0.13737549 134.03518331 0.13986182 C162.35130022 0.16059942 190.66738594 0.19597795 218.98347473 0.24050903 C218.98347473 5.85050903 218.98347473 11.46050903 218.98347473 17.24050903 C141.76347473 17.24050903 64.54347473 17.24050903 -15.01652527 17.24050903 C-15.01652527 5.79606459 -15.01652527 5.79606459 -12.01652527 2.24050903 C-8.04204255 -0.40914611 -4.61253314 -0.0305911 0 0 Z " fill="#E3AA75" transform="translate(30.016525268554688,134.75949096679688)"/>
<path d="M0 0 C0.93361321 -0.00170885 1.86722643 -0.0034177 2.82913095 -0.00517833 C5.97074381 -0.00848368 9.11214508 0.00254769 12.2537384 0.01345825 C14.50045771 0.01402214 16.74717739 0.01370625 18.99389648 0.01257324 C25.10512626 0.01199785 31.21627802 0.02378225 37.32748961 0.03772116 C43.7096656 0.05019755 50.09184324 0.05139657 56.47402954 0.05377197 C67.19000357 0.05928808 77.90594339 0.07179267 88.62190247 0.08963013 C99.65998694 0.10798469 110.69806363 0.12214327 121.73616028 0.13064575 C122.4164071 0.1311712 123.09665392 0.13169665 123.79751428 0.13223802 C127.21007058 0.13484807 130.62262692 0.13737549 134.03518331 0.13986182 C162.35130022 0.16059942 190.66738594 0.19597795 218.98347473 0.24050903 C218.98347473 5.85050903 218.98347473 11.46050903 218.98347473 17.24050903 C218.65347473 17.24050903 218.32347473 17.24050903 217.98347473 17.24050903 C217.98347473 11.96050903 217.98347473 6.68050903 217.98347473 1.24050903 C146.70347473 1.24050903 75.42347473 1.24050903 1.98347473 1.24050903 C1.98347473 6.52050903 1.98347473 11.80050903 1.98347473 17.24050903 C-3.62652527 17.24050903 -9.23652527 17.24050903 -15.01652527 17.24050903 C-15.45358326 6.31405925 -15.45358326 6.31405925 -12.01652527 2.24050903 C-8.04204255 -0.40914611 -4.61253314 -0.0305911 0 0 Z " fill="#BB8B61" transform="translate(30.016525268554688,134.75949096679688)"/>
<path d="M0 0 C1.5631897 0.00785522 1.5631897 0.00785522 3.15795898 0.01586914 C4.28266602 0.0190918 5.40737305 0.02231445 6.56616211 0.02563477 C7.75016602 0.03401367 8.93416992 0.04239258 10.15405273 0.05102539 C11.34192383 0.05553711 12.52979492 0.06004883 13.75366211 0.06469727 C16.69964685 0.07652853 19.64560589 0.09446463 22.59155273 0.11352539 C22.59155273 6.05352539 22.59155273 11.99352539 22.59155273 18.11352539 C14.01155273 18.11352539 5.43155273 18.11352539 -3.40844727 18.11352539 C-3.42907227 15.32915039 -3.44969727 12.54477539 -3.47094727 9.67602539 C-3.48005127 8.79760986 -3.48915527 7.91919434 -3.49853516 7.01416016 C-3.50567817 5.04706565 -3.4587662 3.07998918 -3.40844727 1.11352539 C-2.40844727 0.11352539 -2.40844727 0.11352539 0 0 Z " fill="#B8B5B9" transform="translate(346.408447265625,270.886474609375)"/>
<path d="M0 0 C1.5631897 0.00785522 1.5631897 0.00785522 3.15795898 0.01586914 C4.28266602 0.0190918 5.40737305 0.02231445 6.56616211 0.02563477 C7.75016602 0.03401367 8.93416992 0.04239258 10.15405273 0.05102539 C11.34192383 0.05553711 12.52979492 0.06004883 13.75366211 0.06469727 C16.69964685 0.07652853 19.64560589 0.09446463 22.59155273 0.11352539 C22.59155273 6.05352539 22.59155273 11.99352539 22.59155273 18.11352539 C14.01155273 18.11352539 5.43155273 18.11352539 -3.40844727 18.11352539 C-3.42907227 15.32915039 -3.44969727 12.54477539 -3.47094727 9.67602539 C-3.48005127 8.79760986 -3.48915527 7.91919434 -3.49853516 7.01416016 C-3.50567817 5.04706565 -3.4587662 3.07998918 -3.40844727 1.11352539 C-2.40844727 0.11352539 -2.40844727 0.11352539 0 0 Z " fill="#B7B5B8" transform="translate(306.408447265625,270.886474609375)"/>
<path d="M0 0 C1.5631897 0.00785522 1.5631897 0.00785522 3.15795898 0.01586914 C4.28266602 0.0190918 5.40737305 0.02231445 6.56616211 0.02563477 C7.75016602 0.03401367 8.93416992 0.04239258 10.15405273 0.05102539 C11.34192383 0.05553711 12.52979492 0.06004883 13.75366211 0.06469727 C16.69964685 0.07652853 19.64560589 0.09446463 22.59155273 0.11352539 C22.59155273 6.05352539 22.59155273 11.99352539 22.59155273 18.11352539 C14.01155273 18.11352539 5.43155273 18.11352539 -3.40844727 18.11352539 C-3.42907227 15.32915039 -3.44969727 12.54477539 -3.47094727 9.67602539 C-3.48005127 8.79760986 -3.48915527 7.91919434 -3.49853516 7.01416016 C-3.50567817 5.04706565 -3.4587662 3.07998918 -3.40844727 1.11352539 C-2.40844727 0.11352539 -2.40844727 0.11352539 0 0 Z " fill="#B8B5B9" transform="translate(266.408447265625,270.886474609375)"/>
<path d="M0 0 C4.14587582 -0.0268245 8.29158038 -0.04675315 12.4375 -0.0625 C14.21350586 -0.07506836 14.21350586 -0.07506836 16.02539062 -0.08789062 C17.15009766 -0.09111328 18.27480469 -0.09433594 19.43359375 -0.09765625 C20.47572021 -0.10289307 21.51784668 -0.10812988 22.59155273 -0.11352539 C25 0 25 0 26 1 C26.07330331 3.86469325 26.09217831 6.69893674 26.0625 9.5625 C26.041875 12.346875 26.02125 15.13125 26 18 C17.42 18 8.84 18 0 18 C0 12.06 0 6.12 0 0 Z " fill="#B8B5B9" transform="translate(223,271)"/>
<path d="M0 0 C4.14587582 -0.0268245 8.29158038 -0.04675315 12.4375 -0.0625 C14.21350586 -0.07506836 14.21350586 -0.07506836 16.02539062 -0.08789062 C17.15009766 -0.09111328 18.27480469 -0.09433594 19.43359375 -0.09765625 C20.47572021 -0.10289307 21.51784668 -0.10812988 22.59155273 -0.11352539 C25 0 25 0 26 1 C26.07330331 3.86469325 26.09217831 6.69893674 26.0625 9.5625 C26.041875 12.346875 26.02125 15.13125 26 18 C17.42 18 8.84 18 0 18 C0 12.06 0 6.12 0 0 Z " fill="#B7B5B8" transform="translate(183,271)"/>
<path d="M0 0 C4.14587582 -0.0268245 8.29158038 -0.04675315 12.4375 -0.0625 C14.21350586 -0.07506836 14.21350586 -0.07506836 16.02539062 -0.08789062 C17.15009766 -0.09111328 18.27480469 -0.09433594 19.43359375 -0.09765625 C20.47572021 -0.10289307 21.51784668 -0.10812988 22.59155273 -0.11352539 C25 0 25 0 26 1 C26.07330331 3.86469325 26.09217831 6.69893674 26.0625 9.5625 C26.041875 12.346875 26.02125 15.13125 26 18 C17.42 18 8.84 18 0 18 C0 12.06 0 6.12 0 0 Z " fill="#B8B5B9" transform="translate(143,271)"/>
<path d="M0 0 C8.25 0 16.5 0 25 0 C25 5.61 25 11.22 25 17 C16.75 17 8.5 17 0 17 C0 11.39 0 5.78 0 0 Z " fill="#C3C0C4" transform="translate(424,272)"/>
<path d="M0 0 C8.25 0 16.5 0 25 0 C25 5.61 25 11.22 25 17 C16.75 17 8.5 17 0 17 C0 11.39 0 5.78 0 0 Z " fill="#C2C0C3" transform="translate(384,272)"/>
<path d="M0 0 C8.25 0 16.5 0 25 0 C25 5.61 25 11.22 25 17 C16.75 17 8.5 17 0 17 C0 11.39 0 5.78 0 0 Z " fill="#C2BFC3" transform="translate(103,272)"/>
<path d="M0 0 C8.25 0 16.5 0 25 0 C25 5.61 25 11.22 25 17 C16.75 17 8.5 17 0 17 C0 11.39 0 5.78 0 0 Z " fill="#C3C0C4" transform="translate(63,272)"/>
<path d="M0 0 C0 5.28 0 10.56 0 16 C-6 15 -6 15 -7.9375 12.875 C-9.32951161 9.10838035 -9.06917594 6.84903337 -8 3 C-5.19017911 -0.00360164 -4.25076423 0 0 0 Z " fill="#C2BFC3" transform="translate(48,272)"/>
<path d="M0 0 C6 1 6 1 7.9375 2.5625 C9.51452675 6.1803849 9.17272994 9.26786622 8 13 C6.1875 15 6.1875 15 4 16 C2.68 16 1.36 16 0 16 C0 10.72 0 5.44 0 0 Z " fill="#C3C0C4" transform="translate(464,272)"/>
</svg>
